<svg width="638" height="223" viewBox="0 0 638 223" fill="none" xmlns="http://www.w3.org/2000/svg">
<rect y="154" width="232" height="44" fill="#FFDC58"/>
<g filter="url(#filter0_d_3_23)">
<rect x="544" y="7" width="90.0111" height="90.0111" rx="45.0056" fill="#FFDC58" stroke="black" stroke-width="2"/>
<path fill-rule="evenodd" clip-rule="evenodd" d="M587.798 79.5652C587.797 79.5561 587.79 79.549 587.781 79.5488C586.61 79.5196 585.412 79.4053 584.233 79.0748C583.802 78.9542 583.362 78.8355 582.948 78.6353C582.219 78.2884 581.541 77.7923 581.008 77.1755C580.739 76.8628 580.508 76.5495 580.301 76.1783C580.085 75.8072 579.959 75.3764 579.909 74.9443C579.858 74.5594 579.899 74.1634 579.993 73.7898C580.096 73.4149 580.278 73.0736 580.492 72.7615C581.064 71.9757 582.035 71.5051 582.941 71.5915C583.225 71.6095 583.184 71.7562 583.002 71.9788C582.808 72.1759 582.545 72.5775 582.254 72.7976C581.973 72.9878 581.811 73.2744 581.63 73.4914C581.463 73.7282 581.355 73.9881 581.307 74.2523C581.236 74.5122 581.223 74.7913 581.278 75.0817C581.335 75.3708 581.479 75.6586 581.674 75.9987C581.912 76.376 582.239 76.7043 582.616 76.9723C583 77.2334 583.429 77.436 583.871 77.6132C584.849 78.0005 585.948 78.1696 587.058 78.2399C587.744 78.2791 588.44 78.289 589.125 78.2498C590.165 78.1889 591.214 78.0596 592.2 77.7543C592.972 77.5386 593.687 77.2091 594.369 76.8336C594.52 76.7522 594.661 76.6614 594.809 76.5737C595.359 76.248 595.565 76.1889 595.815 76.2784C595.871 76.2983 595.935 76.3095 595.98 76.335C596.121 76.4046 596.017 76.7211 595.637 77.0817C595.07 77.6076 594.409 78.0739 593.689 78.4482C593.329 78.6322 592.958 78.8112 592.573 78.948C592.183 79.0705 591.787 79.1737 591.387 79.2545C590.207 79.5033 589 79.5833 587.815 79.5815C587.806 79.5815 587.798 79.5744 587.798 79.5652Z" fill="#231F20"/>
<path fill-rule="evenodd" clip-rule="evenodd" d="M591.006 80.0073C591.004 80.0028 590.999 80.0002 590.995 80.0014C590.36 80.1694 589.714 80.2894 589.067 80.3885C588.828 80.4208 588.593 80.4519 588.353 80.4842C587.508 80.5451 586.657 80.5265 585.819 80.409C585.446 80.3599 585.074 80.294 584.708 80.2162C584.243 80.0987 583.754 79.9794 583.357 79.6735C583.231 79.584 583.331 79.469 583.51 79.3981C583.694 79.3241 583.93 79.3061 584.166 79.3813C584.992 79.6909 585.897 79.8302 586.825 79.9116C587.383 79.9539 587.967 79.8923 588.535 79.8103C589.163 79.7388 589.786 79.6095 590.403 79.4553C590.783 79.3645 591.157 79.2396 591.531 79.1239L592.374 78.8249C592.65 78.713 592.923 78.5942 593.193 78.4718C593.606 78.2678 593.99 78.0266 594.389 77.8121L594.647 77.6611C594.977 77.4826 595.107 77.469 595.235 77.5231C595.265 77.5361 595.299 77.5448 595.321 77.561C595.395 77.6126 595.303 77.7556 595.088 77.9433C594.456 78.5066 593.693 78.9704 592.879 79.3328C592.284 79.6176 591.656 79.837 591.017 80.0132C591.012 80.0144 591.007 80.0119 591.006 80.0073Z" fill="#231F20"/>
<path fill-rule="evenodd" clip-rule="evenodd" d="M592.237 84.0023C592.242 84.0061 592.249 84.006 592.254 84.002C592.452 83.8302 592.623 83.5883 592.779 83.335C592.84 83.2436 592.862 83.1273 592.92 83.0303C593.115 82.6778 593.287 82.2967 593.458 81.9026C593.54 81.731 593.6 81.5476 593.667 81.3648C593.758 81.1329 593.816 80.8693 594.077 80.6797C594.152 80.6213 594.238 80.7381 594.316 80.8799C594.39 81.0297 594.481 81.1541 594.458 81.2747C594.344 81.6638 594.295 82.1687 594.015 82.6057C593.863 82.8718 593.801 83.1882 593.666 83.4792C593.522 83.8 593.329 84.109 593.114 84.4024C592.958 84.5715 592.822 84.7512 592.633 84.8917C592.498 85.0017 592.352 85.0987 592.199 85.1816L592.196 85.1833C592.047 85.279 591.879 85.3275 591.716 85.3891C591.591 85.4469 591.466 85.486 591.336 85.5221C591.209 85.5557 591.074 85.6166 590.943 85.6272C590.885 85.6346 590.828 85.6359 590.768 85.6309C590.55 85.6035 590.486 85.5376 590.47 85.3182C590.466 85.2716 590.459 85.2262 590.459 85.1839C590.459 85.0508 590.558 84.8836 590.685 84.8233C591.074 84.6306 591.363 84.5672 591.646 84.4292C591.832 84.3067 592.045 84.2054 592.219 84.0041C592.224 83.9988 592.232 83.998 592.237 84.0023Z" fill="#231F20"/>
<path fill-rule="evenodd" clip-rule="evenodd" d="M582.462 73.0463C582.456 73.0389 582.447 73.0361 582.438 73.0395C582.285 73.1026 582.107 73.1729 581.952 73.2928C581.894 73.3382 581.86 73.4029 581.803 73.4495C581.594 73.613 581.388 73.8045 581.237 74.0308C581.181 74.1303 581.146 74.2478 581.153 74.3503C581.149 74.4964 581.201 74.5748 581.093 74.6873C581.055 74.7252 580.815 74.8378 580.547 74.8664C580.288 74.9099 579.95 74.7862 579.923 74.6146C579.853 74.3074 579.913 74.0389 580.007 73.8151C580.098 73.5857 580.238 73.3973 580.407 73.2381C580.614 73.056 580.705 72.8054 580.885 72.6121C581.086 72.4044 581.307 72.2185 581.559 72.0662C581.707 71.9674 581.883 71.9002 582.048 71.8263C582.308 71.7178 582.592 71.6704 582.873 71.6492C582.876 71.6489 582.88 71.6487 582.883 71.6485C582.997 71.6466 583.113 71.6192 583.232 71.6143C583.348 71.6199 583.471 71.6261 583.593 71.646C583.649 71.6497 583.69 71.6802 583.735 71.7081C583.89 71.8312 583.894 71.9388 583.783 72.1607C583.757 72.2117 583.733 72.2621 583.705 72.3093C583.609 72.4647 583.465 72.5754 583.354 72.6351C583.009 72.8303 582.991 72.8875 582.844 72.9217C582.753 72.9421 582.622 72.9821 582.487 73.0524C582.478 73.0569 582.467 73.0543 582.462 73.0463Z" fill="#231F20"/>
<path fill-rule="evenodd" clip-rule="evenodd" d="M571.784 62.592C571.787 62.5883 571.787 62.5827 571.784 62.579C570.297 60.8537 568.956 58.9852 567.885 56.961C567.678 56.5973 567.498 56.2193 567.321 55.8395C567.134 55.4646 566.966 55.0822 566.822 54.6881C565.726 51.9464 565.277 48.9529 565.496 46.0266C565.532 45.3763 565.64 44.7304 565.718 44.0844C565.857 43.4491 565.935 42.8 566.119 42.1808C566.485 40.5712 567.11 38.971 568.079 37.6194C568.384 37.1998 568.411 37.3079 568.263 37.7238C568.109 38.1398 567.851 38.8926 567.507 39.7468C567.356 40.1267 567.221 40.514 567.101 40.9044C566.98 41.293 566.898 41.7021 566.782 42.0962C566.669 42.4929 566.567 42.8914 566.5 43.298C566.429 43.7033 566.322 44.1031 566.279 44.5128C566.019 46.1404 566 47.8015 566.158 49.4522C566.347 51.4323 566.963 53.4397 567.824 55.2849C568.759 57.3222 569.958 59.2464 571.367 61.0114C572.224 62.1062 573.149 63.15 574.123 64.146C575.591 65.6629 577.165 67.0928 578.771 68.4475C580.02 69.5013 581.29 70.4767 582.547 71.5013C582.822 71.7288 583.1 71.9414 583.368 72.1833C584.373 73.0661 584.645 73.4092 584.745 73.7157C584.768 73.7847 584.808 73.8668 584.814 73.9141C584.83 74.0757 584.381 73.7648 583.63 73.1543C581.389 71.3595 578.963 69.5006 576.656 67.4621C574.947 65.9483 573.29 64.347 571.784 62.6051C571.781 62.6013 571.781 62.5958 571.784 62.592Z" fill="#231F20"/>
<path fill-rule="evenodd" clip-rule="evenodd" d="M568.808 36.4392C568.818 36.4437 568.83 36.4406 568.837 36.4317C569.813 35.1305 570.961 33.9854 572.214 32.9803C573.501 32.0117 574.879 31.1774 576.334 30.5091C579.255 29.211 582.443 28.5035 585.654 28.6042C586.825 28.6403 587.994 28.7752 589.124 28.9996C589.693 29.1121 590.261 29.2476 590.824 29.4136C591.386 29.5765 591.936 29.8146 592.49 30.0179C594.407 30.856 596.113 32.1466 597.473 33.7052C598.84 35.2632 599.87 37.0773 600.576 38.9865C602.011 42.8087 602.286 46.9579 601.752 50.9219C601.538 52.6881 601.162 54.4307 600.699 56.1398C600.25 57.8556 599.662 59.523 599.036 61.16C598.23 63.2638 597.262 65.3067 596.184 67.2843C595.114 69.2669 593.898 71.1662 592.578 72.9784C591.75 74.1068 591.709 73.8444 592.177 72.7428C592.416 72.1963 592.755 71.4229 593.187 70.5109C593.603 69.5896 594.119 68.5333 594.709 67.4074C595.759 65.4124 596.659 63.349 597.52 61.2799C598.363 59.2022 599.083 57.0773 599.626 54.9113C600.723 50.5905 601.062 46.0496 600.017 41.717C599.699 40.4295 599.252 39.1606 598.663 37.9545C598.071 36.749 597.304 35.6287 596.409 34.6309C595.512 33.6368 594.475 32.759 593.305 32.1099C592.136 31.4596 590.894 30.9617 589.571 30.6552C583.783 29.2066 577.331 30.713 572.695 34.519C571.279 35.6915 570.047 37.0941 569.143 38.6875C568.94 39.0972 568.723 39.5013 568.529 39.9147L568.054 41.2004C567.816 42.0956 567.569 42.9921 567.448 43.9122L567.362 44.4313L567.318 44.9561L567.235 46.0061L567.242 47.0599L567.248 47.5865L567.297 48.1118C567.381 49.5181 567.705 50.9001 568.104 52.251C568.512 53.6039 569.101 54.8964 569.741 56.1565C570.411 57.403 571.171 58.5998 571.997 59.7468C574.595 63.3079 577.793 66.2666 581.072 69.1631C581.797 69.8015 582.519 70.4114 583.241 71.0754C585.922 73.5093 586.651 74.578 586.791 75.4434C586.821 75.6411 586.854 75.8892 586.838 76.0017C586.822 76.0993 586.761 76.09 586.656 76.0023C586.547 75.9141 586.433 75.7431 586.201 75.523C585.773 75.0766 585.064 74.3816 584.081 73.5193C581.135 70.9909 577.966 68.4195 575.067 65.4447C572.173 62.4804 569.465 59.109 567.685 55.1475C567.022 53.6828 566.525 52.1329 566.181 50.5457C565.829 48.9561 565.74 47.3117 565.79 45.6834C565.851 44.049 566.175 42.4438 566.599 40.8777C567.09 39.2925 567.836 37.7961 568.779 36.4475C568.785 36.4381 568.798 36.4347 568.808 36.4392Z" fill="#231F20"/>
<path fill-rule="evenodd" clip-rule="evenodd" d="M584.9 78.5338C584.899 78.5431 584.906 78.5515 584.915 78.5532C586.495 78.8402 588.174 78.7917 589.821 78.5235C590.42 78.4184 591.027 78.2518 591.607 78.1243C592.584 77.8713 593.579 77.4063 594.488 76.8673C595.394 76.3196 596.24 75.6487 596.829 74.8337C597.326 74.0989 597.442 73.2179 597.001 72.4961C596.727 72.0379 596.267 71.6599 595.771 71.3497C595.264 71.0513 594.724 70.7796 594.149 70.5751C593.793 70.4551 593.846 70.3382 594.213 70.2338C594.568 70.1529 595.297 70.0392 596.04 70.3705C596.688 70.6602 597.327 71.0532 597.844 71.6848C597.976 71.8363 598.081 72.0101 598.173 72.1943C598.367 72.5858 598.491 73.0123 598.526 73.4479C598.531 73.6643 598.494 73.8782 598.471 74.0926C598.307 74.9332 597.87 75.6003 597.397 76.1529C596.919 76.7131 596.357 77.1352 595.779 77.5163C595.085 77.9664 594.366 78.3724 593.613 78.7342C593.236 78.9145 592.849 79.0805 592.448 79.2241C592.25 79.2993 592.035 79.3541 591.83 79.4181L591.231 79.5486C589.485 79.9372 587.676 80.1405 585.866 79.9882C584.754 79.8906 583.647 79.6574 582.593 79.2496C581.798 78.9319 581.047 78.4818 580.387 77.9111C579.736 77.3304 579.204 76.5813 578.941 75.7122C578.751 75.0389 578.722 74.2816 578.951 73.594C579.188 72.9089 579.63 72.3189 580.157 71.8663C580.389 71.6655 580.625 71.4815 580.889 71.3273C581.377 71.0395 581.743 70.9543 582 70.922C582.263 70.9015 582.432 70.9612 582.583 71.0861C582.652 71.1414 582.734 71.1906 582.779 71.249C582.93 71.451 582.58 71.742 582.003 72.1057C581.145 72.6341 580.423 73.3659 580.226 74.1467C580.107 74.5359 580.128 74.9201 580.22 75.3261C580.33 75.7321 580.568 76.1281 580.859 76.4974C581.782 77.5871 583.31 78.2429 584.885 78.5144C584.895 78.516 584.901 78.5245 584.9 78.5338Z" fill="#231F20"/>
<path fill-rule="evenodd" clip-rule="evenodd" d="M583.243 75.5938C583.241 75.6018 583.245 75.6105 583.252 75.6138C584.128 75.9786 585.101 76.2172 586.096 76.3341C586.461 76.3789 586.831 76.3727 587.2 76.387C588.502 76.4442 589.833 76.3478 591.108 76.0227C591.672 75.8772 592.226 75.6776 592.734 75.4165C593.388 75.0746 593.957 74.6332 594.461 74.1427C594.622 73.9903 594.741 74.0774 594.763 74.3472C594.8 74.6214 594.686 75.0982 594.315 75.4364C592.995 76.5847 591.363 77.12 589.738 77.2791C588.764 77.3717 587.76 77.5209 586.759 77.4924C585.661 77.4594 584.558 77.3164 583.495 76.9739C582.843 76.7637 582.205 76.4827 581.616 76.1035C581.173 75.8131 580.759 75.4606 580.418 75.0367C580.259 74.8159 580.1 74.5959 579.981 74.3491C579.845 74.1277 579.745 73.7752 579.751 73.4756C579.758 72.9888 579.944 72.5567 580.182 72.1961C580.424 71.8343 580.727 71.5284 581.077 71.2797C581.229 71.1666 581.387 71.0665 581.561 70.9813C582.225 70.686 582.528 70.8004 582.678 71.0628C582.713 71.1237 582.755 71.1821 582.772 71.2418C582.819 71.4439 582.604 71.6285 582.284 71.8044C581.797 72.0612 581.338 72.4815 581.089 72.9167C580.964 73.1318 580.909 73.3419 580.921 73.4805C580.923 73.5527 580.945 73.608 580.973 73.6664C581.007 73.7385 581.1 73.8884 581.156 73.9978C581.591 74.6768 582.352 75.2192 583.234 75.5737C583.242 75.5769 583.246 75.5857 583.243 75.5938Z" fill="#231F20"/>
<path fill-rule="evenodd" clip-rule="evenodd" d="M586.818 81.2821C586.816 81.2914 586.823 81.3002 586.832 81.3023C587.647 81.4917 588.534 81.52 589.417 81.4403C589.744 81.4179 590.061 81.3272 590.385 81.2737C591.534 81.0866 592.668 80.7291 593.754 80.2535C594.23 80.0322 594.686 79.7605 595.098 79.4515C595.644 79.0617 596.078 78.5786 596.526 78.1298C596.677 77.9942 596.812 78.0775 596.876 78.3355C596.906 78.463 596.931 78.6495 596.893 78.8435C596.849 79.0231 596.762 79.2215 596.624 79.3993C595.589 80.5531 594.301 81.38 592.874 81.8158C592.019 82.0608 591.168 82.417 590.267 82.573C589.282 82.7515 588.269 82.8143 587.258 82.7129C586.637 82.647 586.012 82.4997 585.427 82.2914C584.54 81.9656 583.702 81.4658 583.007 80.8143C582.464 80.3157 581.965 79.7549 581.606 79.0965C581.533 78.9498 581.461 78.8056 581.399 78.652C581.22 78.0657 581.322 77.8413 581.568 77.6598C581.625 77.6181 581.676 77.5696 581.73 77.5423C581.904 77.4509 582.167 77.6256 582.396 77.9445C582.732 78.4201 583.025 78.8683 583.359 79.2793C583.694 79.689 584.089 80.0421 584.536 80.3411C585.19 80.7795 585.999 81.1007 586.803 81.2616C586.813 81.2635 586.819 81.2725 586.818 81.2821Z" fill="#231F20"/>
<path fill-rule="evenodd" clip-rule="evenodd" d="M583.378 43.1435C583.387 43.141 583.392 43.133 583.391 43.1243C583.37 42.8175 583.368 42.5029 583.386 42.1811L583.422 41.6769L583.483 41.3132C583.517 41.1821 583.565 41.0552 583.605 40.9259C583.778 40.4062 584.182 40.068 584.661 39.9691C585.144 39.8734 585.649 40.0394 586.037 40.3925C586.13 40.4839 586.229 40.5778 586.306 40.6816C586.393 40.786 586.475 40.8874 586.51 40.9551C586.609 41.1093 586.687 41.261 586.762 41.4127C586.91 41.7148 587.024 42.0133 587.126 42.3104C587.318 42.9097 587.479 43.5314 587.552 44.1482C587.858 46.6157 587.487 49.1037 586.407 51.3387C586.209 51.7459 585.977 52.1401 585.721 52.5218C585.591 52.7139 585.417 52.9079 585.264 53.0981C585.082 53.2728 584.896 53.4512 584.688 53.6017C583.837 54.2184 582.697 54.3807 581.762 54.1594C580.922 53.9871 580.178 53.6309 579.502 53.2057C578.825 52.7755 578.216 52.275 577.665 51.6931C577.106 51.0925 576.671 50.4335 576.306 49.7335C575.945 49.0328 575.647 48.2924 575.498 47.491C575.351 46.7002 575.325 45.8118 575.712 44.9893C575.895 44.5896 576.148 44.2315 576.515 43.9293C576.874 43.6266 577.376 43.4512 577.853 43.4662C578.82 43.4985 579.549 44.081 580.099 44.6126C580.666 45.1653 581.136 45.7919 581.546 46.4429C582.996 48.7643 583.807 51.3679 584.577 53.8678C585.08 55.4823 585.521 57.1404 585.802 58.8339C585.934 59.6819 586.035 60.5373 586.061 61.3965C586.087 62.2563 586.043 63.1149 585.963 63.9654C585.833 65.026 585.677 64.8563 585.512 63.9641C585.421 63.4879 585.302 62.8699 585.164 62.1525C585 61.4121 584.835 60.5591 584.678 59.6303C584.397 57.9828 583.928 56.3701 583.425 54.7462C582.935 53.1037 582.446 51.4718 581.851 49.9175C581.256 48.3676 580.531 46.8476 579.488 45.6688C579.23 45.376 578.939 45.0975 578.666 44.9097C578.383 44.7226 578.08 44.607 577.823 44.6076C577.566 44.6008 577.341 44.6928 577.124 44.9029C576.906 45.1143 576.722 45.4307 576.628 45.7372C576.387 46.5137 576.573 47.5103 576.94 48.408C577.305 49.3132 577.851 50.1967 578.515 50.8917C579.21 51.5955 580.046 52.201 580.932 52.6026C581.814 52.9843 582.788 53.1659 583.549 52.8096C583.97 52.6269 584.332 52.3048 584.631 51.9007C584.935 51.4612 585.203 50.9825 585.426 50.4802C585.859 49.4693 586.147 48.3788 586.27 47.271C586.403 46.1631 586.375 45.036 586.18 43.9523C586.069 43.4158 585.923 42.8867 585.716 42.3807C585.613 42.1314 585.497 41.8927 585.366 41.6875C585.257 41.5165 585.202 41.4512 585.074 41.3785C584.924 41.2933 584.735 41.3835 584.675 41.5395C584.642 41.6129 584.614 41.6962 584.602 41.7714C584.575 41.8958 584.544 42.0767 584.539 42.2352C584.507 42.8979 584.582 43.5949 584.711 44.2738C584.842 44.9533 585.03 45.6272 585.292 46.2588C585.548 46.8743 585.897 47.5196 586.343 47.828C586.712 48.0537 587.167 48.1643 587.604 48.0816C588.046 48.007 588.481 47.7696 588.862 47.4568C589.62 46.8246 590.227 45.9212 590.518 44.9825C590.662 44.538 590.666 44.0269 590.602 43.5426C590.533 43.0658 590.359 42.5914 590.073 42.3484C589.778 42.1034 589.483 42.1065 589.172 42.4006C588.858 42.7009 588.603 43.1547 588.41 43.6185C588.251 43.9809 588.158 44.3502 588.067 44.7581C587.964 45.1528 587.896 45.5557 587.83 45.9579C587.711 46.7636 587.64 47.575 587.622 48.3869C587.586 50.0108 587.709 51.6334 587.991 53.233C588.115 53.938 588.27 54.6207 588.446 55.3182C588.766 56.6138 589.043 57.4463 589.192 58.0487C589.349 58.6486 589.374 59.0229 589.328 59.3586C589.307 59.5115 589.305 59.7049 589.266 59.8075C589.167 60.1482 588.397 59.2479 587.707 57.307C586.708 54.4348 586.208 51.2908 586.345 48.0885C586.388 47.289 586.463 46.4851 586.597 45.6844C586.673 45.2859 586.717 44.8805 586.814 44.482L586.945 43.8746C587.004 43.6452 587.072 43.4388 587.148 43.2281C587.304 42.8109 587.489 42.4006 587.76 41.9859C588.031 41.5905 588.393 41.1037 589.18 40.842C589.556 40.7568 589.974 40.7487 590.327 40.9209C590.701 41.0434 590.967 41.2722 591.184 41.5128C591.614 42.0064 591.775 42.5243 591.887 43.0067C592.024 43.7347 592.041 44.4018 591.857 45.1721C591.663 45.8734 591.355 46.4702 590.982 47.0266C590.605 47.5787 590.157 48.0854 589.602 48.5143C589.05 48.9352 588.361 49.2958 587.547 49.3605C587.348 49.3897 587.138 49.3543 586.936 49.3449C586.734 49.3194 586.538 49.2554 586.342 49.2044C586.158 49.1298 585.981 49.0415 585.803 48.9545C585.605 48.8382 585.433 48.6971 585.29 48.5566C584.743 47.9853 584.462 47.3903 584.211 46.7985C583.743 45.6132 583.463 44.42 583.365 43.1628C583.364 43.1541 583.37 43.146 583.378 43.1435Z" fill="#231F20"/>
<path fill-rule="evenodd" clip-rule="evenodd" d="M608.022 44.6407C608.008 44.7495 607.864 44.7017 607.641 44.5699C607.57 44.5282 607.401 44.3547 607.396 44.3118C607.384 44.2285 607.375 44.1459 607.38 44.075C607.38 44.0321 607.662 43.5814 607.762 43.4228C607.856 43.268 607.978 43.1431 608.111 43.0312C608.375 42.7962 608.658 42.5779 608.957 42.379C609.024 42.3355 609.098 42.3044 609.178 42.2839C609.455 42.2186 609.694 42.0961 609.93 41.9531C609.97 41.9301 610.016 41.9183 610.038 41.8586C610.068 41.7505 610.778 41.4688 610.886 41.4819C611.146 41.4925 611.393 41.4794 611.645 41.5111C611.68 41.5155 611.713 41.49 611.754 41.5397C611.846 41.6541 611.913 41.623 611.987 41.623C612.089 41.6205 612.192 41.6323 612.295 41.6659C612.346 41.6821 612.4 41.7486 612.451 41.8008C612.497 41.8474 612.485 42.034 612.473 42.0551C612.436 42.1166 612.475 42.2006 612.484 42.277C612.491 42.3301 612.476 42.3801 612.438 42.4179C612.399 42.4573 612.341 42.5105 612.28 42.5646C612.103 42.7212 611.868 42.8488 611.648 42.9348C611.475 43.0032 611.3 43.0852 611.268 43.1107C611.195 43.16 611.098 43.1275 611.021 43.1706C610.986 43.1901 610.947 43.2131 610.906 43.2369C610.713 43.3507 610.518 43.5422 610.298 43.4961C610.289 43.4942 610.279 43.4917 610.27 43.4887C610.239 43.4806 610.221 43.4974 610.201 43.5099C610.03 43.6168 609.834 43.6808 609.645 43.7654C609.55 43.8108 609.468 43.8779 609.381 43.9357C609.364 43.9463 609.34 43.9444 609.32 43.9494C609.295 43.9556 609.268 43.9575 609.248 43.9724C609.046 44.1179 608.806 44.2242 608.636 44.4163C608.595 44.4561 608.303 44.5487 608.261 44.6053C608.237 44.6345 608.028 44.596 608.022 44.6407Z" fill="#231F20"/>
<path fill-rule="evenodd" clip-rule="evenodd" d="M602.032 30.7881C602.017 30.9 601.864 30.8491 601.632 30.7148C601.558 30.6719 601.382 30.4941 601.376 30.4499C601.363 30.3629 601.351 30.2765 601.354 30.2019C601.354 30.1571 601.624 29.6747 601.715 29.5C601.801 29.3315 601.918 29.1947 602.045 29.0704C602.304 28.8186 602.58 28.5879 602.855 28.3666C602.917 28.3181 602.988 28.2808 603.066 28.2584C603.335 28.1789 603.55 28.0297 603.744 27.855C603.776 27.8257 603.817 27.8077 603.821 27.7412C603.833 27.6318 604.385 27.2221 604.475 27.2016C604.707 27.1531 604.916 27.071 605.136 27.0014C605.169 26.9933 605.184 26.9585 605.245 26.992C605.387 27.0704 605.427 27.0113 605.489 26.9815C605.576 26.9392 605.665 26.9007 605.77 26.8814C605.822 26.8714 605.908 26.9063 605.985 26.9274C606.055 26.9467 606.167 27.1214 606.17 27.1487C606.176 27.2264 606.266 27.2811 606.323 27.3458C606.342 27.3676 606.368 27.3962 606.381 27.4154C606.675 27.8091 605.944 28.3626 605.587 28.6993C605.524 28.7584 605.477 28.8038 605.462 28.8217C605.43 28.8609 605.369 28.8609 605.317 28.8714C605.292 28.8789 604.809 29.3352 604.787 29.3439C604.666 29.4042 604.584 29.5199 604.405 29.4919C604.37 29.4863 604.351 29.5062 604.331 29.523C604.154 29.6641 603.943 29.7511 603.742 29.8537C603.642 29.9066 603.56 29.9861 603.468 30.0502C603.451 30.0626 603.425 30.0601 603.404 30.0663C603.377 30.0738 603.347 30.0757 603.327 30.0924C603.127 30.2665 602.863 30.3623 602.686 30.5643C602.643 30.6054 602.329 30.6955 602.285 30.7539C602.259 30.7838 602.038 30.7421 602.032 30.7881Z" fill="#231F20"/>
<path fill-rule="evenodd" clip-rule="evenodd" d="M593.981 83.9173C593.974 83.9137 593.966 83.9155 593.962 83.9215C593.635 84.3874 593.246 84.8568 592.73 85.2227C592.534 85.3477 592.351 85.4975 592.125 85.5758C591.736 85.7369 591.279 85.7779 590.883 85.7151C590.482 85.6542 590.118 85.5174 589.792 85.3408C589.502 85.1854 589.223 85.0256 588.957 84.8534C588.788 84.7403 588.615 84.6315 588.459 84.5028C588.309 84.366 588.183 84.2031 588.078 84.0247C588.014 83.9116 588.132 83.8196 588.322 83.7661C588.75 83.6525 589.154 83.9006 589.53 84.1333C589.948 84.3917 590.367 84.6088 590.783 84.7695C591.165 84.9069 591.524 84.8018 591.873 84.6085C592.254 84.4021 592.593 84.0595 592.885 83.6536C593.068 83.4067 593.232 83.132 593.389 82.8528C593.621 82.4238 593.855 81.9812 594.058 81.5236C594.212 81.1674 594.317 80.7857 594.485 80.422C594.523 80.3418 594.552 80.2579 594.596 80.1801C594.777 79.9004 594.924 79.8668 595.185 79.9744C595.242 79.9967 595.297 80.0123 595.342 80.0347C595.478 80.0993 595.606 80.3499 595.554 80.5668C595.407 81.2178 595.136 81.8258 594.81 82.4692C594.575 82.943 594.309 83.4265 594 83.9126C593.995 83.919 593.987 83.9211 593.981 83.9173Z" fill="#231F20"/>
<path fill-rule="evenodd" clip-rule="evenodd" d="M585.58 23.7401C585.649 23.8377 585.514 23.9266 585.271 24.0081C585.193 24.0342 584.956 24.0379 584.919 24.0112C584.85 23.9589 584.78 23.9067 584.728 23.8533C584.7 23.8191 584.51 23.2944 584.418 23.1221C584.336 22.9537 584.292 22.7839 584.256 22.6136C584.184 22.2679 584.078 21.9291 584.017 21.5859C584.002 21.5101 584.004 21.4318 584.017 21.3516C584.068 21.0749 584.02 20.8107 583.932 20.5545C583.917 20.5116 583.915 20.465 583.853 20.4333C583.829 20.4218 583.802 20.3769 583.774 20.3131C583.571 19.844 583.67 19.3165 583.734 18.8094C583.739 18.7734 583.712 18.7423 583.766 18.6975C583.89 18.5925 583.846 18.5272 583.854 18.4482C583.856 18.4206 583.858 18.3929 583.86 18.3651C583.873 18.1981 583.961 18.0553 584.061 17.921C584.104 17.8626 584.231 17.8564 584.254 17.8669C584.312 17.9005 584.371 17.8464 584.425 17.8284C584.443 17.8222 584.467 17.8141 584.485 17.8122C584.514 17.8068 584.664 17.9033 584.816 18.0157C585.068 18.2022 585.231 18.4868 585.356 18.774C585.453 18.9947 585.559 19.226 585.586 19.272C585.644 19.3661 585.607 19.4892 585.642 19.5939C585.713 19.8057 585.831 20.1564 585.831 20.1784C585.838 20.3289 585.913 20.47 585.805 20.6397C585.785 20.6733 585.796 20.7019 585.803 20.7317C585.858 20.9841 585.839 21.249 585.835 21.5088C585.832 21.6419 585.862 21.7712 585.863 21.9036C585.863 21.9272 585.845 21.9527 585.838 21.9776C585.828 22.0087 585.813 22.0404 585.815 22.0702C585.836 22.3805 585.777 22.6963 585.823 23.0022C585.833 23.073 585.701 23.4193 585.718 23.4989C585.726 23.5449 585.55 23.7016 585.58 23.7401Z" fill="#231F20"/>
<path fill-rule="evenodd" clip-rule="evenodd" d="M565.45 24.8311C565.318 24.8137 565.386 24.6365 565.58 24.3773C565.641 24.2946 565.878 24.0981 565.929 24.0894C566.028 24.0714 566.124 24.0546 566.203 24.0527C566.249 24.0565 566.701 24.2964 566.873 24.3474C567.033 24.4059 567.164 24.4941 567.289 24.5905L568.088 25.1482C568.148 25.1898 568.198 25.2451 568.242 25.311C568.392 25.5411 568.605 25.6872 568.841 25.8003C568.88 25.819 568.913 25.8507 568.977 25.8277C569.077 25.7916 569.688 26.1553 569.751 26.2386C569.899 26.4438 570.07 26.6166 570.232 26.805C570.256 26.8317 570.298 26.833 570.293 26.9026C570.281 27.0636 570.356 27.0798 570.413 27.1258C570.493 27.1904 570.569 27.2626 570.632 27.3564C570.663 27.4024 570.663 27.4988 570.671 27.5809C570.679 27.6555 570.546 27.8295 570.52 27.842C570.446 27.8774 570.425 27.9843 570.382 28.0645C570.367 28.0913 570.348 28.1261 570.334 28.1466C570.301 28.1901 569.616 28.2231 569.562 28.1901C569.556 28.187 569.356 28.1062 569.144 28.0185C568.931 27.9334 568.707 27.8451 568.658 27.832C568.606 27.819 568.579 27.7636 568.546 27.7195C568.531 27.7033 567.87 27.4484 567.847 27.4279C567.731 27.339 567.576 27.3055 567.523 27.1189C567.513 27.0823 567.484 27.0717 567.458 27.0586C567.233 26.938 567.05 26.754 566.862 26.5787C566.764 26.4904 566.648 26.4245 566.543 26.3449C566.525 26.3306 566.518 26.3008 566.504 26.2797C566.487 26.2535 566.476 26.2181 566.452 26.2007C566.203 26.0098 566.015 25.75 565.753 25.5678C565.689 25.5274 565.556 25.1699 565.487 25.1233C565.445 25.0966 565.502 24.8379 565.45 24.8311Z" fill="#231F20"/>
</g>
<path d="M10.64 79.3125V23.3125H16.96V79.3125H10.64ZM48.1694 80.4325C44.2227 80.4325 40.756 79.6058 37.7694 77.9525C34.7827 76.2458 32.4627 73.8725 30.8094 70.8325C29.156 67.7925 28.3294 64.2725 28.3294 60.2725V59.3125C28.3294 55.2592 29.156 51.7125 30.8094 48.6725C32.4627 45.6325 34.756 43.2858 37.6894 41.6325C40.6227 39.9258 43.9827 39.0725 47.7694 39.0725C51.4494 39.0725 54.7027 39.8725 57.5294 41.4725C60.356 43.0192 62.5694 45.2592 64.1694 48.1925C65.7694 51.1258 66.5694 54.5658 66.5694 58.5125V61.3925H34.6494C34.8094 65.6058 36.1694 68.9125 38.7294 71.3125C41.2894 73.6592 44.4894 74.8325 48.3294 74.8325C51.6894 74.8325 54.276 74.0592 56.0894 72.5125C57.9027 70.9658 59.2894 69.1258 60.2494 66.9925L65.6894 69.6325C64.8894 71.2858 63.7694 72.9392 62.3294 74.5925C60.9427 76.2458 59.1027 77.6325 56.8094 78.7525C54.5694 79.8725 51.6894 80.4325 48.1694 80.4325ZM34.7294 56.1925H60.1694C59.956 52.5658 58.7027 49.7392 56.4094 47.7125C54.1694 45.6858 51.2894 44.6725 47.7694 44.6725C44.196 44.6725 41.2627 45.6858 38.9694 47.7125C36.676 49.7392 35.2627 52.5658 34.7294 56.1925ZM90.3525 79.3125C88.1125 79.3125 86.3792 78.6992 85.1525 77.4725C83.9792 76.2458 83.3925 74.5658 83.3925 72.4325V45.7125H71.6325V40.1925H83.3925V26.2725H89.7125V40.1925H102.513V45.7125H89.7125V71.4725C89.7125 73.0725 90.4858 73.8725 92.0325 73.8725H100.753V79.3125H90.3525ZM138.016 95.3125V89.7125H160.416C161.963 89.7125 162.736 88.9125 162.736 87.3125V73.0725H161.616C161.083 74.1925 160.256 75.3125 159.136 76.4325C158.07 77.4992 156.656 78.3792 154.896 79.0725C153.136 79.7125 150.923 80.0325 148.256 80.0325C145.43 80.0325 142.816 79.4192 140.416 78.1925C138.07 76.9658 136.203 75.1525 134.816 72.7525C133.483 70.3525 132.816 67.4192 132.816 63.9525V40.1925H139.136V63.4725C139.136 67.3125 140.096 70.1125 142.016 71.8725C143.99 73.6325 146.63 74.5125 149.936 74.5125C153.67 74.5125 156.736 73.2858 159.136 70.8325C161.536 68.3792 162.736 64.7258 162.736 59.8725V40.1925H169.056V88.4325C169.056 90.5658 168.443 92.2458 167.216 93.4725C166.043 94.6992 164.31 95.3125 162.016 95.3125H138.016ZM200.361 80.4325C196.414 80.4325 192.921 79.6058 189.881 77.9525C186.894 76.2992 184.547 73.9792 182.841 70.9925C181.187 67.9525 180.361 64.3792 180.361 60.2725V59.2325C180.361 55.1792 181.187 51.6325 182.841 48.5925C184.547 45.5525 186.894 43.2058 189.881 41.5525C192.921 39.8992 196.414 39.0725 200.361 39.0725C204.307 39.0725 207.774 39.8992 210.761 41.5525C213.801 43.2058 216.147 45.5525 217.801 48.5925C219.507 51.6325 220.361 55.1792 220.361 59.2325V60.2725C220.361 64.3792 219.507 67.9525 217.801 70.9925C216.147 73.9792 213.801 76.2992 210.761 77.9525C207.774 79.6058 204.307 80.4325 200.361 80.4325ZM200.361 74.7525C204.521 74.7525 207.827 73.4458 210.281 70.8325C212.787 68.1658 214.041 64.5925 214.041 60.1125V59.3925C214.041 54.9125 212.787 51.3658 210.281 48.7525C207.827 46.0858 204.521 44.7525 200.361 44.7525C196.254 44.7525 192.947 46.0858 190.441 48.7525C187.934 51.3658 186.681 54.9125 186.681 59.3925V60.1125C186.681 64.5925 187.934 68.1658 190.441 70.8325C192.947 73.4458 196.254 74.7525 200.361 74.7525ZM246.694 80.0325C243.867 80.0325 241.254 79.4192 238.854 78.1925C236.507 76.9658 234.64 75.1525 233.254 72.7525C231.92 70.2992 231.254 67.3392 231.254 63.8725V40.1925H237.574V63.3925C237.574 67.2858 238.534 70.1125 240.454 71.8725C242.427 73.6325 245.067 74.5125 248.374 74.5125C252.107 74.5125 255.174 73.2858 257.574 70.8325C259.974 68.3792 261.174 64.7258 261.174 59.8725V40.1925H267.494V79.3125H261.334V72.6725H260.214C259.36 74.5392 257.894 76.2458 255.814 77.7925C253.734 79.2858 250.694 80.0325 246.694 80.0325ZM280.718 79.3125V40.1925H286.878V44.9925H287.998C288.691 43.2858 289.758 42.0325 291.198 41.2325C292.638 40.4325 294.531 40.0325 296.878 40.0325H301.518V45.7925H296.478C293.651 45.7925 291.358 46.5925 289.598 48.1925C287.891 49.7392 287.038 52.1658 287.038 55.4725V79.3125H280.718ZM331.421 79.3125V40.1925H337.741V79.3125H331.421ZM334.621 34.1125C333.235 34.1125 332.061 33.6592 331.101 32.7525C330.195 31.8458 329.741 30.6992 329.741 29.3125C329.741 27.8725 330.195 26.6992 331.101 25.7925C332.061 24.8858 333.235 24.4325 334.621 24.4325C336.008 24.4325 337.155 24.8858 338.061 25.7925C338.968 26.6992 339.421 27.8725 339.421 29.3125C339.421 30.6992 338.968 31.8458 338.061 32.7525C337.155 33.6592 336.008 34.1125 334.621 34.1125ZM367.591 80.4325C364.231 80.4325 361.137 79.6325 358.311 78.0325C355.484 76.4325 353.244 74.1125 351.591 71.0725C349.937 68.0325 349.111 64.4325 349.111 60.2725V59.2325C349.111 55.0725 349.937 51.4992 351.591 48.5125C353.244 45.4725 355.457 43.1525 358.231 41.5525C361.057 39.8992 364.177 39.0725 367.591 39.0725C370.311 39.0725 372.604 39.4458 374.471 40.1925C376.391 40.8858 377.937 41.7925 379.111 42.9125C380.284 43.9792 381.191 45.1258 381.831 46.3525H382.951V23.3125H389.271V79.3125H383.111V72.8325H381.991C380.924 74.8058 379.271 76.5658 377.031 78.1125C374.791 79.6592 371.644 80.4325 367.591 80.4325ZM369.271 74.8325C373.324 74.8325 376.604 73.5525 379.111 70.9925C381.671 68.3792 382.951 64.7525 382.951 60.1125V59.3925C382.951 54.7525 381.671 51.1525 379.111 48.5925C376.604 45.9792 373.324 44.6725 369.271 44.6725C365.271 44.6725 361.964 45.9792 359.351 48.5925C356.791 51.1525 355.511 54.7525 355.511 59.3925V60.1125C355.511 64.7525 356.791 68.3792 359.351 70.9925C361.964 73.5525 365.271 74.8325 369.271 74.8325ZM420.435 80.4325C416.488 80.4325 413.022 79.6058 410.035 77.9525C407.048 76.2458 404.728 73.8725 403.075 70.8325C401.422 67.7925 400.595 64.2725 400.595 60.2725V59.3125C400.595 55.2592 401.422 51.7125 403.075 48.6725C404.728 45.6325 407.022 43.2858 409.955 41.6325C412.888 39.9258 416.248 39.0725 420.035 39.0725C423.715 39.0725 426.968 39.8725 429.795 41.4725C432.622 43.0192 434.835 45.2592 436.435 48.1925C438.035 51.1258 438.835 54.5658 438.835 58.5125V61.3925H406.915C407.075 65.6058 408.435 68.9125 410.995 71.3125C413.555 73.6592 416.755 74.8325 420.595 74.8325C423.955 74.8325 426.542 74.0592 428.355 72.5125C430.168 70.9658 431.555 69.1258 432.515 66.9925L437.955 69.6325C437.155 71.2858 436.035 72.9392 434.595 74.5925C433.208 76.2458 431.368 77.6325 429.075 78.7525C426.835 79.8725 423.955 80.4325 420.435 80.4325ZM406.995 56.1925H432.435C432.222 52.5658 430.968 49.7392 428.675 47.7125C426.435 45.6858 423.555 44.6725 420.035 44.6725C416.462 44.6725 413.528 45.6858 411.235 47.7125C408.942 49.7392 407.528 52.5658 406.995 56.1925ZM461.859 80.4325C459.139 80.4325 456.659 79.9525 454.419 78.9925C452.179 78.0325 450.419 76.6458 449.139 74.8325C447.859 73.0192 447.219 70.8058 447.219 68.1925C447.219 65.5258 447.859 63.3392 449.139 61.6325C450.419 59.8725 452.179 58.5658 454.419 57.7125C456.659 56.8058 459.165 56.3525 461.939 56.3525H475.139V53.4725C475.139 50.6992 474.312 48.5125 472.659 46.9125C471.059 45.3125 468.659 44.5125 465.459 44.5125C462.312 44.5125 459.859 45.2858 458.099 46.8325C456.339 48.3258 455.139 50.3525 454.499 52.9125L448.579 50.9925C449.219 48.8058 450.232 46.8325 451.619 45.0725C453.005 43.2592 454.845 41.8192 457.139 40.7525C459.485 39.6325 462.285 39.0725 465.539 39.0725C470.552 39.0725 474.445 40.3792 477.219 42.9925C479.992 45.5525 481.379 49.1792 481.379 53.8725V71.5525C481.379 73.1525 482.125 73.9525 483.619 73.9525H487.219V79.3125H481.699C479.939 79.3125 478.525 78.8325 477.459 77.8725C476.392 76.8592 475.859 75.5258 475.859 73.8725V73.4725H474.899C474.312 74.4858 473.512 75.5525 472.499 76.6725C471.539 77.7392 470.205 78.6192 468.499 79.3125C466.792 80.0592 464.579 80.4325 461.859 80.4325ZM462.579 74.9925C466.312 74.9925 469.325 73.8992 471.619 71.7125C473.965 69.4725 475.139 66.3525 475.139 62.3525V61.4725H462.179C459.672 61.4725 457.592 62.0325 455.939 63.1525C454.339 64.2192 453.539 65.8458 453.539 68.0325C453.539 70.2192 454.365 71.9258 456.019 73.1525C457.725 74.3792 459.912 74.9925 462.579 74.9925ZM511.322 80.4325C506.469 80.4325 502.362 79.3125 499.002 77.0725C495.695 74.8325 493.695 71.2858 493.002 66.4325L499.002 65.0725C499.429 67.6325 500.229 69.6592 501.402 71.1525C502.575 72.5925 504.015 73.6325 505.722 74.2725C507.482 74.8592 509.349 75.1525 511.322 75.1525C514.255 75.1525 516.575 74.5658 518.282 73.3925C519.989 72.2192 520.842 70.6458 520.842 68.6725C520.842 66.6458 520.015 65.2325 518.362 64.4325C516.762 63.5792 514.549 62.8858 511.722 62.3525L508.442 61.7925C505.935 61.3658 503.642 60.6992 501.562 59.7925C499.482 58.8858 497.829 57.6592 496.602 56.1125C495.375 54.5658 494.762 52.6192 494.762 50.2725C494.762 46.7525 496.122 44.0058 498.842 42.0325C501.562 40.0592 505.162 39.0725 509.642 39.0725C514.069 39.0725 517.642 40.0858 520.362 42.1125C523.135 44.0858 524.922 46.8858 525.722 50.5125L519.802 52.0325C519.322 49.2058 518.175 47.2325 516.362 46.1125C514.549 44.9392 512.309 44.3525 509.642 44.3525C506.975 44.3525 504.869 44.8592 503.322 45.8725C501.775 46.8325 501.002 48.2725 501.002 50.1925C501.002 52.0592 501.722 53.4458 503.162 54.3525C504.655 55.2058 506.629 55.8458 509.082 56.2725L512.362 56.8325C515.135 57.3125 517.615 57.9792 519.802 58.8325C522.042 59.6325 523.802 60.8058 525.082 62.3525C526.415 63.8992 527.082 65.9258 527.082 68.4325C527.082 72.2725 525.642 75.2325 522.762 77.3125C519.935 79.3925 516.122 80.4325 511.322 80.4325ZM26.4 182.433C21.5467 182.433 17.44 181.312 14.08 179.072C10.7733 176.832 8.77333 173.286 8.08 168.432L14.08 167.072C14.5067 169.632 15.3067 171.659 16.48 173.152C17.6533 174.592 19.0933 175.632 20.8 176.272C22.56 176.859 24.4267 177.152 26.4 177.152C29.3333 177.152 31.6533 176.566 33.36 175.392C35.0667 174.219 35.92 172.646 35.92 170.672C35.92 168.646 35.0933 167.232 33.44 166.432C31.84 165.579 29.6267 164.886 26.8 164.352L23.52 163.792C21.0133 163.366 18.72 162.699 16.64 161.792C14.56 160.886 12.9067 159.659 11.68 158.112C10.4533 156.566 9.84 154.619 9.84 152.272C9.84 148.752 11.2 146.006 13.92 144.032C16.64 142.059 20.24 141.072 24.72 141.072C29.1467 141.072 32.72 142.086 35.44 144.112C38.2133 146.086 40 148.886 40.8 152.512L34.88 154.032C34.4 151.206 33.2533 149.232 31.44 148.112C29.6267 146.939 27.3867 146.352 24.72 146.352C22.0533 146.352 19.9467 146.859 18.4 147.872C16.8533 148.832 16.08 150.272 16.08 152.192C16.08 154.059 16.8 155.446 18.24 156.352C19.7333 157.206 21.7067 157.846 24.16 158.272L27.44 158.832C30.2133 159.312 32.6933 159.979 34.88 160.832C37.12 161.632 38.88 162.806 40.16 164.352C41.4933 165.899 42.16 167.926 42.16 170.432C42.16 174.272 40.72 177.232 37.84 179.312C35.0133 181.393 31.2 182.433 26.4 182.433ZM52.8275 181.312V125.312H59.1475V148.432H60.2675C60.8008 147.259 61.6008 146.166 62.6675 145.152C63.7875 144.086 65.2008 143.206 66.9075 142.512C68.6675 141.819 70.8808 141.472 73.5475 141.472C76.4808 141.472 79.0942 142.112 81.3875 143.392C83.7342 144.619 85.6008 146.432 86.9875 148.832C88.3742 151.179 89.0675 154.112 89.0675 157.632V181.312H82.7475V158.112C82.7475 154.219 81.7608 151.392 79.7875 149.632C77.8675 147.872 75.2542 146.992 71.9475 146.992C68.1608 146.992 65.0675 148.219 62.6675 150.672C60.3208 153.126 59.1475 156.779 59.1475 161.632V181.312H52.8275ZM101.89 181.312V142.192H108.21V181.312H101.89ZM105.09 136.113C103.703 136.113 102.53 135.659 101.57 134.752C100.663 133.846 100.21 132.699 100.21 131.312C100.21 129.872 100.663 128.699 101.57 127.792C102.53 126.886 103.703 126.432 105.09 126.432C106.477 126.432 107.623 126.886 108.53 127.792C109.437 128.699 109.89 129.872 109.89 131.312C109.89 132.699 109.437 133.846 108.53 134.752C107.623 135.659 106.477 136.113 105.09 136.113ZM121.499 181.312V142.192H127.659V148.832H128.779C129.633 146.966 131.073 145.286 133.099 143.792C135.179 142.246 138.219 141.472 142.219 141.472C145.153 141.472 147.766 142.086 150.059 143.312C152.406 144.539 154.273 146.352 155.659 148.752C157.046 151.152 157.739 154.112 157.739 157.632V181.312H151.419V158.112C151.419 154.219 150.433 151.392 148.459 149.632C146.539 147.872 143.926 146.992 140.619 146.992C136.833 146.992 133.739 148.219 131.339 150.672C128.993 153.126 127.819 156.779 127.819 161.632V181.312H121.499ZM188.482 182.433C184.535 182.433 181.069 181.606 178.082 179.952C175.095 178.246 172.775 175.872 171.122 172.832C169.469 169.792 168.642 166.272 168.642 162.272V161.312C168.642 157.259 169.469 153.712 171.122 150.672C172.775 147.632 175.069 145.286 178.002 143.632C180.935 141.926 184.295 141.072 188.082 141.072C191.762 141.072 195.015 141.872 197.842 143.472C200.669 145.019 202.882 147.259 204.482 150.192C206.082 153.126 206.882 156.566 206.882 160.512V163.392H174.962C175.122 167.606 176.482 170.912 179.042 173.312C181.602 175.659 184.802 176.832 188.642 176.832C192.002 176.832 194.589 176.059 196.402 174.512C198.215 172.966 199.602 171.126 200.562 168.992L206.002 171.632C205.202 173.286 204.082 174.939 202.642 176.592C201.255 178.246 199.415 179.632 197.122 180.752C194.882 181.873 192.002 182.433 188.482 182.433ZM175.042 158.192H200.482C200.269 154.566 199.015 151.739 196.722 149.712C194.482 147.686 191.602 146.672 188.082 146.672C184.509 146.672 181.575 147.686 179.282 149.712C176.989 151.739 175.575 154.566 175.042 158.192Z" fill="black"/>
<path d="M10.64 79.3125H9.14V80.8125H10.64V79.3125ZM10.64 23.3125V21.8125H9.14V23.3125H10.64ZM16.96 23.3125H18.46V21.8125H16.96V23.3125ZM16.96 79.3125V80.8125H18.46V79.3125H16.96ZM12.14 79.3125V23.3125H9.14V79.3125H12.14ZM10.64 24.8125H16.96V21.8125H10.64V24.8125ZM15.46 23.3125V79.3125H18.46V23.3125H15.46ZM16.96 77.8125H10.64V80.8125H16.96V77.8125ZM37.7694 77.9525L37.0252 79.2549L37.034 79.2599L37.0429 79.2648L37.7694 77.9525ZM30.8094 70.8325L32.1271 70.1158L30.8094 70.8325ZM30.8094 48.6725L29.4916 47.9558L30.8094 48.6725ZM37.6894 41.6325L38.4259 42.9392L38.4348 42.9342L38.4437 42.929L37.6894 41.6325ZM57.5294 41.4725L56.7905 42.7779L56.7999 42.7832L56.8094 42.7884L57.5294 41.4725ZM64.1694 48.1925L65.4862 47.4742L64.1694 48.1925ZM66.5694 61.3925V62.8925H68.0694V61.3925H66.5694ZM34.6494 61.3925V59.8925H33.0913L33.1505 61.4494L34.6494 61.3925ZM38.7294 71.3125L37.7035 72.4068L37.7096 72.4126L37.7158 72.4182L38.7294 71.3125ZM56.0894 72.5125L57.0628 73.6537L56.0894 72.5125ZM60.2494 66.9925L60.9043 65.643L59.5151 64.9689L58.8815 66.377L60.2494 66.9925ZM65.6894 69.6325L67.0396 70.2858L67.6922 68.9372L66.3443 68.283L65.6894 69.6325ZM62.3294 74.5925L61.1983 73.6073L61.1891 73.6179L61.1801 73.6286L62.3294 74.5925ZM56.8094 78.7525L56.1511 77.4046L56.1386 77.4109L56.8094 78.7525ZM34.7294 56.1925L33.2453 55.9743L32.9927 57.6925H34.7294V56.1925ZM60.1694 56.1925V57.6925H61.7602L61.6668 56.1044L60.1694 56.1925ZM56.4094 47.7125L55.403 48.8248L55.4095 48.8307L55.4161 48.8365L56.4094 47.7125ZM38.9694 47.7125L39.9627 48.8365L38.9694 47.7125ZM48.1694 78.9325C44.4368 78.9325 41.2276 78.1524 38.4958 76.6402L37.0429 79.2648C40.2845 81.0593 44.0086 81.9325 48.1694 81.9325V78.9325ZM38.5136 76.6501C35.7703 75.0825 33.6482 72.9127 32.1271 70.1158L29.4916 71.5492C31.2772 74.8323 33.7951 77.4091 37.0252 79.2549L38.5136 76.6501ZM32.1271 70.1158C30.6109 67.3279 29.8294 64.0615 29.8294 60.2725H26.8294C26.8294 64.4835 27.7012 68.2571 29.4916 71.5492L32.1271 70.1158ZM29.8294 60.2725V59.3125H26.8294V60.2725H29.8294ZM29.8294 59.3125C29.8294 55.4665 30.6124 52.1743 32.1271 49.3892L29.4916 47.9558C27.6997 51.2507 26.8294 55.0518 26.8294 59.3125H29.8294ZM32.1271 49.3892C33.6498 46.5893 35.7449 44.4503 38.4259 42.9392L36.9529 40.3258C33.7672 42.1213 31.2756 44.6757 29.4916 47.9558L32.1271 49.3892ZM38.4437 42.929C41.1223 41.3706 44.2163 40.5725 47.7694 40.5725V37.5725C43.7491 37.5725 40.1231 38.4811 36.935 40.336L38.4437 42.929ZM47.7694 40.5725C51.2254 40.5725 54.2178 41.3217 56.7905 42.7779L58.2683 40.1671C55.1876 38.4233 51.6733 37.5725 47.7694 37.5725V40.5725ZM56.8094 42.7884C59.3743 44.1918 61.3848 46.2199 62.8525 48.9108L65.4862 47.4742C63.754 44.2985 61.3378 41.8465 58.2494 40.1566L56.8094 42.7884ZM62.8525 48.9108C64.3123 51.587 65.0694 54.7713 65.0694 58.5125H68.0694C68.0694 54.3604 67.2265 50.6647 65.4862 47.4742L62.8525 48.9108ZM65.0694 58.5125V61.3925H68.0694V58.5125H65.0694ZM66.5694 59.8925H34.6494V62.8925H66.5694V59.8925ZM33.1505 61.4494C33.3222 65.9724 34.7988 69.6837 37.7035 72.4068L39.7553 70.2182C37.5399 68.1413 36.2965 65.2393 36.1483 61.3356L33.1505 61.4494ZM37.7158 72.4182C40.5826 75.0461 44.157 76.3325 48.3294 76.3325V73.3325C44.8217 73.3325 41.9962 72.2722 39.743 70.2068L37.7158 72.4182ZM48.3294 76.3325C51.9015 76.3325 54.8852 75.5111 57.0628 73.6537L55.116 71.3712C53.6669 72.6072 51.4772 73.3325 48.3294 73.3325V76.3325ZM57.0628 73.6537C59.0416 71.966 60.5645 69.9475 61.6173 67.608L58.8815 66.377C58.0143 68.3042 56.7638 69.9657 55.116 71.3712L57.0628 73.6537ZM59.5945 68.342L65.0345 70.982L66.3443 68.283L60.9043 65.643L59.5945 68.342ZM64.3391 68.9792C63.607 70.4921 62.5672 72.0356 61.1983 73.6073L63.4605 75.5777C64.9716 73.8427 66.1717 72.0795 67.0396 70.2858L64.3391 68.9792ZM61.1801 73.6286C59.9508 75.0943 58.2897 76.3602 56.1511 77.4046L57.4676 80.1003C59.9157 78.9048 61.9346 77.3974 63.4787 75.5564L61.1801 73.6286ZM56.1386 77.4109C54.1738 78.3932 51.5451 78.9325 48.1694 78.9325V81.9325C51.8336 81.9325 54.965 81.3517 57.4802 80.0941L56.1386 77.4109ZM34.7294 57.6925H60.1694V54.6925H34.7294V57.6925ZM61.6668 56.1044C61.4347 52.1593 60.0505 48.9284 57.4027 46.5885L55.4161 48.8365C57.355 50.5499 58.4774 52.9724 58.672 56.2806L61.6668 56.1044ZM57.4157 46.6002C54.855 44.2833 51.5959 43.1725 47.7694 43.1725V46.1725C50.9829 46.1725 53.4837 47.0883 55.403 48.8248L57.4157 46.6002ZM47.7694 43.1725C43.8951 43.1725 40.5886 44.2797 37.9761 46.5885L39.9627 48.8365C41.9368 47.0919 44.4969 46.1725 47.7694 46.1725V43.1725ZM37.9761 46.5885C35.3673 48.894 33.8196 52.0696 33.2453 55.9743L36.2134 56.4107C36.7059 53.0621 37.9848 50.5844 39.9627 48.8365L37.9761 46.5885ZM85.1525 77.4725L84.0685 78.5093L84.0801 78.5214L84.0918 78.5332L85.1525 77.4725ZM83.3925 45.7125H84.8925V44.2125H83.3925V45.7125ZM71.6325 45.7125H70.1325V47.2125H71.6325V45.7125ZM71.6325 40.1925V38.6925H70.1325V40.1925H71.6325ZM83.3925 40.1925V41.6925H84.8925V40.1925H83.3925ZM83.3925 26.2725V24.7725H81.8925V26.2725H83.3925ZM89.7125 26.2725H91.2125V24.7725H89.7125V26.2725ZM89.7125 40.1925H88.2125V41.6925H89.7125V40.1925ZM102.513 40.1925H104.013V38.6925H102.513V40.1925ZM102.513 45.7125V47.2125H104.013V45.7125H102.513ZM89.7125 45.7125V44.2125H88.2125V45.7125H89.7125ZM100.753 73.8725H102.253V72.3725H100.753V73.8725ZM100.753 79.3125V80.8125H102.253V79.3125H100.753ZM90.3525 77.8125C88.3893 77.8125 87.0832 77.2818 86.2132 76.4118L84.0918 78.5332C85.6752 80.1165 87.8357 80.8125 90.3525 80.8125V77.8125ZM86.2365 76.4357C85.3942 75.5551 84.8925 74.2834 84.8925 72.4325H81.8925C81.8925 74.8483 82.5641 76.9365 84.0685 78.5093L86.2365 76.4357ZM84.8925 72.4325V45.7125H81.8925V72.4325H84.8925ZM83.3925 44.2125H71.6325V47.2125H83.3925V44.2125ZM73.1325 45.7125V40.1925H70.1325V45.7125H73.1325ZM71.6325 41.6925H83.3925V38.6925H71.6325V41.6925ZM84.8925 40.1925V26.2725H81.8925V40.1925H84.8925ZM83.3925 27.7725H89.7125V24.7725H83.3925V27.7725ZM88.2125 26.2725V40.1925H91.2125V26.2725H88.2125ZM89.7125 41.6925H102.513V38.6925H89.7125V41.6925ZM101.013 40.1925V45.7125H104.013V40.1925H101.013ZM102.513 44.2125H89.7125V47.2125H102.513V44.2125ZM88.2125 45.7125V71.4725H91.2125V45.7125H88.2125ZM88.2125 71.4725C88.2125 72.4912 88.4581 73.533 89.214 74.315C89.9791 75.1065 91.0148 75.3725 92.0325 75.3725V72.3725C91.5036 72.3725 91.3792 72.2385 91.371 72.23C91.3536 72.212 91.2125 72.0538 91.2125 71.4725H88.2125ZM92.0325 75.3725H100.753V72.3725H92.0325V75.3725ZM99.2525 73.8725V79.3125H102.253V73.8725H99.2525ZM100.753 77.8125H90.3525V80.8125H100.753V77.8125ZM138.016 95.3125H136.516V96.8125H138.016V95.3125ZM138.016 89.7125V88.2125H136.516V89.7125H138.016ZM162.736 73.0725H164.236V71.5725H162.736V73.0725ZM161.616 73.0725V71.5725H160.669L160.262 72.4276L161.616 73.0725ZM159.136 76.4325L160.197 77.4932L159.136 76.4325ZM154.896 79.0725L155.409 80.4822L155.428 80.4754L155.446 80.4681L154.896 79.0725ZM140.416 78.1925L139.721 79.5219L139.734 79.5282L140.416 78.1925ZM134.816 72.7525L133.505 73.481L133.511 73.492L133.517 73.5029L134.816 72.7525ZM132.816 40.1925V38.6925H131.316V40.1925H132.816ZM139.136 40.1925H140.636V38.6925H139.136V40.1925ZM142.016 71.8725L141.003 72.9782L141.01 72.9851L141.018 72.9919L142.016 71.8725ZM159.136 70.8325L158.064 69.7836L159.136 70.8325ZM162.736 40.1925V38.6925H161.236V40.1925H162.736ZM169.056 40.1925H170.556V38.6925H169.056V40.1925ZM167.216 93.4725L166.156 92.4118L166.144 92.4236L166.132 92.4357L167.216 93.4725ZM139.516 95.3125V89.7125H136.516V95.3125H139.516ZM138.016 91.2125H160.416V88.2125H138.016V91.2125ZM160.416 91.2125C161.434 91.2125 162.47 90.9465 163.235 90.155C163.991 89.373 164.236 88.3312 164.236 87.3125H161.236C161.236 87.8938 161.095 88.052 161.078 88.07C161.07 88.0785 160.945 88.2125 160.416 88.2125V91.2125ZM164.236 87.3125V73.0725H161.236V87.3125H164.236ZM162.736 71.5725H161.616V74.5725H162.736V71.5725ZM160.262 72.4276C159.819 73.3573 159.107 74.3408 158.076 75.3718L160.197 77.4932C161.406 76.2842 162.347 75.0277 162.971 73.7174L160.262 72.4276ZM158.076 75.3718C157.186 76.2611 155.962 77.0405 154.346 77.6769L155.446 80.4681C157.35 79.7179 158.953 78.7373 160.197 77.4932L158.076 75.3718ZM154.384 77.6628C152.842 78.2236 150.816 78.5325 148.256 78.5325V81.5325C151.03 81.5325 153.431 81.2014 155.409 80.4822L154.384 77.6628ZM148.256 78.5325C145.655 78.5325 143.277 77.9702 141.099 76.8568L139.734 79.5282C142.355 80.8681 145.204 81.5325 148.256 81.5325V78.5325ZM141.111 76.8632C139.029 75.7746 137.366 74.1678 136.115 72.0021L133.517 73.5029C135.039 76.1372 137.11 78.157 139.721 79.5218L141.111 76.8632ZM136.127 72.024C134.946 69.898 134.316 67.23 134.316 63.9525H131.316C131.316 67.6084 132.019 70.807 133.505 73.481L136.127 72.024ZM134.316 63.9525V40.1925H131.316V63.9525H134.316ZM132.816 41.6925H139.136V38.6925H132.816V41.6925ZM137.636 40.1925V63.4725H140.636V40.1925H137.636ZM137.636 63.4725C137.636 67.5318 138.65 70.8219 141.003 72.9782L143.03 70.7668C141.542 69.4031 140.636 67.0932 140.636 63.4725H137.636ZM141.018 72.9919C143.33 75.0541 146.357 76.0125 149.936 76.0125V73.0125C146.902 73.0125 144.649 72.2109 143.015 70.7531L141.018 72.9919ZM149.936 76.0125C154.034 76.0125 157.5 74.6501 160.208 71.8814L158.064 69.7836C155.972 71.9216 153.305 73.0125 149.936 73.0125V76.0125ZM160.208 71.8814C162.979 69.0493 164.236 64.9543 164.236 59.8725H161.236C161.236 64.4974 160.093 67.709 158.064 69.7836L160.208 71.8814ZM164.236 59.8725V40.1925H161.236V59.8725H164.236ZM162.736 41.6925H169.056V38.6925H162.736V41.6925ZM167.556 40.1925V88.4325H170.556V40.1925H167.556ZM167.556 88.4325C167.556 90.2651 167.039 91.5284 166.156 92.4118L168.277 94.5332C169.847 92.9633 170.556 90.8666 170.556 88.4325H167.556ZM166.132 92.4357C165.331 93.2739 164.049 93.8125 162.016 93.8125V96.8125C164.57 96.8125 166.755 96.1244 168.3 94.5093L166.132 92.4357ZM162.016 93.8125H138.016V96.8125H162.016V93.8125ZM189.881 77.9525L189.154 79.2649L189.164 79.2702L189.881 77.9525ZM182.841 70.9925L181.523 71.7092L181.53 71.723L181.538 71.7367L182.841 70.9925ZM182.841 48.5925L181.533 47.8582L181.528 47.867L181.523 47.8758L182.841 48.5925ZM189.881 41.5525L189.164 40.2347L189.154 40.2402L189.881 41.5525ZM210.761 41.5525L210.034 42.8649L210.044 42.8702L210.761 41.5525ZM217.801 48.5925L216.483 49.3092L216.488 49.318L216.493 49.3268L217.801 48.5925ZM217.801 70.9925L216.493 70.2582L216.488 70.266L217.801 70.9925ZM210.761 77.9525L210.044 76.6347L210.034 76.6402L210.761 77.9525ZM210.281 70.8325L209.188 69.8051L209.187 69.8058L210.281 70.8325ZM210.281 48.7525L209.177 49.7681L209.187 49.7796L209.198 49.7908L210.281 48.7525ZM190.441 48.7525L191.523 49.7908L191.528 49.7854L191.534 49.7799L190.441 48.7525ZM190.441 70.8325L189.348 71.8599L189.353 71.8654L189.358 71.8708L190.441 70.8325ZM200.361 78.9325C196.629 78.9325 193.388 78.1526 190.597 76.6348L189.164 79.2702C192.453 81.0591 196.199 81.9325 200.361 81.9325V78.9325ZM190.607 76.6402C187.863 75.121 185.714 72.9983 184.143 70.2483L181.538 71.7367C183.38 74.96 185.925 77.4774 189.154 79.2648L190.607 76.6402ZM184.158 70.2758C182.645 67.4935 181.861 64.1755 181.861 60.2725H178.861C178.861 64.5828 179.729 68.4115 181.523 71.7092L184.158 70.2758ZM181.861 60.2725V59.2325H178.861V60.2725H181.861ZM181.861 59.2325C181.861 55.3865 182.644 52.0943 184.158 49.3092L181.523 47.8758C179.731 51.1707 178.861 54.9718 178.861 59.2325H181.861ZM184.149 49.3268C185.722 46.5243 187.87 44.3802 190.607 42.8648L189.154 40.2402C185.918 42.0314 183.373 44.5807 181.533 47.8582L184.149 49.3268ZM190.597 42.8702C193.388 41.3524 196.629 40.5725 200.361 40.5725V37.5725C196.199 37.5725 192.453 38.4459 189.164 40.2348L190.597 42.8702ZM200.361 40.5725C204.093 40.5725 207.302 41.3526 210.034 42.8648L211.487 40.2402C208.246 38.4457 204.521 37.5725 200.361 37.5725V40.5725ZM210.044 42.8702C212.83 44.3853 214.968 46.5233 216.483 49.3092L219.118 47.8758C217.327 44.5817 214.771 42.0263 211.477 40.2348L210.044 42.8702ZM216.493 49.3268C218.054 52.1084 218.861 55.3942 218.861 59.2325H221.861C221.861 54.9642 220.96 51.1566 219.109 47.8582L216.493 49.3268ZM218.861 59.2325V60.2725H221.861V59.2325H218.861ZM218.861 60.2725C218.861 64.1679 218.053 67.4794 216.493 70.2582L219.109 71.7268C220.962 68.4256 221.861 64.5904 221.861 60.2725H218.861ZM216.488 70.266C214.975 72.9993 212.837 75.1158 210.044 76.6348L211.477 79.2702C214.764 77.4825 217.319 74.959 219.113 71.719L216.488 70.266ZM210.034 76.6402C207.302 78.1524 204.093 78.9325 200.361 78.9325V81.9325C204.521 81.9325 208.246 81.0593 211.487 79.2648L210.034 76.6402ZM200.361 76.2525C204.862 76.2525 208.591 74.8237 211.374 71.8592L209.187 69.8058C207.063 72.068 204.179 73.2525 200.361 73.2525V76.2525ZM211.374 71.8599C214.198 68.8556 215.541 64.8841 215.541 60.1125H212.541C212.541 64.3009 211.377 67.476 209.188 69.8051L211.374 71.8599ZM215.541 60.1125V59.3925H212.541V60.1125H215.541ZM215.541 59.3925C215.541 54.6222 214.198 50.6695 211.363 47.7142L209.198 49.7908C211.377 52.0621 212.541 55.2028 212.541 59.3925H215.541ZM211.385 47.7369C208.604 44.7146 204.872 43.2525 200.361 43.2525V46.2525C204.169 46.2525 207.051 47.4571 209.177 49.7681L211.385 47.7369ZM200.361 43.2525C195.896 43.2525 192.174 44.7185 189.348 47.7251L191.534 49.7799C193.721 47.4531 196.612 46.2525 200.361 46.2525V43.2525ZM189.358 47.7142C186.523 50.6695 185.181 54.6222 185.181 59.3925H188.181C188.181 55.2028 189.345 52.0621 191.523 49.7908L189.358 47.7142ZM185.181 59.3925V60.1125H188.181V59.3925H185.181ZM185.181 60.1125C185.181 64.8841 186.524 68.8556 189.348 71.8599L191.534 69.8051C189.344 67.476 188.181 64.3009 188.181 60.1125H185.181ZM189.358 71.8708C192.187 74.8198 195.905 76.2525 200.361 76.2525V73.2525C196.603 73.2525 193.708 72.0719 191.523 69.7942L189.358 71.8708ZM238.854 78.1925L238.159 79.5219L238.171 79.5282L238.854 78.1925ZM233.254 72.7525L231.936 73.4688L231.945 73.486L231.955 73.5029L233.254 72.7525ZM231.254 40.1925V38.6925H229.754V40.1925H231.254ZM237.574 40.1925H239.074V38.6925H237.574V40.1925ZM240.454 71.8725L239.44 72.9782L239.448 72.9851L239.455 72.9919L240.454 71.8725ZM257.574 70.8325L256.501 69.7836L257.574 70.8325ZM261.174 40.1925V38.6925H259.674V40.1925H261.174ZM267.494 40.1925H268.994V38.6925H267.494V40.1925ZM267.494 79.3125V80.8125H268.994V79.3125H267.494ZM261.334 79.3125H259.834V80.8125H261.334V79.3125ZM261.334 72.6725H262.834V71.1725H261.334V72.6725ZM260.214 72.6725V71.1725H259.25L258.85 72.0489L260.214 72.6725ZM255.814 77.7925L256.689 79.011L256.699 79.0037L256.709 78.9962L255.814 77.7925ZM246.694 78.5325C244.093 78.5325 241.715 77.9702 239.536 76.8568L238.171 79.5282C240.793 80.8681 243.642 81.5325 246.694 81.5325V78.5325ZM239.549 76.8632C237.466 75.7746 235.804 74.1678 234.553 72.0021L231.955 73.5029C233.477 76.1372 235.548 78.157 238.159 79.5218L239.549 76.8632ZM234.572 72.0362C233.383 69.8497 232.754 67.1485 232.754 63.8725H229.754C229.754 67.5298 230.457 70.7486 231.936 73.4688L234.572 72.0362ZM232.754 63.8725V40.1925H229.754V63.8725H232.754ZM231.254 41.6925H237.574V38.6925H231.254V41.6925ZM236.074 40.1925V63.3925H239.074V40.1925H236.074ZM236.074 63.3925C236.074 67.4976 237.084 70.8185 239.44 72.9782L241.467 70.7668C239.983 69.4065 239.074 67.0741 239.074 63.3925H236.074ZM239.455 72.9919C241.767 75.0541 244.795 76.0125 248.374 76.0125V73.0125C245.34 73.0125 243.087 72.2109 241.452 70.7531L239.455 72.9919ZM248.374 76.0125C252.471 76.0125 255.938 74.6501 258.646 71.8814L256.501 69.7836C254.41 71.9216 251.743 73.0125 248.374 73.0125V76.0125ZM258.646 71.8814C261.417 69.0493 262.674 64.9543 262.674 59.8725H259.674C259.674 64.4974 258.531 67.709 256.501 69.7836L258.646 71.8814ZM262.674 59.8725V40.1925H259.674V59.8725H262.674ZM261.174 41.6925H267.494V38.6925H261.174V41.6925ZM265.994 40.1925V79.3125H268.994V40.1925H265.994ZM267.494 77.8125H261.334V80.8125H267.494V77.8125ZM262.834 79.3125V72.6725H259.834V79.3125H262.834ZM261.334 71.1725H260.214V74.1725H261.334V71.1725ZM258.85 72.0489C258.125 73.633 256.848 75.154 254.919 76.5888L256.709 78.9962C258.939 77.3376 260.595 75.4453 261.578 73.2961L258.85 72.0489ZM254.939 76.574C253.221 77.8074 250.544 78.5325 246.694 78.5325V81.5325C250.843 81.5325 254.247 80.7642 256.689 79.011L254.939 76.574ZM280.718 79.3125H279.218V80.8125H280.718V79.3125ZM280.718 40.1925V38.6925H279.218V40.1925H280.718ZM286.878 40.1925H288.378V38.6925H286.878V40.1925ZM286.878 44.9925H285.378V46.4925H286.878V44.9925ZM287.998 44.9925V46.4925H289.008L289.388 45.5571L287.998 44.9925ZM291.198 41.2325L291.927 42.5437L291.198 41.2325ZM301.518 40.0325H303.018V38.5325H301.518V40.0325ZM301.518 45.7925V47.2925H303.018V45.7925H301.518ZM289.598 48.1925L290.605 49.304L290.607 49.3024L289.598 48.1925ZM287.038 79.3125V80.8125H288.538V79.3125H287.038ZM282.218 79.3125V40.1925H279.218V79.3125H282.218ZM280.718 41.6925H286.878V38.6925H280.718V41.6925ZM285.378 40.1925V44.9925H288.378V40.1925H285.378ZM286.878 46.4925H287.998V43.4925H286.878V46.4925ZM289.388 45.5571C289.969 44.1277 290.821 43.1579 291.927 42.5437L290.47 39.9213C288.695 40.9071 287.414 42.444 286.608 44.4279L289.388 45.5571ZM291.927 42.5437C293.069 41.909 294.685 41.5325 296.878 41.5325V38.5325C294.378 38.5325 292.207 38.956 290.47 39.9213L291.927 42.5437ZM296.878 41.5325H301.518V38.5325H296.878V41.5325ZM300.018 40.0325V45.7925H303.018V40.0325H300.018ZM301.518 44.2925H296.478V47.2925H301.518V44.2925ZM296.478 44.2925C293.353 44.2925 290.676 45.1857 288.589 47.0826L290.607 49.3024C292.041 47.9993 293.95 47.2925 296.478 47.2925V44.2925ZM288.591 47.081C286.454 49.0178 285.538 51.9308 285.538 55.4725H288.538C288.538 52.4009 289.329 50.4605 290.605 49.304L288.591 47.081ZM285.538 55.4725V79.3125H288.538V55.4725H285.538ZM287.038 77.8125H280.718V80.8125H287.038V77.8125ZM331.421 79.3125H329.921V80.8125H331.421V79.3125ZM331.421 40.1925V38.6925H329.921V40.1925H331.421ZM337.741 40.1925H339.241V38.6925H337.741V40.1925ZM337.741 79.3125V80.8125H339.241V79.3125H337.741ZM331.101 32.7525L330.041 33.8132L330.056 33.8283L330.071 33.843L331.101 32.7525ZM331.101 25.7925L330.071 24.702L330.056 24.7167L330.041 24.7318L331.101 25.7925ZM332.921 79.3125V40.1925H329.921V79.3125H332.921ZM331.421 41.6925H337.741V38.6925H331.421V41.6925ZM336.241 40.1925V79.3125H339.241V40.1925H336.241ZM337.741 77.8125H331.421V80.8125H337.741V77.8125ZM334.621 32.6125C333.596 32.6125 332.798 32.2915 332.131 31.662L330.071 33.843C331.325 35.0269 332.873 35.6125 334.621 35.6125V32.6125ZM332.162 31.6918C331.561 31.0908 331.241 30.3371 331.241 29.3125H328.241C328.241 31.0612 328.828 32.6009 330.041 33.8132L332.162 31.6918ZM331.241 29.3125C331.241 28.2169 331.572 27.4428 332.162 26.8532L330.041 24.7318C328.817 25.9555 328.241 27.5281 328.241 29.3125H331.241ZM332.131 26.883C332.798 26.2535 333.596 25.9325 334.621 25.9325V22.9325C332.873 22.9325 331.325 23.5181 330.071 24.702L332.131 26.883ZM334.621 25.9325C335.646 25.9325 336.4 26.2521 337.001 26.8532L339.122 24.7318C337.91 23.5195 336.37 22.9325 334.621 22.9325V25.9325ZM337.001 26.8532C337.59 27.4428 337.921 28.2169 337.921 29.3125H340.921C340.921 27.5281 340.346 25.9555 339.122 24.7318L337.001 26.8532ZM337.921 29.3125C337.921 30.3371 337.602 31.0908 337.001 31.6918L339.122 33.8132C340.334 32.6009 340.921 31.0612 340.921 29.3125H337.921ZM337.001 31.6918C336.4 32.2929 335.646 32.6125 334.621 32.6125V35.6125C336.37 35.6125 337.91 35.0255 339.122 33.8132L337.001 31.6918ZM358.311 78.0325L357.572 79.3379L358.311 78.0325ZM351.591 71.0725L350.273 71.7892L351.591 71.0725ZM351.591 48.5125L352.903 49.239L352.908 49.2292L351.591 48.5125ZM358.231 41.5525L358.98 42.8518L358.988 42.8473L358.231 41.5525ZM374.471 40.1925L373.914 41.5852L373.937 41.5947L373.961 41.6033L374.471 40.1925ZM379.111 42.9125L378.075 43.9975L378.088 44.0101L378.102 44.0224L379.111 42.9125ZM381.831 46.3525L380.501 47.0463L380.921 47.8525H381.831V46.3525ZM382.951 46.3525V47.8525H384.451V46.3525H382.951ZM382.951 23.3125V21.8125H381.451V23.3125H382.951ZM389.271 23.3125H390.771V21.8125H389.271V23.3125ZM389.271 79.3125V80.8125H390.771V79.3125H389.271ZM383.111 79.3125H381.611V80.8125H383.111V79.3125ZM383.111 72.8325H384.611V71.3325H383.111V72.8325ZM381.991 72.8325V71.3325H381.096L380.671 72.1192L381.991 72.8325ZM377.031 78.1125L377.883 79.3468L377.031 78.1125ZM379.111 70.9925L378.039 69.9428L378.039 69.9431L379.111 70.9925ZM379.111 48.5925L378.028 49.6308L378.039 49.6421L378.05 49.6532L379.111 48.5925ZM359.351 48.5925L360.411 49.6532L359.351 48.5925ZM359.351 70.9925L358.279 72.0422L358.29 72.0532L358.301 72.064L359.351 70.9925ZM367.591 78.9325C364.48 78.9325 361.643 78.195 359.05 76.7271L357.572 79.3379C360.632 81.07 363.981 81.9325 367.591 81.9325V78.9325ZM359.05 76.7271C356.483 75.2745 354.437 73.1661 352.908 70.3558L350.273 71.7892C352.051 75.0589 354.485 77.5905 357.572 79.3379L359.05 76.7271ZM352.908 70.3558C351.397 67.5761 350.611 64.2325 350.611 60.2725H347.611C347.611 64.6325 348.478 68.4889 350.273 71.7892L352.908 70.3558ZM350.611 60.2725V59.2325H347.611V60.2725H350.611ZM350.611 59.2325C350.611 55.2715 351.397 51.9596 352.903 49.239L350.278 47.786C348.478 51.0388 347.611 54.8735 347.611 59.2325H350.611ZM352.908 49.2292C354.441 46.4116 356.466 44.3025 358.98 42.8518L357.481 40.2532C354.449 42.0025 352.047 44.5334 350.273 47.7958L352.908 49.2292ZM358.988 42.8473C361.575 41.3342 364.432 40.5725 367.591 40.5725V37.5725C363.923 37.5725 360.54 38.4642 357.473 40.2577L358.988 42.8473ZM367.591 40.5725C370.183 40.5725 372.275 40.9296 373.914 41.5852L375.028 38.7998C372.933 37.962 370.438 37.5725 367.591 37.5725V40.5725ZM373.961 41.6033C375.734 42.2435 377.086 43.0536 378.075 43.9975L380.146 41.8275C378.789 40.5314 377.047 39.5281 374.98 38.7817L373.961 41.6033ZM378.102 44.0224C379.163 44.9875 379.953 45.9972 380.501 47.0463L383.16 45.6586C382.428 44.2544 381.405 42.9709 380.12 41.8026L378.102 44.0224ZM381.831 47.8525H382.951V44.8525H381.831V47.8525ZM384.451 46.3525V23.3125H381.451V46.3525H384.451ZM382.951 24.8125H389.271V21.8125H382.951V24.8125ZM387.771 23.3125V79.3125H390.771V23.3125H387.771ZM389.271 77.8125H383.111V80.8125H389.271V77.8125ZM384.611 79.3125V72.8325H381.611V79.3125H384.611ZM383.111 71.3325H381.991V74.3325H383.111V71.3325ZM380.671 72.1192C379.738 73.8446 378.265 75.4376 376.178 76.8782L377.883 79.3468C380.277 77.6941 382.109 75.7671 383.31 73.5458L380.671 72.1192ZM376.178 76.8782C374.284 78.1862 371.48 78.9325 367.591 78.9325V81.9325C371.808 81.9325 375.297 81.1321 377.883 79.3468L376.178 76.8782ZM369.271 76.3325C373.669 76.3325 377.355 74.929 380.182 72.0419L378.039 69.9431C375.852 72.176 372.979 73.3325 369.271 73.3325V76.3325ZM380.182 72.0422C383.085 69.0784 384.451 65.0346 384.451 60.1125H381.451C381.451 64.4704 380.256 67.6799 378.039 69.9428L380.182 72.0422ZM384.451 60.1125V59.3925H381.451V60.1125H384.451ZM384.451 59.3925C384.451 54.472 383.086 50.4465 380.171 47.5318L378.05 49.6532C380.255 51.8585 381.451 55.033 381.451 59.3925H384.451ZM380.193 47.5542C377.368 44.6093 373.679 43.1725 369.271 43.1725V46.1725C372.969 46.1725 375.839 47.349 378.028 49.6308L380.193 47.5542ZM369.271 43.1725C364.909 43.1725 361.209 44.6126 358.29 47.5318L360.411 49.6532C362.719 47.3457 365.632 46.1725 369.271 46.1725V43.1725ZM358.29 47.5318C355.375 50.4465 354.011 54.472 354.011 59.3925H357.011C357.011 55.033 358.206 51.8585 360.411 49.6532L358.29 47.5318ZM354.011 59.3925V60.1125H357.011V59.3925H354.011ZM354.011 60.1125C354.011 65.0346 355.376 69.0784 358.279 72.0422L360.422 69.9428C358.205 67.6799 357.011 64.4704 357.011 60.1125H354.011ZM358.301 72.064C361.222 74.9256 364.918 76.3325 369.271 76.3325V73.3325C365.623 73.3325 362.706 72.1794 360.4 69.921L358.301 72.064ZM410.035 77.9525L409.291 79.2549L409.3 79.2599L409.309 79.2648L410.035 77.9525ZM403.075 70.8325L404.393 70.1158L403.075 70.8325ZM403.075 48.6725L401.757 47.9558L403.075 48.6725ZM409.955 41.6325L410.692 42.9392L410.7 42.9342L410.709 42.929L409.955 41.6325ZM429.795 41.4725L429.056 42.7779L429.066 42.7832L429.075 42.7884L429.795 41.4725ZM436.435 48.1925L437.752 47.4742L436.435 48.1925ZM438.835 61.3925V62.8925H440.335V61.3925H438.835ZM406.915 61.3925V59.8925H405.357L405.416 61.4494L406.915 61.3925ZM410.995 71.3125L409.969 72.4068L409.975 72.4126L409.981 72.4182L410.995 71.3125ZM428.355 72.5125L429.328 73.6537L428.355 72.5125ZM432.515 66.9925L433.17 65.643L431.781 64.9689L431.147 66.377L432.515 66.9925ZM437.955 69.6325L439.305 70.2858L439.958 68.9372L438.61 68.283L437.955 69.6325ZM434.595 74.5925L433.464 73.6073L433.455 73.6179L433.446 73.6286L434.595 74.5925ZM429.075 78.7525L428.417 77.4046L428.404 77.4109L429.075 78.7525ZM406.995 56.1925L405.511 55.9743L405.258 57.6925H406.995V56.1925ZM432.435 56.1925V57.6925H434.026L433.932 56.1044L432.435 56.1925ZM428.675 47.7125L427.669 48.8248L427.675 48.8307L427.682 48.8365L428.675 47.7125ZM411.235 47.7125L412.228 48.8365L411.235 47.7125ZM420.435 78.9325C416.702 78.9325 413.493 78.1524 410.761 76.6402L409.309 79.2648C412.55 81.0593 416.274 81.9325 420.435 81.9325V78.9325ZM410.779 76.6501C408.036 75.0825 405.914 72.9127 404.393 70.1158L401.757 71.5492C403.543 74.8323 406.061 77.4091 409.291 79.2549L410.779 76.6501ZM404.393 70.1158C402.876 67.3279 402.095 64.0615 402.095 60.2725H399.095C399.095 64.4835 399.967 68.2571 401.757 71.5492L404.393 70.1158ZM402.095 60.2725V59.3125H399.095V60.2725H402.095ZM402.095 59.3125C402.095 55.4665 402.878 52.1743 404.393 49.3892L401.757 47.9558C399.965 51.2507 399.095 55.0518 399.095 59.3125H402.095ZM404.393 49.3892C405.915 46.5893 408.011 44.4503 410.692 42.9392L409.218 40.3258C406.033 42.1213 403.541 44.6757 401.757 47.9558L404.393 49.3892ZM410.709 42.929C413.388 41.3706 416.482 40.5725 420.035 40.5725V37.5725C416.015 37.5725 412.389 38.4811 409.201 40.336L410.709 42.929ZM420.035 40.5725C423.491 40.5725 426.483 41.3217 429.056 42.7779L430.534 40.1671C427.453 38.4233 423.939 37.5725 420.035 37.5725V40.5725ZM429.075 42.7884C431.64 44.1918 433.65 46.2199 435.118 48.9108L437.752 47.4742C436.02 44.2985 433.603 41.8465 430.515 40.1566L429.075 42.7884ZM435.118 48.9108C436.578 51.587 437.335 54.7713 437.335 58.5125H440.335C440.335 54.3604 439.492 50.6647 437.752 47.4742L435.118 48.9108ZM437.335 58.5125V61.3925H440.335V58.5125H437.335ZM438.835 59.8925H406.915V62.8925H438.835V59.8925ZM405.416 61.4494C405.588 65.9724 407.064 69.6837 409.969 72.4068L412.021 70.2182C409.806 68.1413 408.562 65.2393 408.414 61.3356L405.416 61.4494ZM409.981 72.4182C412.848 75.0461 416.423 76.3325 420.595 76.3325V73.3325C417.087 73.3325 414.262 72.2722 412.009 70.2068L409.981 72.4182ZM420.595 76.3325C424.167 76.3325 427.151 75.5111 429.328 73.6537L427.382 71.3712C425.933 72.6072 423.743 73.3325 420.595 73.3325V76.3325ZM429.328 73.6537C431.307 71.966 432.83 69.9475 433.883 67.608L431.147 66.377C430.28 68.3042 429.029 69.9657 427.382 71.3712L429.328 73.6537ZM431.86 68.342L437.3 70.982L438.61 68.283L433.17 65.643L431.86 68.342ZM436.605 68.9792C435.873 70.4921 434.833 72.0356 433.464 73.6073L435.726 75.5777C437.237 73.8427 438.437 72.0795 439.305 70.2858L436.605 68.9792ZM433.446 73.6286C432.216 75.0943 430.555 76.3602 428.417 77.4046L429.733 80.1003C432.181 78.9048 434.2 77.3974 435.744 75.5564L433.446 73.6286ZM428.404 77.4109C426.439 78.3932 423.811 78.9325 420.435 78.9325V81.9325C424.099 81.9325 427.231 81.3517 429.746 80.0941L428.404 77.4109ZM406.995 57.6925H432.435V54.6925H406.995V57.6925ZM433.932 56.1044C433.7 52.1593 432.316 48.9284 429.668 46.5885L427.682 48.8365C429.621 50.5499 430.743 52.9724 430.938 56.2806L433.932 56.1044ZM429.681 46.6002C427.121 44.2833 423.862 43.1725 420.035 43.1725V46.1725C423.248 46.1725 425.749 47.0883 427.669 48.8248L429.681 46.6002ZM420.035 43.1725C416.161 43.1725 412.854 44.2797 410.242 46.5885L412.228 48.8365C414.202 47.0919 416.763 46.1725 420.035 46.1725V43.1725ZM410.242 46.5885C407.633 48.894 406.085 52.0696 405.511 55.9743L408.479 56.4107C408.971 53.0621 410.25 50.5844 412.228 48.8365L410.242 46.5885ZM454.419 78.9925L453.828 80.3712L454.419 78.9925ZM449.139 74.8325L447.913 75.6975L449.139 74.8325ZM449.139 61.6325L450.339 62.5325L450.345 62.5237L450.352 62.5148L449.139 61.6325ZM454.419 57.7125L454.953 59.1142L454.967 59.1087L454.982 59.1029L454.419 57.7125ZM475.139 56.3525V57.8525H476.639V56.3525H475.139ZM472.659 46.9125L471.598 47.9732L471.607 47.9818L471.616 47.9904L472.659 46.9125ZM458.099 46.8325L459.069 47.9763L459.079 47.9678L459.089 47.9592L458.099 46.8325ZM454.499 52.9125L454.036 54.3393L455.564 54.835L455.954 53.2763L454.499 52.9125ZM448.579 50.9925L447.139 50.5712L446.73 51.9698L448.116 52.4193L448.579 50.9925ZM451.619 45.0725L452.797 46.0008L452.804 45.9923L452.81 45.9837L451.619 45.0725ZM457.139 40.7525L457.771 42.1126L457.778 42.1094L457.785 42.1062L457.139 40.7525ZM477.219 42.9925L476.19 44.0842L476.196 44.0895L476.201 44.0947L477.219 42.9925ZM487.219 73.9525H488.719V72.4525H487.219V73.9525ZM487.219 79.3125V80.8125H488.719V79.3125H487.219ZM477.459 77.8725L476.426 78.96L476.44 78.9739L476.455 78.9874L477.459 77.8725ZM475.859 73.4725H477.359V71.9725H475.859V73.4725ZM474.899 73.4725V71.9725H474.034L473.601 72.7209L474.899 73.4725ZM472.499 76.6725L471.386 75.6661L471.384 75.6691L472.499 76.6725ZM468.499 79.3125L467.934 77.9228L467.916 77.9303L467.898 77.9383L468.499 79.3125ZM471.619 71.7125L472.654 72.7981L472.654 72.7975L471.619 71.7125ZM475.139 61.4725H476.639V59.9725H475.139V61.4725ZM455.939 63.1525L456.771 64.4006L456.78 64.3944L455.939 63.1525ZM456.019 73.1525L455.125 74.3571L455.134 74.3639L455.143 74.3705L456.019 73.1525ZM461.859 78.9325C459.318 78.9325 457.042 78.485 455.01 77.6138L453.828 80.3712C456.275 81.42 458.959 81.9325 461.859 81.9325V78.9325ZM455.01 77.6138C452.999 76.752 451.469 75.5323 450.364 73.9675L447.913 75.6975C449.369 77.7594 451.359 79.313 453.828 80.3712L455.01 77.6138ZM450.364 73.9675C449.293 72.4497 448.719 70.5525 448.719 68.1925H445.719C445.719 71.0592 446.425 73.5886 447.913 75.6975L450.364 73.9675ZM448.719 68.1925C448.719 65.768 449.298 63.9206 450.339 62.5325L447.939 60.7325C446.42 62.7578 445.719 65.2836 445.719 68.1925H448.719ZM450.352 62.5148C451.443 61.0138 452.956 59.8749 454.953 59.1142L453.885 56.3108C451.401 57.2568 449.394 58.7312 447.926 60.7502L450.352 62.5148ZM454.982 59.1029C457.018 58.2785 459.33 57.8525 461.939 57.8525V54.8525C459.001 54.8525 456.299 55.3332 453.856 56.3221L454.982 59.1029ZM461.939 57.8525H475.139V54.8525H461.939V57.8525ZM476.639 56.3525V53.4725H473.639V56.3525H476.639ZM476.639 53.4725C476.639 50.3825 475.706 47.774 473.702 45.8346L471.616 47.9904C472.918 49.251 473.639 51.0158 473.639 53.4725H476.639ZM473.719 45.8518C471.739 43.8713 468.89 43.0125 465.459 43.0125V46.0125C468.428 46.0125 470.379 46.7537 471.598 47.9732L473.719 45.8518ZM465.459 43.0125C462.074 43.0125 459.224 43.8465 457.109 45.7057L459.089 47.9592C460.493 46.7252 462.55 46.0125 465.459 46.0125V43.0125ZM457.128 45.6887C455.096 47.4132 453.748 49.7297 453.044 52.5487L455.954 53.2763C456.529 50.9753 457.582 49.2385 459.069 47.9763L457.128 45.6887ZM454.962 51.4857L449.042 49.5657L448.116 52.4193L454.036 54.3393L454.962 51.4857ZM450.018 51.4138C450.605 49.4081 451.531 47.6075 452.797 46.0008L450.441 44.1442C448.933 46.0575 447.832 48.2035 447.139 50.5712L450.018 51.4138ZM452.81 45.9837C454.034 44.383 455.674 43.0882 457.771 42.1126L456.506 39.3924C454.017 40.5501 451.977 42.1353 450.427 44.1613L452.81 45.9837ZM457.785 42.1062C459.886 41.1036 462.454 40.5725 465.539 40.5725V37.5725C462.117 37.5725 459.085 38.1614 456.493 39.3988L457.785 42.1062ZM465.539 40.5725C470.294 40.5725 473.774 41.8074 476.19 44.0842L478.247 41.9008C475.117 38.9509 470.81 37.5725 465.539 37.5725V40.5725ZM476.201 44.0947C478.595 46.3043 479.879 49.4886 479.879 53.8725H482.879C482.879 48.8698 481.389 44.8007 478.236 41.8903L476.201 44.0947ZM479.879 53.8725V71.5525H482.879V53.8725H479.879ZM479.879 71.5525C479.879 72.559 480.112 73.5931 480.842 74.376C481.591 75.1783 482.613 75.4525 483.619 75.4525V72.4525C483.375 72.4525 483.226 72.4194 483.143 72.3899C483.069 72.3633 483.045 72.339 483.035 72.329C483.019 72.3119 482.879 72.146 482.879 71.5525H479.879ZM483.619 75.4525H487.219V72.4525H483.619V75.4525ZM485.719 73.9525V79.3125H488.719V73.9525H485.719ZM487.219 77.8125H481.699V80.8125H487.219V77.8125ZM481.699 77.8125C480.222 77.8125 479.194 77.4166 478.462 76.7576L476.455 78.9874C477.856 80.2484 479.656 80.8125 481.699 80.8125V77.8125ZM478.492 76.785C477.762 76.0913 477.359 75.1707 477.359 73.8725H474.359C474.359 75.881 475.023 77.6271 476.426 78.96L478.492 76.785ZM477.359 73.8725V73.4725H474.359V73.8725H477.359ZM475.859 71.9725H474.899V74.9725H475.859V71.9725ZM473.601 72.7209C473.079 73.6212 472.348 74.6031 471.386 75.6661L473.611 77.6789C474.676 76.5019 475.545 75.3504 476.197 74.2241L473.601 72.7209ZM471.384 75.6691C470.612 76.5261 469.488 77.2915 467.934 77.9228L469.063 80.7022C470.923 79.9468 472.465 78.9522 473.614 77.6759L471.384 75.6691ZM467.898 77.9383C466.447 78.573 464.459 78.9325 461.859 78.9325V81.9325C464.698 81.9325 467.137 81.5454 469.1 80.6867L467.898 77.9383ZM462.579 76.4925C466.624 76.4925 470.033 75.2974 472.654 72.7981L470.584 70.6269C468.618 72.5009 466 73.4925 462.579 73.4925V76.4925ZM472.654 72.7975C475.364 70.211 476.639 66.6603 476.639 62.3525H473.639C473.639 66.0447 472.567 68.734 470.583 70.6275L472.654 72.7975ZM476.639 62.3525V61.4725H473.639V62.3525H476.639ZM475.139 59.9725H462.179V62.9725H475.139V59.9725ZM462.179 59.9725C459.449 59.9725 457.056 60.584 455.097 61.9106L456.78 64.3944C458.128 63.481 459.895 62.9725 462.179 62.9725V59.9725ZM455.107 61.9044C453.027 63.2911 452.039 65.4247 452.039 68.0325H455.039C455.039 66.267 455.651 65.1472 456.771 64.4006L455.107 61.9044ZM452.039 68.0325C452.039 70.6596 453.063 72.8276 455.125 74.3571L456.913 71.9479C455.667 71.0241 455.039 69.7788 455.039 68.0325H452.039ZM455.143 74.3705C457.166 75.8245 459.683 76.4925 462.579 76.4925V73.4925C460.141 73.4925 458.285 72.9338 456.894 71.9345L455.143 74.3705ZM499.002 77.0725L498.161 78.3144L498.17 78.3206L499.002 77.0725ZM493.002 66.4325L492.67 64.9696L491.321 65.2754L491.517 66.6446L493.002 66.4325ZM499.002 65.0725L500.481 64.8259L500.22 63.2583L498.67 63.6096L499.002 65.0725ZM501.402 71.1525L500.222 72.0792L500.231 72.0897L500.239 72.1L501.402 71.1525ZM505.722 74.2725L505.195 75.677L505.221 75.6867L505.248 75.6955L505.722 74.2725ZM518.282 73.3925L517.432 72.1564L518.282 73.3925ZM518.362 64.4325L517.656 65.756L517.682 65.7699L517.709 65.7827L518.362 64.4325ZM511.722 62.3525L512 60.8785L511.987 60.8761L511.974 60.8739L511.722 62.3525ZM508.442 61.7925L508.694 60.3139L508.694 60.3138L508.442 61.7925ZM501.562 59.7925L502.161 58.4175L501.562 59.7925ZM496.602 56.1125L497.777 55.1804L496.602 56.1125ZM498.842 42.0325L497.961 40.8184L498.842 42.0325ZM520.362 42.1125L519.466 43.3153L519.479 43.3251L519.492 43.3347L520.362 42.1125ZM525.722 50.5125L526.095 51.9654L527.499 51.6049L527.187 50.1894L525.722 50.5125ZM519.802 52.0325L518.323 52.2836L518.596 53.8908L520.175 53.4854L519.802 52.0325ZM516.362 46.1125L515.547 47.3719L515.56 47.3804L515.574 47.3887L516.362 46.1125ZM503.322 45.8725L504.113 47.147L504.129 47.1373L504.144 47.1272L503.322 45.8725ZM503.162 54.3525L502.363 55.6218L502.39 55.6389L502.418 55.6549L503.162 54.3525ZM509.082 56.2725L508.825 57.7503L508.829 57.7511L509.082 56.2725ZM512.362 56.8325L512.618 55.3545L512.614 55.3539L512.362 56.8325ZM519.802 58.8325L519.257 60.2299L519.277 60.2378L519.297 60.2451L519.802 58.8325ZM525.082 62.3525L523.926 63.3088L523.936 63.3205L523.946 63.3319L525.082 62.3525ZM522.762 77.3125L521.884 76.0964L521.873 76.1043L522.762 77.3125ZM511.322 78.9325C506.704 78.9325 502.901 77.8695 499.834 75.8244L498.17 78.3206C501.822 80.7555 506.233 81.9325 511.322 81.9325V78.9325ZM499.843 75.8306C496.964 73.8804 495.135 70.7579 494.487 66.2204L491.517 66.6446C492.255 71.8138 494.426 75.7846 498.161 78.3144L499.843 75.8306ZM493.333 67.8954L499.333 66.5354L498.67 63.6096L492.67 64.9696L493.333 67.8954ZM497.522 65.3191C497.976 68.0406 498.847 70.3287 500.222 72.0792L502.581 70.2258C501.61 68.9897 500.881 67.2244 500.481 64.8259L497.522 65.3191ZM500.239 72.1C501.577 73.7419 503.235 74.9418 505.195 75.677L506.249 72.868C504.796 72.3232 503.574 71.4431 502.565 70.205L500.239 72.1ZM505.248 75.6955C507.17 76.3363 509.198 76.6525 511.322 76.6525V73.6525C509.499 73.6525 507.794 73.382 506.196 72.8495L505.248 75.6955ZM511.322 76.6525C514.437 76.6525 517.091 76.0317 519.132 74.6286L517.432 72.1564C516.06 73.0999 514.073 73.6525 511.322 73.6525V76.6525ZM519.132 74.6286C521.221 73.1919 522.342 71.1682 522.342 68.6725H519.342C519.342 70.1235 518.756 71.2465 517.432 72.1564L519.132 74.6286ZM522.342 68.6725C522.342 67.4558 522.093 66.3204 521.517 65.3352C520.935 64.341 520.076 63.5955 519.015 63.0823L517.709 65.7827C518.301 66.0695 518.682 66.4307 518.927 66.8498C519.178 67.278 519.342 67.8625 519.342 68.6725H522.342ZM519.068 63.109C517.279 62.1548 514.899 61.4256 512 60.8785L511.444 63.8265C514.198 64.3461 516.245 65.0035 517.656 65.756L519.068 63.109ZM511.974 60.8739L508.694 60.3139L508.189 63.2711L511.469 63.8311L511.974 60.8739ZM508.694 60.3138C506.292 59.9051 504.118 59.2702 502.161 58.4175L500.962 61.1675C503.166 62.1281 505.578 62.8266 508.19 63.2712L508.694 60.3138ZM502.161 58.4175C500.273 57.5942 498.83 56.5074 497.777 55.1804L495.427 57.0446C496.828 58.8109 498.691 60.1774 500.962 61.1675L502.161 58.4175ZM497.777 55.1804C496.799 53.9466 496.262 52.3471 496.262 50.2725H493.262C493.262 52.8913 493.952 55.1851 495.427 57.0446L497.777 55.1804ZM496.262 50.2725C496.262 47.2062 497.413 44.9224 499.723 43.2466L497.961 40.8184C494.831 43.0893 493.262 46.2988 493.262 50.2725H496.262ZM499.723 43.2466C502.113 41.5122 505.374 40.5725 509.642 40.5725V37.5725C504.95 37.5725 501.01 38.6061 497.961 40.8184L499.723 43.2466ZM509.642 40.5725C513.844 40.5725 517.074 41.5331 519.466 43.3153L521.258 40.9097C518.21 38.6385 514.293 37.5725 509.642 37.5725V40.5725ZM519.492 43.3347C521.934 45.0721 523.529 47.5362 524.257 50.8356L527.187 50.1894C526.314 46.2355 524.336 43.0996 521.232 40.8903L519.492 43.3347ZM525.349 49.0596L519.429 50.5796L520.175 53.4854L526.095 51.9654L525.349 49.0596ZM521.281 51.7814C520.755 48.6839 519.445 46.2538 517.15 44.8363L515.574 47.3887C516.905 48.2112 517.889 49.7277 518.323 52.2836L521.281 51.7814ZM517.177 44.8531C515.069 43.4895 512.53 42.8525 509.642 42.8525V45.8525C512.087 45.8525 514.028 46.3889 515.547 47.3719L517.177 44.8531ZM509.642 42.8525C506.806 42.8525 504.376 43.3883 502.5 44.6178L504.144 47.1272C505.361 46.33 507.144 45.8525 509.642 45.8525V42.8525ZM502.531 44.598C500.515 45.8493 499.502 47.788 499.502 50.1925H502.502C502.502 48.757 503.035 47.8157 504.113 47.147L502.531 44.598ZM499.502 50.1925C499.502 52.5149 500.438 54.4102 502.363 55.6218L503.961 53.0831C503.005 52.4814 502.502 51.6034 502.502 50.1925H499.502ZM502.418 55.6549C504.113 56.6238 506.27 57.306 508.825 57.7503L509.339 54.7947C506.987 54.3856 505.197 53.7879 503.906 53.0501L502.418 55.6549ZM508.829 57.7511L512.109 58.3111L512.614 55.3539L509.334 54.7939L508.829 57.7511ZM512.106 58.3105C514.799 58.7767 517.18 59.4194 519.257 60.2299L520.347 57.4351C518.051 56.5389 515.471 55.8483 512.618 55.3545L512.106 58.3105ZM519.297 60.2451C521.331 60.9713 522.848 62.0056 523.926 63.3088L526.237 61.3961C524.756 59.606 522.753 58.2937 520.306 57.4199L519.297 60.2451ZM523.946 63.3319C524.994 64.5481 525.582 66.2003 525.582 68.4325H528.582C528.582 65.6513 527.836 63.2502 526.218 61.3731L523.946 63.3319ZM525.582 68.4325C525.582 71.8364 524.338 74.3241 521.884 76.0965L523.64 78.5285C526.946 76.1409 528.582 72.7086 528.582 68.4325H525.582ZM521.873 76.1043C519.383 77.9362 515.918 78.9325 511.322 78.9325V81.9325C516.326 81.9325 520.487 80.8488 523.651 78.5207L521.873 76.1043ZM14.08 179.072L13.2387 180.314L13.2479 180.321L14.08 179.072ZM8.08 168.432L7.74841 166.97L6.39947 167.275L6.59508 168.645L8.08 168.432ZM14.08 167.072L15.5596 166.826L15.2983 165.258L13.7484 165.61L14.08 167.072ZM16.48 173.152L15.3005 174.079L15.3087 174.09L15.3171 174.1L16.48 173.152ZM20.8 176.273L20.2733 177.677L20.2993 177.687L20.3257 177.696L20.8 176.273ZM33.36 175.393L32.5102 174.156L33.36 175.393ZM33.44 166.432L32.7341 167.756L32.7601 167.77L32.7867 167.783L33.44 166.432ZM26.8 164.352L27.0781 162.879L27.0653 162.876L27.0524 162.874L26.8 164.352ZM23.52 163.792L23.7724 162.314L23.7717 162.314L23.52 163.792ZM16.64 161.792L17.2394 160.417H17.2394L16.64 161.792ZM11.68 158.113L12.8552 157.18L11.68 158.113ZM13.92 144.033L13.0392 142.818L13.92 144.033ZM35.44 144.113L34.5438 145.315L34.557 145.325L34.5704 145.335L35.44 144.113ZM40.8 152.512L41.173 153.965L42.577 153.605L42.2648 152.189L40.8 152.512ZM34.88 154.033L33.4012 154.284L33.6741 155.891L35.253 155.485L34.88 154.033ZM31.44 148.113L30.6251 149.372L30.6384 149.38L30.6518 149.389L31.44 148.113ZM18.4 147.872L19.191 149.147L19.2067 149.137L19.222 149.127L18.4 147.872ZM18.24 156.352L17.4408 157.622L17.4679 157.639L17.4958 157.655L18.24 156.352ZM24.16 158.272L23.903 159.75L23.9076 159.751L24.16 158.272ZM27.44 158.833L27.6958 157.354L27.6924 157.354L27.44 158.833ZM34.88 160.833L34.3347 162.23L34.355 162.238L34.3755 162.245L34.88 160.833ZM40.16 164.352L39.0044 165.309L39.014 165.32L39.0239 165.332L40.16 164.352ZM37.84 179.312L36.9617 178.096L36.951 178.104L37.84 179.312ZM26.4 180.932C21.7822 180.932 17.9796 179.869 14.9121 177.824L13.2479 180.321C16.9004 182.756 21.3112 183.932 26.4 183.932V180.932ZM14.9213 177.831C12.0423 175.88 10.2131 172.758 9.56492 168.22L6.59508 168.645C7.33353 173.814 9.50433 177.785 13.2387 180.314L14.9213 177.831ZM8.41159 169.895L14.4116 168.535L13.7484 165.61L7.74841 166.97L8.41159 169.895ZM12.6004 167.319C13.054 170.041 13.9251 172.329 15.3005 174.079L17.6595 172.226C16.6882 170.99 15.9593 169.224 15.5596 166.826L12.6004 167.319ZM15.3171 174.1C16.655 175.742 18.3129 176.942 20.2733 177.677L21.3267 174.868C19.8737 174.323 18.6517 173.443 17.6429 172.205L15.3171 174.1ZM20.3257 177.696C22.2481 178.336 24.2757 178.652 26.4 178.652V175.652C24.5776 175.652 22.8719 175.382 21.2743 174.849L20.3257 177.696ZM26.4 178.652C29.5152 178.652 32.1688 178.032 34.2098 176.629L32.5102 174.156C31.1379 175.1 29.1514 175.652 26.4 175.652V178.652ZM34.2098 176.629C36.2995 175.192 37.42 173.168 37.42 170.673H34.42C34.42 172.124 33.8338 173.246 32.5102 174.156L34.2098 176.629ZM37.42 170.673C37.42 169.456 37.171 168.32 36.5948 167.335C36.0133 166.341 35.1541 165.596 34.0933 165.082L32.7867 167.783C33.3792 168.069 33.76 168.431 34.0052 168.85C34.2557 169.278 34.42 169.863 34.42 170.673H37.42ZM34.1459 165.109C32.3569 164.155 29.9775 163.426 27.0781 162.879L26.5219 165.826C29.2759 166.346 31.3231 167.003 32.7341 167.756L34.1459 165.109ZM27.0524 162.874L23.7724 162.314L23.2676 165.271L26.5476 165.831L27.0524 162.874ZM23.7717 162.314C21.3705 161.905 19.1957 161.27 17.2394 160.417L16.0406 163.168C18.2443 164.128 20.6561 164.827 23.2683 165.271L23.7717 162.314ZM17.2394 160.417C15.3508 159.594 13.9077 158.507 12.8552 157.18L10.5048 159.045C11.9056 160.811 13.7692 162.177 16.0406 163.168L17.2394 160.417ZM12.8552 157.18C11.8767 155.947 11.34 154.347 11.34 152.273H8.34C8.34 154.891 9.02996 157.185 10.5048 159.045L12.8552 157.18ZM11.34 152.273C11.34 149.206 12.491 146.922 14.8008 145.247L13.0392 142.818C9.90897 145.089 8.34 148.299 8.34 152.273H11.34ZM14.8008 145.247C17.1916 143.512 20.4521 142.572 24.72 142.572V139.572C20.0279 139.572 16.0884 140.606 13.0392 142.818L14.8008 145.247ZM24.72 142.572C28.9222 142.572 32.1519 143.533 34.5438 145.315L36.3362 142.91C33.2881 140.639 29.3711 139.572 24.72 139.572V142.572ZM34.5704 145.335C37.0121 147.072 38.6074 149.536 39.3352 152.836L42.2648 152.189C41.3926 148.236 39.4146 145.1 36.3096 142.89L34.5704 145.335ZM40.427 151.06L34.507 152.58L35.253 155.485L41.173 153.965L40.427 151.06ZM36.3588 153.781C35.8328 150.684 34.5233 148.254 32.2282 146.836L30.6518 149.389C31.9834 150.211 32.9672 151.728 33.4012 154.284L36.3588 153.781ZM32.2549 146.853C30.1474 145.489 27.6078 144.852 24.72 144.852V147.852C27.1656 147.852 29.106 148.389 30.6251 149.372L32.2549 146.853ZM24.72 144.852C21.8841 144.852 19.4546 145.388 17.578 146.618L19.222 149.127C20.4387 148.33 22.2226 147.852 24.72 147.852V144.852ZM17.609 146.598C15.593 147.849 14.58 149.788 14.58 152.193H17.58C17.58 150.757 18.1136 149.816 19.191 149.147L17.609 146.598ZM14.58 152.193C14.58 154.515 15.5164 156.41 17.4408 157.622L19.0392 155.083C18.0836 154.481 17.58 153.603 17.58 152.193H14.58ZM17.4958 157.655C19.1914 158.624 21.3483 159.306 23.903 159.75L24.417 156.795C22.0651 156.386 20.2752 155.788 18.9842 155.05L17.4958 157.655ZM23.9076 159.751L27.1876 160.311L27.6924 157.354L24.4124 156.794L23.9076 159.751ZM27.1842 160.311C29.8774 160.777 32.2579 161.419 34.3347 162.23L35.4253 159.435C33.1288 158.539 30.5492 157.848 27.6958 157.354L27.1842 160.311ZM34.3755 162.245C36.4087 162.971 37.9259 164.006 39.0044 165.309L41.3156 163.396C39.8341 161.606 37.8313 160.294 35.3845 159.42L34.3755 162.245ZM39.0239 165.332C40.0723 166.548 40.66 168.2 40.66 170.432H43.66C43.66 167.651 42.9143 165.25 41.2961 163.373L39.0239 165.332ZM40.66 170.432C40.66 173.836 39.4158 176.324 36.9618 178.096L38.7182 180.529C42.0242 178.141 43.66 174.709 43.66 170.432H40.66ZM36.951 178.104C34.4616 179.936 30.9956 180.932 26.4 180.932V183.932C31.4044 183.932 35.5651 182.849 38.729 180.521L36.951 178.104ZM52.8275 181.312H51.3275V182.812H52.8275V181.312ZM52.8275 125.312V123.812H51.3275V125.312H52.8275ZM59.1475 125.312H60.6475V123.812H59.1475V125.312ZM59.1475 148.432H57.6475V149.932H59.1475V148.432ZM60.2675 148.432V149.932H61.2334L61.6331 149.053L60.2675 148.432ZM62.6675 145.152L63.7006 146.24L63.702 146.239L62.6675 145.152ZM66.9075 142.512L66.3577 141.117L66.3503 141.12L66.3429 141.123L66.9075 142.512ZM81.3875 143.393L80.6565 144.702L80.6744 144.712L80.6926 144.722L81.3875 143.393ZM86.9875 148.833L85.6887 149.583L85.6924 149.589L85.6961 149.596L86.9875 148.833ZM89.0675 181.312V182.812H90.5675V181.312H89.0675ZM82.7475 181.312H81.2475V182.812H82.7475V181.312ZM79.7875 149.632L78.7739 150.738L78.7814 150.745L78.7891 150.752L79.7875 149.632ZM62.6675 150.673L61.5952 149.624L61.5894 149.63L61.5835 149.636L62.6675 150.673ZM59.1475 181.312V182.812H60.6475V181.312H59.1475ZM54.3275 181.312V125.312H51.3275V181.312H54.3275ZM52.8275 126.812H59.1475V123.812H52.8275V126.812ZM57.6475 125.312V148.432H60.6475V125.312H57.6475ZM59.1475 149.932H60.2675V146.932H59.1475V149.932ZM61.6331 149.053C62.0761 148.078 62.7541 147.139 63.7006 146.24L61.6344 144.065C60.4476 145.192 59.5255 146.44 58.902 147.812L61.6331 149.053ZM63.702 146.239C64.6624 145.324 65.9071 144.538 67.4721 143.902L66.3429 141.123C64.4945 141.874 62.9126 142.848 61.633 144.066L63.702 146.239ZM67.4573 143.908C68.9863 143.306 70.9978 142.973 73.5475 142.973V139.973C70.7639 139.973 68.3487 140.333 66.3577 141.117L67.4573 143.908ZM73.5475 142.973C76.2554 142.973 78.6118 143.561 80.6565 144.702L82.1186 142.083C79.5765 140.664 76.7062 139.973 73.5475 139.973V142.973ZM80.6926 144.722C82.775 145.81 84.4374 147.417 85.6887 149.583L88.2863 148.082C86.7643 145.448 84.6933 143.428 82.0824 142.063L80.6926 144.722ZM85.6961 149.596C86.9119 151.653 87.5675 154.304 87.5675 157.633H90.5675C90.5675 153.921 89.8364 150.705 88.2789 148.069L85.6961 149.596ZM87.5675 157.633V181.312H90.5675V157.633H87.5675ZM89.0675 179.812H82.7475V182.812H89.0675V179.812ZM84.2475 181.312V158.113H81.2475V181.312H84.2475ZM84.2475 158.113C84.2475 153.996 83.2046 150.67 80.7859 148.513L78.7891 150.752C80.3171 152.115 81.2475 154.442 81.2475 158.113H84.2475ZM80.8011 148.527C78.5358 146.45 75.5245 145.492 71.9475 145.492V148.492C74.9838 148.492 77.1992 149.295 78.7739 150.738L80.8011 148.527ZM71.9475 145.492C67.8032 145.492 64.308 146.85 61.5952 149.624L63.7398 151.721C65.827 149.588 68.5184 148.492 71.9475 148.492V145.492ZM61.5835 149.636C58.8738 152.469 57.6475 156.559 57.6475 161.632H60.6475C60.6475 156.999 61.7679 153.783 63.7515 151.709L61.5835 149.636ZM57.6475 161.632V181.312H60.6475V161.632H57.6475ZM59.1475 179.812H52.8275V182.812H59.1475V179.812ZM101.89 181.312H100.39V182.812H101.89V181.312ZM101.89 142.193V140.693H100.39V142.193H101.89ZM108.21 142.193H109.71V140.693H108.21V142.193ZM108.21 181.312V182.812H109.71V181.312H108.21ZM101.57 134.753L100.509 135.813L100.524 135.828L100.54 135.843L101.57 134.753ZM101.57 127.792L100.54 126.702L100.524 126.717L100.509 126.732L101.57 127.792ZM103.39 181.312V142.193H100.39V181.312H103.39ZM101.89 143.693H108.21V140.693H101.89V143.693ZM106.71 142.193V181.312H109.71V142.193H106.71ZM108.21 179.812H101.89V182.812H108.21V179.812ZM105.09 134.613C104.065 134.613 103.266 134.291 102.6 133.662L100.54 135.843C101.794 137.027 103.342 137.613 105.09 137.613V134.613ZM102.631 133.692C102.03 133.091 101.71 132.337 101.71 131.312H98.71C98.71 133.061 99.297 134.601 100.509 135.813L102.631 133.692ZM101.71 131.312C101.71 130.217 102.041 129.443 102.631 128.853L100.509 126.732C99.2857 127.955 98.71 129.528 98.71 131.312H101.71ZM102.6 128.883C103.266 128.254 104.065 127.932 105.09 127.932V124.932C103.342 124.932 101.794 125.518 100.54 126.702L102.6 128.883ZM105.09 127.932C106.115 127.932 106.868 128.252 107.469 128.853L109.591 126.732C108.378 125.52 106.839 124.932 105.09 124.932V127.932ZM107.469 128.853C108.059 129.443 108.39 130.217 108.39 131.312H111.39C111.39 129.528 110.814 127.955 109.591 126.732L107.469 128.853ZM108.39 131.312C108.39 132.337 108.07 133.091 107.469 133.692L109.591 135.813C110.803 134.601 111.39 133.061 111.39 131.312H108.39ZM107.469 133.692C106.868 134.293 106.115 134.613 105.09 134.613V137.613C106.839 137.613 108.378 137.025 109.591 135.813L107.469 133.692ZM121.499 181.312H119.999V182.812H121.499V181.312ZM121.499 142.193V140.693H119.999V142.193H121.499ZM127.659 142.193H129.159V140.693H127.659V142.193ZM127.659 148.833H126.159V150.333H127.659V148.833ZM128.779 148.833V150.333H129.743L130.144 149.456L128.779 148.833ZM133.099 143.792L133.989 145L133.994 144.996L133.099 143.792ZM150.059 143.312L149.352 144.635L149.358 144.639L149.365 144.642L150.059 143.312ZM155.659 148.753L156.958 148.002L155.659 148.753ZM157.739 181.312V182.812H159.239V181.312H157.739ZM151.419 181.312H149.919V182.812H151.419V181.312ZM148.459 149.632L147.446 150.738L147.453 150.745L147.461 150.752L148.459 149.632ZM131.339 150.673L130.267 149.624L130.261 149.63L130.255 149.636L131.339 150.673ZM127.819 181.312V182.812H129.319V181.312H127.819ZM122.999 181.312V142.193H119.999V181.312H122.999ZM121.499 143.693H127.659V140.693H121.499V143.693ZM126.159 142.193V148.833H129.159V142.193H126.159ZM127.659 150.333H128.779V147.333H127.659V150.333ZM130.144 149.456C130.869 147.868 132.122 146.376 133.989 145L132.21 142.585C130.024 144.195 128.396 146.063 127.415 148.209L130.144 149.456ZM133.994 144.996C135.709 143.721 138.377 142.973 142.219 142.973V139.973C138.061 139.973 134.65 140.771 132.204 142.589L133.994 144.996ZM142.219 142.973C144.938 142.973 147.303 143.539 149.352 144.635L150.767 141.99C148.229 140.633 145.368 139.973 142.219 139.973V142.973ZM149.365 144.642C151.447 145.73 153.109 147.337 154.361 149.503L156.958 148.002C155.436 145.368 153.365 143.348 150.754 141.983L149.365 144.642ZM154.361 149.503C155.584 151.621 156.239 154.306 156.239 157.633H159.239C159.239 153.919 158.508 150.684 156.958 148.002L154.361 149.503ZM156.239 157.633V181.312H159.239V157.633H156.239ZM157.739 179.812H151.419V182.812H157.739V179.812ZM152.919 181.312V158.113H149.919V181.312H152.919ZM152.919 158.113C152.919 153.996 151.876 150.67 149.458 148.513L147.461 150.752C148.989 152.115 149.919 154.442 149.919 158.113H152.919ZM149.473 148.527C147.208 146.45 144.196 145.492 140.619 145.492V148.492C143.656 148.492 145.871 149.295 147.446 150.738L149.473 148.527ZM140.619 145.492C136.475 145.492 132.98 146.85 130.267 149.624L132.412 151.721C134.499 149.588 137.19 148.492 140.619 148.492V145.492ZM130.255 149.636C127.546 152.469 126.319 156.559 126.319 161.632H129.319C129.319 156.999 130.44 153.783 132.423 151.709L130.255 149.636ZM126.319 161.632V181.312H129.319V161.632H126.319ZM127.819 179.812H121.499V182.812H127.819V179.812ZM178.082 179.952L177.338 181.255L177.346 181.26L177.355 181.265L178.082 179.952ZM171.122 172.833L172.44 172.116L171.122 172.833ZM171.122 150.673L169.804 149.956L171.122 150.673ZM178.002 143.632L178.738 144.939L178.747 144.934L178.756 144.929L178.002 143.632ZM197.842 143.473L197.103 144.778L197.112 144.783L197.122 144.788L197.842 143.473ZM204.482 150.193L205.799 149.474L204.482 150.193ZM206.882 163.393V164.893H208.382V163.393H206.882ZM174.962 163.393V161.893H173.404L173.463 163.449L174.962 163.393ZM179.042 173.312L178.016 174.407L178.022 174.413L178.028 174.418L179.042 173.312ZM196.402 174.512L197.375 175.654L196.402 174.512ZM200.562 168.992L201.217 167.643L199.828 166.969L199.194 168.377L200.562 168.992ZM206.002 171.632L207.352 172.286L208.005 170.937L206.657 170.283L206.002 171.632ZM202.642 176.592L201.511 175.607L201.502 175.618L201.493 175.629L202.642 176.592ZM197.122 180.753L196.464 179.405L196.451 179.411L197.122 180.753ZM175.042 158.193L173.558 157.974L173.305 159.693H175.042V158.193ZM200.482 158.193V159.693H202.073L201.979 158.104L200.482 158.193ZM196.722 149.712L195.715 150.825L195.722 150.831L195.729 150.836L196.722 149.712ZM179.282 149.712L180.275 150.836L179.282 149.712ZM188.482 180.932C184.749 180.932 181.54 180.152 178.808 178.64L177.355 181.265C180.597 183.059 184.321 183.932 188.482 183.932V180.932ZM178.826 178.65C176.083 177.083 173.961 174.913 172.44 172.116L169.804 173.549C171.59 176.832 174.108 179.409 177.338 181.255L178.826 178.65ZM172.44 172.116C170.923 169.328 170.142 166.061 170.142 162.273H167.142C167.142 166.484 168.014 170.257 169.804 173.549L172.44 172.116ZM170.142 162.273V161.312H167.142V162.273H170.142ZM170.142 161.312C170.142 157.466 170.925 154.174 172.44 151.389L169.804 149.956C168.012 153.251 167.142 157.052 167.142 161.312H170.142ZM172.44 151.389C173.962 148.589 176.057 146.45 178.738 144.939L177.265 142.326C174.08 144.121 171.588 146.676 169.804 149.956L172.44 151.389ZM178.756 144.929C181.435 143.371 184.529 142.572 188.082 142.572V139.572C184.062 139.572 180.436 140.481 177.248 142.336L178.756 144.929ZM188.082 142.572C191.538 142.572 194.53 143.322 197.103 144.778L198.581 142.167C195.5 140.423 191.986 139.572 188.082 139.572V142.572ZM197.122 144.788C199.687 146.192 201.697 148.22 203.165 150.911L205.799 149.474C204.066 146.298 201.65 143.846 198.562 142.157L197.122 144.788ZM203.165 150.911C204.625 153.587 205.382 156.771 205.382 160.512H208.382C208.382 156.36 207.539 152.665 205.799 149.474L203.165 150.911ZM205.382 160.512V163.393H208.382V160.512H205.382ZM206.882 161.893H174.962V164.893H206.882V161.893ZM173.463 163.449C173.635 167.972 175.111 171.684 178.016 174.407L180.068 172.218C177.852 170.141 176.609 167.239 176.461 163.336L173.463 163.449ZM178.028 174.418C180.895 177.046 184.47 178.333 188.642 178.333V175.333C185.134 175.333 182.309 174.272 180.055 172.207L178.028 174.418ZM188.642 178.333C192.214 178.333 195.198 177.511 197.375 175.654L195.428 173.371C193.979 174.607 191.79 175.333 188.642 175.333V178.333ZM197.375 175.654C199.354 173.966 200.877 171.948 201.93 169.608L199.194 168.377C198.327 170.304 197.076 171.966 195.428 173.371L197.375 175.654ZM199.907 170.342L205.347 172.982L206.657 170.283L201.217 167.643L199.907 170.342ZM204.652 170.979C203.92 172.492 202.88 174.036 201.511 175.607L203.773 177.578C205.284 175.843 206.484 174.08 207.352 172.286L204.652 170.979ZM201.493 175.629C200.263 177.094 198.602 178.36 196.464 179.405L197.78 182.1C200.228 180.905 202.247 179.397 203.791 177.556L201.493 175.629ZM196.451 179.411C194.486 180.393 191.858 180.932 188.482 180.932V183.932C192.146 183.932 195.277 183.352 197.793 182.094L196.451 179.411ZM175.042 159.693H200.482V156.693H175.042V159.693ZM201.979 158.104C201.747 154.159 200.363 150.928 197.715 148.589L195.729 150.836C197.667 152.55 198.79 154.972 198.984 158.281L201.979 158.104ZM197.728 148.6C195.168 146.283 191.908 145.173 188.082 145.173V148.173C191.295 148.173 193.796 149.088 195.715 150.825L197.728 148.6ZM188.082 145.173C184.208 145.173 180.901 146.28 178.289 148.589L180.275 150.836C182.249 149.092 184.809 148.173 188.082 148.173V145.173ZM178.289 148.589C175.68 150.894 174.132 154.07 173.558 157.974L176.526 158.411C177.018 155.062 178.297 152.584 180.275 150.836L178.289 148.589Z" fill="black"/>
<defs>
<filter id="filter0_d_3_23" x="543" y="6" width="94.0112" height="96.0112" filterUnits="userSpaceOnUse" color-interpolation-filters="sRGB">
<feFlood flood-opacity="0" result="BackgroundImageFix"/>
<feColorMatrix in="SourceAlpha" type="matrix" values="0 0 0 0 0 0 0 0 0 0 0 0 0 0 0 0 0 0 127 0" result="hardAlpha"/>
<feOffset dx="2" dy="4"/>
<feComposite in2="hardAlpha" operator="out"/>
<feColorMatrix type="matrix" values="0 0 0 0 0 0 0 0 0 0 0 0 0 0 0 0 0 0 1 0"/>
<feBlend mode="normal" in2="BackgroundImageFix" result="effect1_dropShadow_3_23"/>
<feBlend mode="normal" in="SourceGraphic" in2="effect1_dropShadow_3_23" result="shape"/>
</filter>
</defs>
</svg>
