<svg width="205" height="220" viewBox="0 0 205 220" fill="none" xmlns="http://www.w3.org/2000/svg">
<g filter="url(#filter0_d_3_17)">
<rect width="143.482" height="149.353" transform="translate(122.359 0.121582) rotate(55.0113)" fill="#F3ABCB"/>
<g filter="url(#filter1_d_3_17)">
<path d="M155.926 51.0764C153.862 51.7057 153.901 51.6783 136.474 67.1378C129.414 73.3606 123.44 78.4734 123.241 78.4382C123.042 78.403 122.565 74.3101 122.241 69.3534C121.577 59.9168 120.643 54.3385 119.533 52.6693C118.219 50.7928 116.601 50.6442 114.451 52.1491C112.184 53.736 110.761 55.7804 104.028 67.132C98.5083 76.4705 97.0814 78.3428 95.725 78.0691C93.9698 77.725 90.9717 75.1058 76.2509 61.0635C68.2416 53.4481 60.889 46.771 59.8844 46.251C56.6126 44.4057 54.8573 46.9739 56.1196 51.8564C56.4948 53.2246 59.0549 59.878 61.8026 66.6331C69.4399 85.2838 73.2857 97.2693 71.9175 98.2269C71.6047 98.4458 68.9661 98.2541 65.9913 97.8318C55.3001 96.2871 48.2833 95.6651 47.0363 96.1302C46.0785 96.5093 45.7697 96.9002 45.6875 97.9479C45.5936 99.062 45.8125 99.3747 47.3096 100.598C48.2791 101.318 53.99 104.484 59.9903 107.565C65.9906 110.646 71.299 113.57 71.7993 114.035C73.312 115.364 73.0149 116.271 70.6224 118.179C69.4262 119.133 63.2339 123.933 56.8462 128.869C41.9128 140.486 39.8174 142.652 41.377 144.88C43.1829 147.46 48.5775 146.597 70.0348 140.14C79.1861 137.404 87.0787 135.2 87.5439 135.282C88.2475 135.372 88.2866 135.927 87.7665 138.097C86.398 143.714 83.8836 158.345 84.0477 159.745C84.4658 163.005 86.4907 163.568 89.1099 161.152C89.8996 160.367 93.9966 155.402 98.2696 150.024C102.503 144.673 106.057 140.263 106.19 140.287C106.323 140.31 107.405 143.105 108.566 146.428C111.408 154.399 116.731 166.748 119.194 170.849C120.957 173.867 121.242 174.191 122.45 174.336C125.237 174.657 125.577 173.312 128.494 152.516C129.554 144.959 130.696 138.685 130.985 138.599C131.275 138.513 134.253 139.69 137.545 141.231C145.812 145.054 151.187 146.825 153.415 146.431C155.182 146.126 155.26 146.071 155.495 144.742C155.863 142.854 152.951 137.612 148.272 131.509C146.267 128.894 144.625 126.549 144.699 126.322C144.707 126.083 148.342 126.451 152.701 127.186C165.362 129.216 176.839 130.385 180.416 129.92C183.215 129.592 184.353 127.806 183.012 125.89C182.438 125.069 173.189 120.01 159.996 113.227C154.719 110.514 150.404 108.176 150.372 107.965C150.341 107.754 154.418 104.842 159.387 101.539C169.688 94.6205 171.267 93.0492 170.204 91.1141C169.43 89.6755 168.809 89.7029 156.941 91.1368C146.71 92.4145 142.919 92.7387 142.618 92.3087C142.508 92.1523 143.134 90.5497 144.017 88.6499C144.889 86.8166 146.859 82.6418 148.427 79.3895C153.279 69.1793 157.826 58.367 158.502 55.5056C159.038 53.4416 159.003 52.4761 158.428 51.6551C157.772 50.7169 157.373 50.6465 155.926 51.0764ZM154.726 58.2652C152.736 63.3273 146.508 77.0635 142.95 84.213C139.948 90.1586 139.033 93.0121 139.826 94.1458C140.757 95.475 145.377 95.5026 154.892 94.2014C160.185 93.5255 165.017 92.9394 165.626 92.9785C166.58 93.0098 166.596 93.1154 165.4 94.0691C164.684 94.6281 160.138 97.8684 155.318 101.3L146.522 107.457L147.143 108.594C147.612 109.431 152.119 112.042 163.44 117.981C172.067 122.485 179.263 126.359 179.427 126.594C179.592 126.828 179.611 127.106 179.455 127.215C178.712 127.735 160.848 125.678 151.638 124.086C146.056 123.101 141.302 122.467 140.99 122.686C139.66 123.616 140.118 124.519 146.685 133.902C150.269 139.023 153.095 143.393 152.982 143.647C152.544 144.769 146.633 142.732 137.478 138.307C131.99 135.625 130.063 135.284 128.722 136.864C128.128 137.513 127.053 143.216 125.418 154.028C124.124 162.914 122.888 170.302 122.692 170.438C121.793 171.068 119.077 165.106 113.296 150.107C107.726 135.658 107.644 135.541 105.064 137.347C104.361 137.84 101.64 141.025 99.0556 144.407C92.5387 152.987 87.394 159.034 87.0656 158.565C86.6552 157.978 87.7619 151.321 89.6778 142.991C91.6797 134.368 91.7189 133.175 90.3664 132.491C88.8536 131.744 86.3244 132.292 72.5212 136.536C53.7221 142.297 45.0985 144.372 44.305 143.238C43.7851 142.496 47.0455 139.748 63.0226 127.459C70.0358 122.084 74.856 118.07 75.2899 117.358C77.0492 114.38 74.3247 111.569 65.2324 106.983C55.4835 102.041 50.8592 99.5118 50.9295 99.1131C50.9726 98.6753 53.4001 98.8982 63.0555 100.294C71.4482 101.468 73.7897 101.401 74.5247 99.9549C76.1706 96.6479 73.4895 87.5748 63.7104 63.201C59.8253 53.5727 58.5903 49.8942 59.0985 49.5385C59.5285 49.2375 59.6106 49.3548 74.304 63.358C88.7278 77.1423 91.1864 79.3237 93.7859 80.7077C97.6714 82.7641 99.2273 81.3256 107.019 68.2423C112.985 58.126 115.33 54.7369 116.437 54.4868C117.66 54.1546 118.371 58.0833 119.242 70.2289C119.988 80.9476 120.368 83.0703 121.411 82.9804C121.65 82.9883 122.69 82.1439 123.726 81.1276C127.314 77.6839 153.784 55.2551 155.469 54.2506C156.345 53.7542 156.262 54.2194 154.726 58.2652Z" fill="black"/>
</g>
<g filter="url(#filter2_d_3_17)">
<path d="M128.819 93.8128C123.378 89.1177 113.985 85.8491 106.577 86.0833C102.848 86.2472 97.2969 87.8027 93.5832 89.8196C83.1065 95.4051 81.2332 109.704 89.7037 119.56C98.3226 129.544 114.873 133.802 124.936 128.623C133.008 124.429 137.86 115.384 136.527 106.823C136.062 103.828 135.672 102.937 133.463 99.5321C131.845 97.0536 130.156 94.9739 128.819 93.8128ZM133.334 107.253C133.861 110.669 132.954 115.614 131.136 118.925C129.748 121.352 129.244 121.88 125.53 124.479C121.777 127.106 121.148 127.372 118.286 127.86C114.659 128.419 107.951 127.406 103.342 125.565C87.1784 119.114 81.9647 101.679 93.6924 93.4707C98.7744 89.9137 107.292 87.8541 112.742 88.8161C115.627 89.3596 122.925 93.0463 125.891 95.4545C129.062 98.0698 132.837 104.047 133.334 107.253Z" fill="black"/>
</g>
<path d="M119.533 108.174C118.74 107.623 117.102 108.944 117.219 110.027C117.45 112.021 120.217 112.064 120.569 110.07C120.722 109.206 120.46 108.749 119.533 108.174Z" fill="black"/>
<path d="M105.059 99.7262C103.663 100.062 103.092 101.161 103.714 102.298C104.406 103.62 106.161 103.381 106.552 101.943C106.857 100.797 105.954 99.5073 105.059 99.7262Z" fill="black"/>
<path d="M107.615 116.109C105.16 118.177 104.558 118.482 103.339 118.403C102.119 118.325 101.849 118.106 101.56 117.027C101.294 115.815 101.767 113.329 102.663 111.363C103.003 110.601 102.921 110.484 102.178 110.421C100.865 110.292 99.1287 113.72 99.2615 116.073C99.4684 119.947 102.514 121.718 106.063 120.049C107.752 119.217 110.352 116.523 110.758 115.191C111.212 113.592 110.344 113.85 107.615 116.109Z" fill="black"/>
</g>
<defs>
<filter id="filter0_d_3_17" x="0" y="0.121582" width="204.634" height="219.191" filterUnits="userSpaceOnUse" color-interpolation-filters="sRGB">
<feFlood flood-opacity="0" result="BackgroundImageFix"/>
<feColorMatrix in="SourceAlpha" type="matrix" values="0 0 0 0 0 0 0 0 0 0 0 0 0 0 0 0 0 0 127 0" result="hardAlpha"/>
<feOffset dy="16"/>
<feComposite in2="hardAlpha" operator="out"/>
<feColorMatrix type="matrix" values="0 0 0 0 0 0 0 0 0 0 0 0 0 0 0 0 0 0 0.25 0"/>
<feBlend mode="normal" in2="BackgroundImageFix" result="effect1_dropShadow_3_17"/>
<feBlend mode="normal" in="SourceGraphic" in2="effect1_dropShadow_3_17" result="shape"/>
</filter>
<filter id="filter1_d_3_17" x="40.9432" y="45.6516" width="142.63" height="132.721" filterUnits="userSpaceOnUse" color-interpolation-filters="sRGB">
<feFlood flood-opacity="0" result="BackgroundImageFix"/>
<feColorMatrix in="SourceAlpha" type="matrix" values="0 0 0 0 0 0 0 0 0 0 0 0 0 0 0 0 0 0 127 0" result="hardAlpha"/>
<feOffset dy="4"/>
<feComposite in2="hardAlpha" operator="out"/>
<feColorMatrix type="matrix" values="0 0 0 0 0 0 0 0 0 0 0 0 0 0 0 0 0 0 0.25 0"/>
<feBlend mode="normal" in2="BackgroundImageFix" result="effect1_dropShadow_3_17"/>
<feBlend mode="normal" in="SourceGraphic" in2="effect1_dropShadow_3_17" result="shape"/>
</filter>
<filter id="filter2_d_3_17" x="84.3752" y="86.0715" width="52.3713" height="48.7668" filterUnits="userSpaceOnUse" color-interpolation-filters="sRGB">
<feFlood flood-opacity="0" result="BackgroundImageFix"/>
<feColorMatrix in="SourceAlpha" type="matrix" values="0 0 0 0 0 0 0 0 0 0 0 0 0 0 0 0 0 0 127 0" result="hardAlpha"/>
<feOffset dy="4"/>
<feComposite in2="hardAlpha" operator="out"/>
<feColorMatrix type="matrix" values="0 0 0 0 0 0 0 0 0 0 0 0 0 0 0 0 0 0 0.25 0"/>
<feBlend mode="normal" in2="BackgroundImageFix" result="effect1_dropShadow_3_17"/>
<feBlend mode="normal" in="SourceGraphic" in2="effect1_dropShadow_3_17" result="shape"/>
</filter>
</defs>
</svg>
