<svg width="1554" height="2771" viewBox="0 0 1554 2771" fill="none" xmlns="http://www.w3.org/2000/svg">
<rect width="1440" height="2766" transform="translate(64 5)" fill="#FEFFF0"/>
<line x1="60" y1="3" x2="1508" y2="3" stroke="black" stroke-width="6"/>
<line x1="55" y1="2566" x2="1503" y2="2566" stroke="black" stroke-width="6"/>
<path d="M449.978 2688.91C451.574 2688.91 452.882 2687.73 453.104 2686.07C455.299 2671.26 457.317 2669.19 471.551 2667.58C473.192 2667.38 474.456 2666 474.456 2664.41C474.456 2662.79 473.214 2661.46 471.573 2661.21C457.428 2659.24 455.676 2657.51 453.104 2642.72C452.816 2641.08 451.552 2639.91 449.978 2639.91C448.359 2639.91 447.073 2641.08 446.807 2642.74C444.657 2657.53 442.639 2659.59 428.427 2661.21C426.742 2661.43 425.5 2662.77 425.5 2664.41C425.5 2666 426.697 2667.33 428.382 2667.58C442.55 2669.59 444.28 2671.3 446.807 2686.09C447.14 2687.75 448.426 2688.91 449.978 2688.91Z" fill="#0C0C0C"/>
<mask id="path-4-outside-1_24_398" maskUnits="userSpaceOnUse" x="491.456" y="2650.41" width="101" height="34" fill="black">
<rect fill="white" x="491.456" y="2650.41" width="101" height="34"/>
<path d="M492.336 2676.41V2651.21H495.36V2676.41H492.336ZM508.685 2676.91C507.173 2676.91 505.781 2676.55 504.509 2675.83C503.237 2675.11 502.229 2674.07 501.485 2672.7C500.741 2671.33 500.369 2669.71 500.369 2667.84V2667.37C500.369 2665.5 500.741 2663.89 501.485 2662.55C502.229 2661.18 503.225 2660.13 504.473 2659.41C505.745 2658.67 507.149 2658.3 508.685 2658.3C509.909 2658.3 510.941 2658.47 511.781 2658.8C512.645 2659.11 513.341 2659.52 513.869 2660.03C514.397 2660.51 514.805 2661.02 515.093 2661.57H515.597V2651.21H518.441V2676.41H515.669V2673.49H515.165C514.685 2674.38 513.941 2675.17 512.933 2675.87C511.925 2676.56 510.509 2676.91 508.685 2676.91ZM509.441 2674.39C511.265 2674.39 512.741 2673.81 513.869 2672.66C515.021 2671.49 515.597 2669.85 515.597 2667.77V2667.44C515.597 2665.35 515.021 2663.73 513.869 2662.58C512.741 2661.41 511.265 2660.82 509.441 2660.82C507.641 2660.82 506.153 2661.41 504.977 2662.58C503.825 2663.73 503.249 2665.35 503.249 2667.44V2667.77C503.249 2669.85 503.825 2671.49 504.977 2672.66C506.153 2673.81 507.641 2674.39 509.441 2674.39ZM532.465 2676.91C530.689 2676.91 529.129 2676.54 527.785 2675.79C526.441 2675.03 525.397 2673.96 524.653 2672.59C523.909 2671.22 523.537 2669.64 523.537 2667.84V2667.41C523.537 2665.58 523.909 2663.99 524.653 2662.62C525.397 2661.25 526.429 2660.19 527.749 2659.45C529.069 2658.68 530.581 2658.3 532.285 2658.3C533.941 2658.3 535.405 2658.66 536.677 2659.38C537.949 2660.07 538.945 2661.08 539.665 2662.4C540.385 2663.72 540.745 2665.27 540.745 2667.05V2668.34H526.381C526.453 2670.24 527.065 2671.73 528.217 2672.81C529.369 2673.86 530.809 2674.39 532.537 2674.39C534.049 2674.39 535.213 2674.04 536.029 2673.35C536.845 2672.65 537.469 2671.82 537.901 2670.86L540.349 2672.05C539.989 2672.79 539.485 2673.54 538.837 2674.28C538.213 2675.03 537.385 2675.65 536.353 2676.15C535.345 2676.66 534.049 2676.91 532.465 2676.91ZM526.417 2666H537.865C537.769 2664.37 537.205 2663.1 536.173 2662.19C535.165 2661.27 533.869 2660.82 532.285 2660.82C530.677 2660.82 529.357 2661.27 528.325 2662.19C527.293 2663.1 526.657 2664.37 526.417 2666ZM551.105 2676.91C549.881 2676.91 548.765 2676.69 547.757 2676.26C546.749 2675.83 545.957 2675.21 545.381 2674.39C544.805 2673.57 544.517 2672.58 544.517 2671.4C544.517 2670.2 544.805 2669.22 545.381 2668.45C545.957 2667.66 546.749 2667.07 547.757 2666.69C548.765 2666.28 549.893 2666.07 551.141 2666.07H557.081V2664.78C557.081 2663.53 556.709 2662.55 555.965 2661.83C555.245 2661.11 554.165 2660.75 552.725 2660.75C551.309 2660.75 550.205 2661.09 549.413 2661.79C548.621 2662.46 548.081 2663.37 547.793 2664.53L545.129 2663.66C545.417 2662.68 545.873 2661.79 546.497 2661C547.121 2660.18 547.949 2659.53 548.981 2659.05C550.037 2658.55 551.297 2658.3 552.761 2658.3C555.017 2658.3 556.769 2658.89 558.017 2660.06C559.265 2661.21 559.889 2662.85 559.889 2664.96V2672.91C559.889 2673.63 560.225 2673.99 560.897 2673.99H562.517V2676.41H560.033C559.241 2676.41 558.605 2676.19 558.125 2675.76C557.645 2675.3 557.405 2674.7 557.405 2673.96V2673.78H556.973C556.709 2674.23 556.349 2674.71 555.893 2675.22C555.461 2675.7 554.861 2676.09 554.093 2676.41C553.325 2676.74 552.329 2676.91 551.105 2676.91ZM551.429 2674.46C553.109 2674.46 554.465 2673.97 555.497 2672.99C556.553 2671.98 557.081 2670.57 557.081 2668.77V2668.38H551.249C550.121 2668.38 549.185 2668.63 548.441 2669.13C547.721 2669.61 547.361 2670.35 547.361 2671.33C547.361 2672.31 547.733 2673.08 548.477 2673.63C549.245 2674.19 550.229 2674.46 551.429 2674.46ZM566.412 2676.41V2651.21H569.256V2676.41H566.412ZM577.361 2683.61V2681.09H587.441C588.137 2681.09 588.485 2680.73 588.485 2680.01V2673.6H587.981C587.741 2674.1 587.369 2674.61 586.865 2675.11C586.385 2675.59 585.749 2675.99 584.957 2676.3C584.165 2676.59 583.169 2676.73 581.969 2676.73C580.697 2676.73 579.521 2676.45 578.441 2675.9C577.385 2675.35 576.545 2674.53 575.921 2673.45C575.321 2672.37 575.021 2671.05 575.021 2669.49V2658.8H577.865V2669.28C577.865 2671.01 578.297 2672.27 579.161 2673.06C580.049 2673.85 581.237 2674.25 582.725 2674.25C584.405 2674.25 585.785 2673.69 586.865 2672.59C587.945 2671.49 588.485 2669.84 588.485 2667.66V2658.8H591.329V2680.51C591.329 2681.47 591.053 2682.23 590.501 2682.78C589.973 2683.33 589.193 2683.61 588.161 2683.61H577.361Z"/>
</mask>
<path d="M492.336 2676.41V2651.21H495.36V2676.41H492.336ZM508.685 2676.91C507.173 2676.91 505.781 2676.55 504.509 2675.83C503.237 2675.11 502.229 2674.07 501.485 2672.7C500.741 2671.33 500.369 2669.71 500.369 2667.84V2667.37C500.369 2665.5 500.741 2663.89 501.485 2662.55C502.229 2661.18 503.225 2660.13 504.473 2659.41C505.745 2658.67 507.149 2658.3 508.685 2658.3C509.909 2658.3 510.941 2658.47 511.781 2658.8C512.645 2659.11 513.341 2659.52 513.869 2660.03C514.397 2660.51 514.805 2661.02 515.093 2661.57H515.597V2651.21H518.441V2676.41H515.669V2673.49H515.165C514.685 2674.38 513.941 2675.17 512.933 2675.87C511.925 2676.56 510.509 2676.91 508.685 2676.91ZM509.441 2674.39C511.265 2674.39 512.741 2673.81 513.869 2672.66C515.021 2671.49 515.597 2669.85 515.597 2667.77V2667.44C515.597 2665.35 515.021 2663.73 513.869 2662.58C512.741 2661.41 511.265 2660.82 509.441 2660.82C507.641 2660.82 506.153 2661.41 504.977 2662.58C503.825 2663.73 503.249 2665.35 503.249 2667.44V2667.77C503.249 2669.85 503.825 2671.49 504.977 2672.66C506.153 2673.81 507.641 2674.39 509.441 2674.39ZM532.465 2676.91C530.689 2676.91 529.129 2676.54 527.785 2675.79C526.441 2675.03 525.397 2673.96 524.653 2672.59C523.909 2671.22 523.537 2669.64 523.537 2667.84V2667.41C523.537 2665.58 523.909 2663.99 524.653 2662.62C525.397 2661.25 526.429 2660.19 527.749 2659.45C529.069 2658.68 530.581 2658.3 532.285 2658.3C533.941 2658.3 535.405 2658.66 536.677 2659.38C537.949 2660.07 538.945 2661.08 539.665 2662.4C540.385 2663.72 540.745 2665.27 540.745 2667.05V2668.34H526.381C526.453 2670.24 527.065 2671.73 528.217 2672.81C529.369 2673.86 530.809 2674.39 532.537 2674.39C534.049 2674.39 535.213 2674.04 536.029 2673.35C536.845 2672.65 537.469 2671.82 537.901 2670.86L540.349 2672.05C539.989 2672.79 539.485 2673.54 538.837 2674.28C538.213 2675.03 537.385 2675.65 536.353 2676.15C535.345 2676.66 534.049 2676.91 532.465 2676.91ZM526.417 2666H537.865C537.769 2664.37 537.205 2663.1 536.173 2662.19C535.165 2661.27 533.869 2660.82 532.285 2660.82C530.677 2660.82 529.357 2661.27 528.325 2662.19C527.293 2663.1 526.657 2664.37 526.417 2666ZM551.105 2676.91C549.881 2676.91 548.765 2676.69 547.757 2676.26C546.749 2675.83 545.957 2675.21 545.381 2674.39C544.805 2673.57 544.517 2672.58 544.517 2671.4C544.517 2670.2 544.805 2669.22 545.381 2668.45C545.957 2667.66 546.749 2667.07 547.757 2666.69C548.765 2666.28 549.893 2666.07 551.141 2666.07H557.081V2664.78C557.081 2663.53 556.709 2662.55 555.965 2661.83C555.245 2661.11 554.165 2660.75 552.725 2660.75C551.309 2660.75 550.205 2661.09 549.413 2661.79C548.621 2662.46 548.081 2663.37 547.793 2664.53L545.129 2663.66C545.417 2662.68 545.873 2661.79 546.497 2661C547.121 2660.18 547.949 2659.53 548.981 2659.05C550.037 2658.55 551.297 2658.3 552.761 2658.3C555.017 2658.3 556.769 2658.89 558.017 2660.06C559.265 2661.21 559.889 2662.85 559.889 2664.96V2672.91C559.889 2673.63 560.225 2673.99 560.897 2673.99H562.517V2676.41H560.033C559.241 2676.41 558.605 2676.19 558.125 2675.76C557.645 2675.3 557.405 2674.7 557.405 2673.96V2673.78H556.973C556.709 2674.23 556.349 2674.71 555.893 2675.22C555.461 2675.7 554.861 2676.09 554.093 2676.41C553.325 2676.74 552.329 2676.91 551.105 2676.91ZM551.429 2674.46C553.109 2674.46 554.465 2673.97 555.497 2672.99C556.553 2671.98 557.081 2670.57 557.081 2668.77V2668.38H551.249C550.121 2668.38 549.185 2668.63 548.441 2669.13C547.721 2669.61 547.361 2670.35 547.361 2671.33C547.361 2672.31 547.733 2673.08 548.477 2673.63C549.245 2674.19 550.229 2674.46 551.429 2674.46ZM566.412 2676.41V2651.21H569.256V2676.41H566.412ZM577.361 2683.61V2681.09H587.441C588.137 2681.09 588.485 2680.73 588.485 2680.01V2673.6H587.981C587.741 2674.1 587.369 2674.61 586.865 2675.11C586.385 2675.59 585.749 2675.99 584.957 2676.3C584.165 2676.59 583.169 2676.73 581.969 2676.73C580.697 2676.73 579.521 2676.45 578.441 2675.9C577.385 2675.35 576.545 2674.53 575.921 2673.45C575.321 2672.37 575.021 2671.05 575.021 2669.49V2658.8H577.865V2669.28C577.865 2671.01 578.297 2672.27 579.161 2673.06C580.049 2673.85 581.237 2674.25 582.725 2674.25C584.405 2674.25 585.785 2673.69 586.865 2672.59C587.945 2671.49 588.485 2669.84 588.485 2667.66V2658.8H591.329V2680.51C591.329 2681.47 591.053 2682.23 590.501 2682.78C589.973 2683.33 589.193 2683.61 588.161 2683.61H577.361Z" fill="#0C0C0C"/>
<path d="M492.336 2676.41H491.836V2676.91H492.336V2676.41ZM492.336 2651.21V2650.71H491.836V2651.21H492.336ZM495.36 2651.21H495.86V2650.71H495.36V2651.21ZM495.36 2676.41V2676.91H495.86V2676.41H495.36ZM492.836 2676.41V2651.21H491.836V2676.41H492.836ZM492.336 2651.71H495.36V2650.71H492.336V2651.71ZM494.86 2651.21V2676.41H495.86V2651.21H494.86ZM495.36 2675.91H492.336V2676.91H495.36V2675.91ZM504.509 2675.83L504.262 2676.26L504.262 2676.26L504.509 2675.83ZM501.485 2672.7L501.045 2672.94L501.045 2672.94L501.485 2672.7ZM501.485 2662.55L501.922 2662.79L501.924 2662.78L501.485 2662.55ZM504.473 2659.41L504.723 2659.85L504.725 2659.85L504.473 2659.41ZM511.781 2658.8L511.595 2659.27L511.603 2659.27L511.611 2659.27L511.781 2658.8ZM513.869 2660.03L513.523 2660.39L513.532 2660.4L513.869 2660.03ZM515.093 2661.57L514.649 2661.81L514.79 2662.07H515.093V2661.57ZM515.597 2661.57V2662.07H516.097V2661.57H515.597ZM515.597 2651.21V2650.71H515.097V2651.21H515.597ZM518.441 2651.21H518.941V2650.71H518.441V2651.21ZM518.441 2676.41V2676.91H518.941V2676.41H518.441ZM515.669 2676.41H515.169V2676.91H515.669V2676.41ZM515.669 2673.49H516.169V2672.99H515.669V2673.49ZM515.165 2673.49V2672.99H514.867L514.725 2673.25L515.165 2673.49ZM512.933 2675.87L513.217 2676.28L513.217 2676.28L512.933 2675.87ZM513.869 2672.66L513.512 2672.31L513.511 2672.31L513.869 2672.66ZM513.869 2662.58L513.508 2662.93L513.515 2662.94L513.869 2662.58ZM504.977 2662.58L505.33 2662.94L505.33 2662.94L504.977 2662.58ZM504.977 2672.66L504.619 2673.01L504.627 2673.02L504.977 2672.66ZM508.685 2676.41C507.256 2676.41 505.949 2676.07 504.755 2675.39L504.262 2676.26C505.612 2677.03 507.09 2677.41 508.685 2677.41V2676.41ZM504.755 2675.39C503.57 2674.72 502.626 2673.75 501.924 2672.46L501.045 2672.94C501.831 2674.38 502.904 2675.5 504.262 2676.26L504.755 2675.39ZM501.924 2672.46C501.227 2671.18 500.869 2669.64 500.869 2667.84H499.869C499.869 2669.78 500.254 2671.48 501.045 2672.94L501.924 2672.46ZM500.869 2667.84V2667.37H499.869V2667.84H500.869ZM500.869 2667.37C500.869 2665.56 501.227 2664.04 501.922 2662.79L501.047 2662.3C500.254 2663.74 499.869 2665.43 499.869 2667.37H500.869ZM501.924 2662.78C502.628 2661.49 503.561 2660.52 504.723 2659.85L504.223 2658.98C502.889 2659.75 501.83 2660.86 501.045 2662.31L501.924 2662.78ZM504.725 2659.85C505.917 2659.15 507.234 2658.8 508.685 2658.8V2657.8C507.064 2657.8 505.572 2658.19 504.22 2658.98L504.725 2659.85ZM508.685 2658.8C509.866 2658.8 510.831 2658.96 511.595 2659.27L511.966 2658.34C511.051 2657.97 509.951 2657.8 508.685 2657.8V2658.8ZM511.611 2659.27C512.426 2659.57 513.057 2659.94 513.523 2660.39L514.214 2659.66C513.624 2659.1 512.864 2658.66 511.951 2658.33L511.611 2659.27ZM513.532 2660.4C514.023 2660.84 514.392 2661.31 514.649 2661.81L515.536 2661.34C515.217 2660.73 514.77 2660.17 514.205 2659.66L513.532 2660.4ZM515.093 2662.07H515.597V2661.07H515.093V2662.07ZM516.097 2661.57V2651.21H515.097V2661.57H516.097ZM515.597 2651.71H518.441V2650.71H515.597V2651.71ZM517.941 2651.21V2676.41H518.941V2651.21H517.941ZM518.441 2675.91H515.669V2676.91H518.441V2675.91ZM516.169 2676.41V2673.49H515.169V2676.41H516.169ZM515.669 2672.99H515.165V2673.99H515.669V2672.99ZM514.725 2673.25C514.29 2674.06 513.605 2674.79 512.649 2675.45L513.217 2676.28C514.276 2675.55 515.08 2674.7 515.605 2673.73L514.725 2673.25ZM512.649 2675.45C511.756 2676.07 510.454 2676.41 508.685 2676.41V2677.41C510.563 2677.41 512.094 2677.05 513.217 2676.28L512.649 2675.45ZM509.441 2674.89C511.38 2674.89 512.991 2674.27 514.226 2673.01L513.511 2672.31C512.49 2673.35 511.15 2673.89 509.441 2673.89V2674.89ZM514.226 2673.01C515.492 2671.72 516.097 2669.95 516.097 2667.77H515.097C515.097 2669.76 514.549 2671.25 513.512 2672.31L514.226 2673.01ZM516.097 2667.77V2667.44H515.097V2667.77H516.097ZM516.097 2667.44C516.097 2665.26 515.493 2663.5 514.222 2662.23L513.515 2662.94C514.549 2663.97 515.097 2665.45 515.097 2667.44H516.097ZM514.23 2662.24C512.996 2660.95 511.383 2660.32 509.441 2660.32V2661.32C511.146 2661.32 512.486 2661.86 513.508 2662.93L514.23 2662.24ZM509.441 2660.32C507.52 2660.32 505.901 2660.95 504.623 2662.23L505.33 2662.94C506.404 2661.86 507.761 2661.32 509.441 2661.32V2660.32ZM504.623 2662.23C503.353 2663.5 502.749 2665.26 502.749 2667.44H503.749C503.749 2665.45 504.297 2663.97 505.33 2662.94L504.623 2662.23ZM502.749 2667.44V2667.77H503.749V2667.44H502.749ZM502.749 2667.77C502.749 2669.95 503.353 2671.72 504.62 2673.01L505.334 2672.31C504.296 2671.25 503.749 2669.76 503.749 2667.77H502.749ZM504.627 2673.02C505.905 2674.27 507.523 2674.89 509.441 2674.89V2673.89C507.758 2673.89 506.4 2673.36 505.327 2672.3L504.627 2673.02ZM527.785 2675.79L527.537 2676.23L527.543 2676.23L527.785 2675.79ZM524.653 2672.59L525.092 2672.35L524.653 2672.59ZM524.653 2662.62L524.213 2662.38L524.213 2662.38L524.653 2662.62ZM527.749 2659.45L527.994 2659.89L528 2659.88L527.749 2659.45ZM536.677 2659.38L536.43 2659.81L536.437 2659.82L536.677 2659.38ZM539.665 2662.4L540.104 2662.16L540.104 2662.16L539.665 2662.4ZM540.745 2668.34V2668.84H541.245V2668.34H540.745ZM526.381 2668.34V2667.84H525.861L525.881 2668.36L526.381 2668.34ZM528.217 2672.81L527.875 2673.17L527.879 2673.17L528.217 2672.81ZM536.029 2673.35L536.353 2673.73L536.353 2673.73L536.029 2673.35ZM537.901 2670.86L538.119 2670.41L537.656 2670.19L537.445 2670.66L537.901 2670.86ZM540.349 2672.05L540.799 2672.27L541.016 2671.82L540.567 2671.6L540.349 2672.05ZM538.837 2674.28L538.46 2673.95L538.454 2673.96L538.837 2674.28ZM536.353 2676.15L536.133 2675.7L536.129 2675.71L536.353 2676.15ZM526.417 2666L525.922 2665.93L525.838 2666.5H526.417V2666ZM537.865 2666V2666.5H538.395L538.364 2665.97L537.865 2666ZM536.173 2662.19L535.837 2662.56L535.842 2662.56L536.173 2662.19ZM528.325 2662.19L528.656 2662.56L528.656 2662.56L528.325 2662.19ZM532.465 2676.41C530.76 2676.41 529.286 2676.05 528.027 2675.36L527.543 2676.23C528.972 2677.02 530.617 2677.41 532.465 2677.41V2676.41ZM528.033 2675.36C526.77 2674.64 525.792 2673.64 525.092 2672.35L524.213 2672.83C525.002 2674.28 526.112 2675.41 527.537 2676.23L528.033 2675.36ZM525.092 2672.35C524.394 2671.07 524.037 2669.57 524.037 2667.84H523.037C523.037 2669.71 523.424 2671.38 524.213 2672.83L525.092 2672.35ZM524.037 2667.84V2667.41H523.037V2667.84H524.037ZM524.037 2667.41C524.037 2665.65 524.394 2664.14 525.092 2662.86L524.213 2662.38C523.423 2663.83 523.037 2665.51 523.037 2667.41H524.037ZM525.092 2662.86C525.792 2661.57 526.758 2660.58 527.994 2659.89L527.503 2659.01C526.099 2659.81 525.001 2660.93 524.213 2662.38L525.092 2662.86ZM528 2659.88C529.235 2659.16 530.659 2658.8 532.285 2658.8V2657.8C530.503 2657.8 528.902 2658.2 527.497 2659.02L528 2659.88ZM532.285 2658.8C533.866 2658.8 535.243 2659.14 536.43 2659.81L536.923 2658.94C535.566 2658.17 534.015 2657.8 532.285 2657.8V2658.8ZM536.437 2659.82C537.621 2660.46 538.55 2661.4 539.226 2662.64L540.104 2662.16C539.34 2660.76 538.276 2659.68 536.917 2658.94L536.437 2659.82ZM539.226 2662.64C539.899 2663.88 540.245 2665.34 540.245 2667.05H541.245C541.245 2665.2 540.87 2663.57 540.104 2662.16L539.226 2662.64ZM540.245 2667.05V2668.34H541.245V2667.05H540.245ZM540.745 2667.84H526.381V2668.84H540.745V2667.84ZM525.881 2668.36C525.957 2670.36 526.608 2671.98 527.875 2673.17L528.559 2672.44C527.522 2671.47 526.948 2670.12 526.88 2668.32L525.881 2668.36ZM527.879 2673.17C529.133 2674.32 530.698 2674.89 532.537 2674.89V2673.89C530.919 2673.89 529.604 2673.4 528.555 2672.44L527.879 2673.17ZM532.537 2674.89C534.119 2674.89 535.416 2674.53 536.353 2673.73L535.704 2672.97C535.01 2673.56 533.978 2673.89 532.537 2673.89V2674.89ZM536.353 2673.73C537.224 2672.98 537.894 2672.1 538.357 2671.07L537.445 2670.66C537.044 2671.55 536.465 2672.32 535.704 2672.97L536.353 2673.73ZM537.682 2671.31L540.13 2672.5L540.567 2671.6L538.119 2670.41L537.682 2671.31ZM539.899 2671.83C539.561 2672.53 539.084 2673.24 538.46 2673.95L539.214 2674.61C539.885 2673.84 540.416 2673.06 540.799 2672.27L539.899 2671.83ZM538.454 2673.96C537.882 2674.64 537.114 2675.23 536.133 2675.7L536.572 2676.6C537.656 2676.07 538.543 2675.41 539.22 2674.6L538.454 2673.96ZM536.129 2675.71C535.213 2676.16 534.001 2676.41 532.465 2676.41V2677.41C534.097 2677.41 535.477 2677.15 536.576 2676.6L536.129 2675.71ZM526.417 2666.5H537.865V2665.5H526.417V2666.5ZM538.364 2665.97C538.262 2664.23 537.654 2662.83 536.504 2661.81L535.842 2662.56C536.755 2663.37 537.276 2664.51 537.366 2666.03L538.364 2665.97ZM536.508 2661.81C535.393 2660.81 533.971 2660.32 532.285 2660.32V2661.32C533.767 2661.32 534.936 2661.74 535.837 2662.56L536.508 2661.81ZM532.285 2660.32C530.576 2660.32 529.132 2660.81 527.994 2661.81L528.656 2662.56C529.581 2661.74 530.777 2661.32 532.285 2661.32V2660.32ZM527.994 2661.81C526.856 2662.82 526.176 2664.2 525.922 2665.93L526.911 2666.07C527.138 2664.54 527.729 2663.38 528.656 2662.56L527.994 2661.81ZM547.757 2676.26L547.56 2676.72L547.56 2676.72L547.757 2676.26ZM545.381 2674.39L544.973 2674.68L544.973 2674.68L545.381 2674.39ZM545.381 2668.45L545.781 2668.75L545.786 2668.74L545.381 2668.45ZM547.757 2666.69L547.935 2667.15L547.945 2667.15L547.757 2666.69ZM557.081 2666.07V2666.57H557.581V2666.07H557.081ZM555.965 2661.83L555.612 2662.18L555.618 2662.19L555.965 2661.83ZM549.413 2661.79L549.737 2662.17L549.743 2662.17L549.413 2661.79ZM547.793 2664.53L547.639 2665L548.149 2665.17L548.278 2664.65L547.793 2664.53ZM545.129 2663.66L544.65 2663.52L544.513 2663.99L544.975 2664.14L545.129 2663.66ZM546.497 2661L546.89 2661.31L546.895 2661.3L546.497 2661ZM548.981 2659.05L549.192 2659.51L549.197 2659.51L548.981 2659.05ZM558.017 2660.06L557.674 2660.43L557.678 2660.43L558.017 2660.06ZM562.517 2673.99H563.017V2673.49H562.517V2673.99ZM562.517 2676.41V2676.91H563.017V2676.41H562.517ZM558.125 2675.76L557.781 2676.12L557.791 2676.13L558.125 2675.76ZM557.405 2673.78H557.905V2673.28H557.405V2673.78ZM556.973 2673.78V2673.28H556.685L556.541 2673.53L556.973 2673.78ZM555.893 2675.22L555.523 2674.88L555.522 2674.88L555.893 2675.22ZM554.093 2676.41L553.905 2675.94L553.893 2675.95L554.093 2676.41ZM555.497 2672.99L555.842 2673.35L555.843 2673.35L555.497 2672.99ZM557.081 2668.38H557.581V2667.88H557.081V2668.38ZM548.441 2669.13L548.719 2669.55L548.722 2669.55L548.441 2669.13ZM548.477 2673.63L548.179 2674.04L548.186 2674.04L548.477 2673.63ZM551.105 2676.41C549.941 2676.41 548.893 2676.2 547.954 2675.8L547.56 2676.72C548.638 2677.18 549.822 2677.41 551.105 2677.41V2676.41ZM547.954 2675.8C547.023 2675.4 546.307 2674.83 545.79 2674.1L544.973 2674.68C545.607 2675.58 546.476 2676.26 547.56 2676.72L547.954 2675.8ZM545.79 2674.1C545.283 2673.38 545.017 2672.49 545.017 2671.4H544.017C544.017 2672.66 544.327 2673.76 544.973 2674.68L545.79 2674.1ZM545.017 2671.4C545.017 2670.28 545.285 2669.41 545.781 2668.75L544.981 2668.15C544.326 2669.02 544.017 2670.12 544.017 2671.4H545.017ZM545.786 2668.74C546.299 2668.04 547.008 2667.51 547.935 2667.15L547.579 2666.22C546.49 2666.63 545.616 2667.28 544.977 2668.16L545.786 2668.74ZM547.945 2667.15C548.885 2666.77 549.948 2666.57 551.141 2666.57V2665.57C549.838 2665.57 548.646 2665.79 547.57 2666.22L547.945 2667.15ZM551.141 2666.57H557.081V2665.57H551.141V2666.57ZM557.581 2666.07V2664.78H556.581V2666.07H557.581ZM557.581 2664.78C557.581 2663.42 557.174 2662.3 556.313 2661.47L555.618 2662.19C556.245 2662.79 556.581 2663.64 556.581 2664.78H557.581ZM556.319 2661.47C555.472 2660.63 554.242 2660.25 552.725 2660.25V2661.25C554.088 2661.25 555.019 2661.59 555.612 2662.18L556.319 2661.47ZM552.725 2660.25C551.23 2660.25 549.994 2660.61 549.083 2661.41L549.743 2662.17C550.417 2661.57 551.389 2661.25 552.725 2661.25V2660.25ZM549.09 2661.41C548.207 2662.16 547.618 2663.17 547.308 2664.4L548.278 2664.65C548.545 2663.58 549.036 2662.77 549.737 2662.17L549.09 2661.41ZM547.948 2664.05L545.284 2663.19L544.975 2664.14L547.639 2665L547.948 2664.05ZM545.609 2663.8C545.88 2662.88 546.306 2662.05 546.89 2661.31L546.105 2660.69C545.44 2661.53 544.955 2662.48 544.65 2663.52L545.609 2663.8ZM546.895 2661.3C547.464 2660.56 548.225 2659.96 549.192 2659.51L548.771 2658.6C547.673 2659.11 546.778 2659.81 546.1 2660.69L546.895 2661.3ZM549.197 2659.51C550.171 2659.04 551.354 2658.8 552.761 2658.8V2657.8C551.241 2657.8 549.904 2658.06 548.766 2658.6L549.197 2659.51ZM552.761 2658.8C554.931 2658.8 556.546 2659.36 557.674 2660.43L558.36 2659.7C556.993 2658.41 555.103 2657.8 552.761 2657.8V2658.8ZM557.678 2660.43C558.8 2661.46 559.389 2662.95 559.389 2664.96H560.389C560.389 2662.74 559.731 2660.96 558.357 2659.69L557.678 2660.43ZM559.389 2664.96V2672.91H560.389V2664.96H559.389ZM559.389 2672.91C559.389 2673.34 559.489 2673.76 559.776 2674.06C560.069 2674.38 560.475 2674.49 560.897 2674.49V2673.49C560.648 2673.49 560.55 2673.43 560.507 2673.38C560.458 2673.33 560.389 2673.2 560.389 2672.91H559.389ZM560.897 2674.49H562.517V2673.49H560.897V2674.49ZM562.017 2673.99V2676.41H563.017V2673.99H562.017ZM562.517 2675.91H560.033V2676.91H562.517V2675.91ZM560.033 2675.91C559.336 2675.91 558.828 2675.72 558.46 2675.39L557.791 2676.13C558.382 2676.66 559.147 2676.91 560.033 2676.91V2675.91ZM558.47 2675.4C558.102 2675.05 557.905 2674.58 557.905 2673.96H556.905C556.905 2674.82 557.189 2675.56 557.781 2676.12L558.47 2675.4ZM557.905 2673.96V2673.78H556.905V2673.96H557.905ZM557.405 2673.28H556.973V2674.28H557.405V2673.28ZM556.541 2673.53C556.298 2673.95 555.961 2674.4 555.523 2674.88L556.264 2675.55C556.737 2675.03 557.12 2674.52 557.406 2674.03L556.541 2673.53ZM555.522 2674.88C555.153 2675.29 554.622 2675.65 553.905 2675.94L554.282 2676.87C555.1 2676.54 555.77 2676.1 556.265 2675.55L555.522 2674.88ZM553.893 2675.95C553.21 2676.25 552.29 2676.41 551.105 2676.41V2677.41C552.369 2677.41 553.44 2677.24 554.294 2676.86L553.893 2675.95ZM551.429 2674.96C553.213 2674.96 554.701 2674.44 555.842 2673.35L555.152 2672.62C554.23 2673.5 553.005 2673.96 551.429 2673.96V2674.96ZM555.843 2673.35C557.02 2672.22 557.581 2670.68 557.581 2668.77H556.581C556.581 2670.47 556.087 2671.73 555.152 2672.62L555.843 2673.35ZM557.581 2668.77V2668.38H556.581V2668.77H557.581ZM557.081 2667.88H551.249V2668.88H557.081V2667.88ZM551.249 2667.88C550.047 2667.88 549.007 2668.15 548.161 2668.72L548.722 2669.55C549.364 2669.11 550.196 2668.88 551.249 2668.88V2667.88ZM548.164 2668.72C547.284 2669.3 546.861 2670.21 546.861 2671.33H547.861C547.861 2670.49 548.159 2669.92 548.719 2669.55L548.164 2668.72ZM546.861 2671.33C546.861 2672.46 547.299 2673.38 548.179 2674.04L548.775 2673.23C548.167 2672.78 547.861 2672.17 547.861 2671.33H546.861ZM548.186 2674.04C549.059 2674.67 550.153 2674.96 551.429 2674.96V2673.96C550.306 2673.96 549.432 2673.7 548.769 2673.23L548.186 2674.04ZM566.412 2676.41H565.912V2676.91H566.412V2676.41ZM566.412 2651.21V2650.71H565.912V2651.21H566.412ZM569.256 2651.21H569.756V2650.71H569.256V2651.21ZM569.256 2676.41V2676.91H569.756V2676.41H569.256ZM566.912 2676.41V2651.21H565.912V2676.41H566.912ZM566.412 2651.71H569.256V2650.71H566.412V2651.71ZM568.756 2651.21V2676.41H569.756V2651.21H568.756ZM569.256 2675.91H566.412V2676.91H569.256V2675.91ZM577.361 2683.61H576.861V2684.11H577.361V2683.61ZM577.361 2681.09V2680.59H576.861V2681.09H577.361ZM588.485 2673.6H588.985V2673.1H588.485V2673.6ZM587.981 2673.6V2673.1H587.665L587.529 2673.38L587.981 2673.6ZM586.865 2675.11L587.218 2675.46L587.218 2675.46L586.865 2675.11ZM584.957 2676.3L585.128 2676.77L585.14 2676.76L584.957 2676.3ZM578.441 2675.9L578.209 2676.34L578.213 2676.35L578.441 2675.9ZM575.921 2673.45L575.484 2673.7L575.488 2673.7L575.921 2673.45ZM575.021 2658.8V2658.3H574.521V2658.8H575.021ZM577.865 2658.8H578.365V2658.3H577.865V2658.8ZM579.161 2673.06L578.823 2673.43L578.828 2673.43L579.161 2673.06ZM586.865 2672.59L586.507 2672.24L586.507 2672.24L586.865 2672.59ZM588.485 2658.8V2658.3H587.985V2658.8H588.485ZM591.329 2658.8H591.829V2658.3H591.329V2658.8ZM590.501 2682.78L590.147 2682.42L590.139 2682.43L590.501 2682.78ZM577.861 2683.61V2681.09H576.861V2683.61H577.861ZM577.361 2681.59H587.441V2680.59H577.361V2681.59ZM587.441 2681.59C587.87 2681.59 588.283 2681.47 588.583 2681.16C588.88 2680.86 588.985 2680.44 588.985 2680.01H587.985C587.985 2680.29 587.915 2680.42 587.864 2680.47C587.816 2680.52 587.707 2680.59 587.441 2680.59V2681.59ZM588.985 2680.01V2673.6H587.985V2680.01H588.985ZM588.485 2673.1H587.981V2674.1H588.485V2673.1ZM587.529 2673.38C587.319 2673.82 586.985 2674.28 586.511 2674.76L587.218 2675.46C587.752 2674.93 588.162 2674.38 588.432 2673.81L587.529 2673.38ZM586.511 2674.76C586.09 2675.18 585.517 2675.54 584.773 2675.83L585.14 2676.76C585.98 2676.43 586.679 2676 587.218 2675.46L586.511 2674.76ZM584.786 2675.83C584.066 2676.09 583.133 2676.23 581.969 2676.23V2677.23C583.204 2677.23 584.263 2677.08 585.128 2676.77L584.786 2675.83ZM581.969 2676.23C580.772 2676.23 579.674 2675.97 578.668 2675.46L578.213 2676.35C579.367 2676.94 580.621 2677.23 581.969 2677.23V2676.23ZM578.672 2675.46C577.704 2674.95 576.932 2674.21 576.354 2673.2L575.488 2673.7C576.157 2674.86 577.065 2675.75 578.209 2676.34L578.672 2675.46ZM576.358 2673.21C575.808 2672.22 575.521 2670.99 575.521 2669.49H574.521C574.521 2671.12 574.833 2672.53 575.484 2673.7L576.358 2673.21ZM575.521 2669.49V2658.8H574.521V2669.49H575.521ZM575.021 2659.3H577.865V2658.3H575.021V2659.3ZM577.365 2658.8V2669.28H578.365V2658.8H577.365ZM577.365 2669.28C577.365 2671.08 577.815 2672.5 578.823 2673.43L579.499 2672.69C578.779 2672.03 578.365 2670.93 578.365 2669.28H577.365ZM578.828 2673.43C579.829 2674.32 581.146 2674.75 582.725 2674.75V2673.75C581.327 2673.75 580.269 2673.38 579.493 2672.68L578.828 2673.43ZM582.725 2674.75C584.526 2674.75 586.039 2674.15 587.222 2672.94L586.507 2672.24C585.53 2673.24 584.283 2673.75 582.725 2673.75V2674.75ZM587.222 2672.94C588.426 2671.71 588.985 2669.92 588.985 2667.66H587.985C587.985 2669.77 587.464 2671.26 586.507 2672.24L587.222 2672.94ZM588.985 2667.66V2658.8H587.985V2667.66H588.985ZM588.485 2659.3H591.329V2658.3H588.485V2659.3ZM590.829 2658.8V2680.51H591.829V2658.8H590.829ZM590.829 2680.51C590.829 2681.37 590.585 2681.99 590.147 2682.42L590.854 2683.13C591.521 2682.46 591.829 2681.57 591.829 2680.51H590.829ZM590.139 2682.43C589.735 2682.85 589.106 2683.11 588.161 2683.11V2684.11C589.28 2684.11 590.21 2683.8 590.862 2683.12L590.139 2682.43ZM588.161 2683.11H577.361V2684.11H588.161V2683.11Z" fill="#0C0C0C" mask="url(#path-4-outside-1_24_398)"/>
<path d="M911.5 2664.41C911.503 2667.04 910.985 2669.65 909.974 2672.08C908.963 2674.51 907.48 2676.72 905.611 2678.58C903.757 2680.43 901.557 2681.9 899.135 2682.9C896.714 2683.9 894.12 2684.41 891.5 2684.41C880.454 2684.41 871.5 2675.45 871.5 2664.41C871.493 2659.28 873.463 2654.34 877 2650.63C878.866 2648.66 881.115 2647.09 883.608 2646.02C886.101 2644.95 888.787 2644.4 891.5 2644.41C894.12 2644.4 896.714 2644.92 899.135 2645.92C901.557 2646.91 903.757 2648.38 905.611 2650.23C907.48 2652.09 908.963 2654.3 909.974 2656.73C910.985 2659.16 911.503 2661.77 911.5 2664.41Z" stroke="black" stroke-width="3" stroke-linecap="round" stroke-linejoin="round"/>
<path d="M911.5 2664.41C908.582 2664.41 900.532 2663.31 893.327 2666.47C885.5 2669.91 879.833 2675.24 877.363 2678.55" stroke="black" stroke-width="3" stroke-linecap="round" stroke-linejoin="round"/>
<path d="M884 2645.86C887.13 2648.75 893.96 2656.1 896.5 2663.41C899.04 2670.71 899.98 2679.69 900.56 2682.24" stroke="black" stroke-width="3" stroke-linecap="round" stroke-linejoin="round"/>
<path d="M871.654 2661.91C875.432 2662.13 885.433 2662.34 891.833 2659.61C898.233 2656.87 903.74 2651.85 905.629 2650.25M873 2672.02C874.762 2676.28 877.941 2679.81 882 2682.01" stroke="black" stroke-width="3" stroke-linecap="round" stroke-linejoin="round"/>
<path d="M871.5 2664.41C871.493 2659.28 873.463 2654.34 877 2650.63C878.866 2648.66 881.115 2647.09 883.608 2646.02C886.101 2644.95 888.787 2644.4 891.5 2644.41M899.5 2646.07C901.778 2647.07 903.85 2648.48 905.611 2650.23C907.48 2652.09 908.963 2654.3 909.974 2656.73C910.985 2659.16 911.503 2661.77 911.5 2664.41C911.5 2666.87 911.055 2669.23 910.24 2671.41M891.5 2684.41C894.12 2684.41 896.714 2683.9 899.135 2682.9C901.557 2681.9 903.757 2680.43 905.611 2678.58" stroke="black" stroke-width="3" stroke-linecap="round" stroke-linejoin="round"/>
<path d="M1011.5 2658.41C1009.91 2658.41 1008.38 2659.04 1007.26 2660.16C1006.13 2661.29 1005.5 2662.81 1005.5 2664.41C1005.5 2666 1006.13 2667.52 1007.26 2668.65C1008.38 2669.77 1009.91 2670.41 1011.5 2670.41C1013.09 2670.41 1014.62 2669.77 1015.74 2668.65C1016.87 2667.52 1017.5 2666 1017.5 2664.41C1017.5 2662.81 1016.87 2661.29 1015.74 2660.16C1014.62 2659.04 1013.09 2658.41 1011.5 2658.41ZM1011.5 2654.41C1014.15 2654.41 1016.7 2655.46 1018.57 2657.33C1020.45 2659.21 1021.5 2661.75 1021.5 2664.41C1021.5 2667.06 1020.45 2669.6 1018.57 2671.48C1016.7 2673.35 1014.15 2674.41 1011.5 2674.41C1008.85 2674.41 1006.31 2673.35 1004.43 2671.48C1002.56 2669.6 1001.5 2667.06 1001.5 2664.41C1001.5 2661.75 1002.56 2659.21 1004.43 2657.33C1006.31 2655.46 1008.85 2654.41 1011.5 2654.41ZM1024.5 2653.91C1024.5 2654.57 1024.24 2655.2 1023.77 2655.67C1023.3 2656.14 1022.67 2656.41 1022 2656.41C1021.34 2656.41 1020.7 2656.14 1020.23 2655.67C1019.77 2655.2 1019.5 2654.57 1019.5 2653.91C1019.5 2653.24 1019.77 2652.61 1020.23 2652.14C1020.7 2651.67 1021.34 2651.41 1022 2651.41C1022.67 2651.41 1023.3 2651.67 1023.77 2652.14C1024.24 2652.61 1024.5 2653.24 1024.5 2653.91ZM1011.5 2648.41C1006.55 2648.41 1005.75 2648.42 1003.44 2648.52C1001.88 2648.6 1000.82 2648.81 999.848 2649.19C999.031 2649.49 998.293 2649.97 997.688 2650.59C997.062 2651.2 996.581 2651.93 996.28 2652.75C995.9 2653.73 995.69 2654.78 995.618 2656.35C995.514 2658.56 995.5 2659.33 995.5 2664.41C995.5 2669.36 995.514 2670.16 995.616 2672.46C995.69 2674.03 995.9 2675.08 996.278 2676.06C996.618 2676.93 997.018 2677.55 997.682 2678.22C998.356 2678.89 998.982 2679.29 999.842 2679.62C1000.83 2680.01 1001.88 2680.22 1003.44 2680.29C1005.65 2680.39 1006.42 2680.41 1011.5 2680.41C1016.45 2680.41 1017.26 2680.39 1019.56 2680.29C1021.12 2680.22 1022.17 2680.01 1023.15 2679.63C1023.97 2679.33 1024.71 2678.85 1025.31 2678.22C1025.99 2677.55 1026.39 2676.92 1026.72 2676.06C1027.1 2675.08 1027.31 2674.03 1027.38 2672.46C1027.49 2670.26 1027.5 2669.48 1027.5 2664.41C1027.5 2659.46 1027.49 2658.65 1027.38 2656.35C1027.31 2654.78 1027.1 2653.73 1026.72 2652.75C1026.42 2651.94 1025.94 2651.2 1025.31 2650.59C1024.71 2649.97 1023.97 2649.48 1023.15 2649.18C1022.17 2648.8 1021.12 2648.59 1019.56 2648.52C1017.35 2648.42 1016.58 2648.41 1011.5 2648.41M1011.5 2644.41C1016.93 2644.41 1017.61 2644.43 1019.75 2644.53C1021.87 2644.63 1023.33 2644.96 1024.6 2645.46C1025.92 2645.96 1027.03 2646.65 1028.14 2647.76C1029.16 2648.76 1029.95 2649.97 1030.45 2651.31C1030.94 2652.58 1031.28 2654.03 1031.38 2656.16C1031.47 2658.29 1031.5 2658.97 1031.5 2664.41C1031.5 2669.84 1031.48 2670.52 1031.38 2672.65C1031.28 2674.78 1030.94 2676.23 1030.45 2677.51C1029.95 2678.84 1029.16 2680.05 1028.14 2681.05C1027.14 2682.07 1025.93 2682.85 1024.6 2683.36C1023.33 2683.85 1021.87 2684.19 1019.75 2684.29C1017.61 2684.38 1016.93 2684.41 1011.5 2684.41C1006.07 2684.41 1005.39 2684.39 1003.25 2684.29C1001.13 2684.19 999.676 2683.85 998.4 2683.36C997.065 2682.85 995.855 2682.07 994.856 2681.05C993.839 2680.05 993.052 2678.84 992.55 2677.51C992.054 2676.23 991.72 2674.78 991.62 2672.65C991.524 2670.52 991.5 2669.84 991.5 2664.41C991.5 2658.97 991.52 2658.29 991.62 2656.16C991.72 2654.03 992.054 2652.58 992.55 2651.31C993.05 2649.97 993.838 2648.76 994.856 2647.76C995.855 2646.74 997.065 2645.96 998.4 2645.46C999.674 2644.96 1001.12 2644.63 1003.25 2644.53C1005.39 2644.43 1006.07 2644.41 1011.5 2644.41" fill="black"/>
<path d="M1133.65 2658.69L1124.02 2644.27L1123.95 2644.16H1123.82H1112.5H1112.03L1112.29 2644.54L1127.02 2666.63L1112.31 2684.25L1111.97 2684.66H1112.5H1115.85H1115.97L1116.04 2684.57L1128.8 2669.29L1138.98 2684.54L1139.05 2684.66H1139.18H1150.5H1150.97L1150.71 2684.27L1135.43 2661.36L1149.45 2644.57L1149.79 2644.16H1149.26H1145.91H1145.79L1145.72 2644.25L1133.65 2658.69ZM1130.73 2666.7L1130.73 2666.7L1129.23 2664.49L1129.23 2664.49L1117.53 2647.26H1122.08L1131.66 2661.37L1131.66 2661.37L1133.16 2663.58L1133.16 2663.58L1145.44 2681.67H1140.89L1130.73 2666.7Z" fill="black" stroke="black" stroke-width="0.5"/>
<g filter="url(#filter0_d_24_398)">
<path d="M64.5679 765.59V788.18L52.7817 782.287C46.2993 779.144 40.2098 776.394 39.0311 776.394C34.5131 776.394 37.6561 782.484 46.1029 789.948C52.1924 795.252 54.3532 798.199 52.5853 798.788C51.0138 799.377 39.424 802.52 26.4592 805.663C2.29751 811.556 -2.61341 814.11 1.11889 817.842C2.49394 819.217 11.9229 818.628 32.9416 815.485C49.4423 813.128 63.3893 811.753 63.9786 812.342C64.5679 813.128 61.2285 820.003 56.7104 827.861C51.996 835.718 48.0672 842.79 47.6744 843.379C47.2815 844.165 48.2637 845.736 49.6387 846.915C51.996 848.879 53.9603 847.897 60.2463 842.397C64.5679 838.468 68.8895 835.325 69.8717 835.325C70.8539 835.325 72.8182 841.218 74.3897 848.487C77.7292 865.38 80.0864 870.684 84.408 870.684C89.7118 870.684 90.694 864.594 89.1225 842.004C88.3367 830.611 88.3367 821.575 89.3189 821.575C90.3011 821.575 98.1586 824.718 106.802 828.45C123.892 835.915 129.392 836.897 129.392 832.575C129.392 828.646 126.249 825.896 111.123 815.485C103.855 810.771 97.9621 806.253 97.9621 805.663C97.9621 805.074 107.98 801.735 120.159 798.199C141.964 791.913 151 787.788 151 784.252C151 781.305 138.624 781.894 118.981 785.43C109.552 787.198 101.105 788.18 100.516 787.395C99.9265 786.805 101.302 781.698 103.659 776.198C112.498 754.786 106.998 752.822 93.2476 772.662C88.1403 780.323 83.0329 785.823 82.2472 784.841C81.4615 784.055 79.3006 776.198 77.3363 767.555C73.4076 749.09 70.8539 743 67.1216 743C65.1572 743 64.5679 748.107 64.5679 765.59Z" fill="#F3ABCB"/>
<path d="M65.5679 788.18V789.799L64.1207 789.075L52.3454 783.187C52.3436 783.186 52.3417 783.185 52.3399 783.184C49.1059 781.617 45.9788 780.151 43.5181 779.079C42.2857 778.542 41.2321 778.109 40.4214 777.812C40.0152 777.663 39.6827 777.553 39.4261 777.482C39.2981 777.446 39.1981 777.423 39.1233 777.409C39.043 777.393 39.0179 777.394 39.0311 777.394C38.5659 777.394 38.3047 777.475 38.1725 777.547C38.0684 777.604 38.0265 777.663 37.9991 777.753C37.9128 778.037 37.9719 778.717 38.5924 779.911C39.7837 782.202 42.5705 785.492 46.7623 789.197C49.811 791.852 51.9463 793.976 53.097 795.545C53.6529 796.303 54.0884 797.073 54.1685 797.794C54.2122 798.187 54.1555 798.622 53.8961 799.011C53.6449 799.388 53.2795 799.607 52.9203 799.73C52.0499 800.053 48.71 800.997 44.0515 802.235C39.3305 803.489 33.1854 805.062 26.6962 806.635C14.5887 809.588 7.43284 811.677 3.76665 813.462C2.85997 813.904 2.20804 814.308 1.76046 814.675C1.30995 815.045 1.11885 815.336 1.04521 815.537C0.942873 815.817 0.962452 816.272 1.82599 817.135C1.82411 817.133 1.82314 817.132 1.82323 817.132C1.82419 817.131 1.926 817.209 2.26516 817.296C2.61232 817.384 3.10775 817.456 3.77873 817.498C5.11808 817.583 7.03052 817.544 9.59263 817.361C14.7093 816.995 22.2902 816.067 32.7937 814.496L32.8002 814.495C41.0609 813.315 48.687 812.38 54.3269 811.814C57.1449 811.531 59.4781 811.339 61.1506 811.254C61.9839 811.213 62.6727 811.196 63.1828 811.212C63.4347 811.219 63.6704 811.235 63.8691 811.267C63.9675 811.282 64.0831 811.305 64.1985 811.343C64.2895 811.373 64.5004 811.45 64.6857 811.635L64.736 811.685L64.7786 811.742C64.9804 812.011 65.0281 812.306 65.0412 812.488C65.0554 812.687 65.037 812.887 65.0087 813.067C64.9518 813.43 64.8308 813.857 64.6729 814.318C64.3541 815.248 63.8322 816.466 63.1635 817.878C61.8223 820.709 59.844 824.417 57.5773 828.359L57.5727 828.367L57.5679 828.375C55.2154 832.296 53.0582 836.022 51.4391 838.843C50.9308 839.729 50.4713 840.533 50.074 841.228C49.3356 842.52 48.8118 843.437 48.5877 843.805C48.589 843.824 48.5924 843.852 48.6006 843.891C48.6304 844.032 48.7088 844.238 48.8598 844.5C49.1599 845.02 49.6671 845.621 50.2843 846.151C50.7902 846.572 51.1911 846.764 51.5646 846.824C51.935 846.883 52.4 846.831 53.0684 846.539C54.4711 845.925 56.4146 844.421 59.5808 841.651C61.761 839.669 63.9462 837.88 65.7204 836.581C66.6066 835.932 67.405 835.394 68.0575 835.014C68.3827 834.824 68.6889 834.664 68.9627 834.547C69.2054 834.444 69.5365 834.325 69.8717 834.325C70.468 834.325 70.8657 834.736 71.0416 834.941C71.2649 835.2 71.4697 835.536 71.658 835.898C72.0393 836.63 72.4451 837.649 72.8564 838.858C73.6828 841.287 74.5762 844.617 75.3671 848.275L75.369 848.284L75.3708 848.293C77.042 856.747 78.4485 862.19 79.9425 865.51C80.687 867.164 81.4176 868.208 82.1429 868.835C82.8376 869.435 83.5616 869.684 84.408 869.684C85.5191 869.684 86.2722 869.378 86.8526 868.719C87.4814 868.004 88.0116 866.759 88.3566 864.654C89.0467 860.442 88.9121 853.39 88.1249 842.073L88.1248 842.073C87.731 836.362 87.533 831.228 87.5577 827.51C87.5701 825.657 87.6378 824.126 87.7708 823.043C87.8362 822.51 87.9236 822.03 88.0504 821.661C88.1121 821.481 88.2054 821.259 88.3575 821.064C88.5106 820.868 88.8275 820.575 89.3189 820.575C89.6042 820.575 89.9673 820.668 90.2728 820.756C90.6249 820.856 91.0665 821.001 91.5795 821.18C92.6077 821.54 93.9662 822.055 95.5551 822.683C98.7353 823.94 102.871 825.663 107.198 827.532L107.202 827.534C115.763 831.273 121.306 833.334 124.685 833.949C126.402 834.261 127.339 834.153 127.811 833.913C128.142 833.744 128.392 833.432 128.392 832.575C128.392 831.747 128.231 831.005 127.787 830.191C127.329 829.351 126.55 828.399 125.25 827.195C122.639 824.775 118.141 821.529 110.568 816.317C106.921 813.951 103.616 811.633 101.216 809.826C100.016 808.924 99.0314 808.14 98.3397 807.538C97.9965 807.239 97.7071 806.969 97.4962 806.741C97.3925 806.629 97.287 806.506 97.2011 806.378C97.158 806.314 97.1066 806.23 97.0632 806.131C97.0241 806.042 96.9621 805.875 96.9621 805.663C96.9621 805.303 97.1421 805.059 97.2161 804.968C97.3065 804.857 97.4051 804.776 97.4747 804.723C97.6177 804.615 97.7893 804.517 97.9555 804.431C98.2977 804.253 98.7731 804.046 99.3468 803.817C100.503 803.355 102.156 802.765 104.176 802.088C108.219 800.732 113.783 799.009 119.881 797.238L119.882 797.238C130.778 794.097 138.429 791.51 143.344 789.283C145.806 788.167 147.523 787.167 148.61 786.268C149.715 785.355 149.998 784.691 150 784.257C149.99 784.243 149.956 784.199 149.863 784.135C149.646 783.986 149.236 783.815 148.557 783.675C147.212 783.396 145.149 783.3 142.397 783.409C136.916 783.628 128.965 784.649 119.161 786.414C114.432 787.301 109.938 787.992 106.542 788.364C104.848 788.55 103.404 788.658 102.333 788.668C101.801 788.673 101.327 788.654 100.946 788.598C100.758 788.57 100.557 788.529 100.371 788.46C100.22 788.404 99.9645 788.291 99.7614 788.052C99.5992 787.871 99.5166 787.671 99.4717 787.524C99.4206 787.357 99.3976 787.189 99.3873 787.038C99.3668 786.739 99.3896 786.397 99.4349 786.043C99.5264 785.328 99.7305 784.411 100.019 783.371C100.597 781.284 101.545 778.592 102.737 775.81C104.935 770.485 106.217 766.427 106.71 763.647C106.959 762.248 106.994 761.248 106.888 760.599C106.836 760.28 106.757 760.096 106.696 760.001C106.644 759.921 106.611 759.91 106.598 759.906C106.526 759.881 106.187 759.843 105.41 760.285C104.679 760.702 103.746 761.439 102.619 762.547C100.373 764.754 97.4942 768.291 94.0748 773.224C91.5023 777.082 88.9201 780.412 86.866 782.666C85.8448 783.787 84.9221 784.678 84.1757 785.232C83.8129 785.502 83.4227 785.745 83.0385 785.867C82.6854 785.979 81.9913 786.076 81.5007 785.507C81.2766 785.264 81.1058 784.919 80.9792 784.638C80.8244 784.294 80.6571 783.858 80.4808 783.354C80.1271 782.344 79.7155 780.995 79.2711 779.415C78.3812 776.251 77.3459 772.109 76.3612 767.776L76.3611 767.776L76.3582 767.763C74.3931 758.527 72.7883 752.472 71.2322 748.738C70.4534 746.869 69.7189 745.662 69.0186 744.933C68.3467 744.233 67.736 744 67.1216 744C67.1208 744 67.1204 744 67.1199 743.999C67.1184 743.998 67.1171 743.997 67.0962 744.015C67.0474 744.057 66.9398 744.178 66.8089 744.475C66.5417 745.081 66.2961 746.139 66.1017 747.852C65.7162 751.249 65.5679 756.841 65.5679 765.59V788.18Z" stroke="black" stroke-width="2"/>
</g>
<g filter="url(#filter1_d_24_398)">
<path d="M1455.57 27.5903V50.1805L1443.78 44.2874C1437.3 41.1444 1431.21 38.3943 1430.03 38.3943C1425.51 38.3943 1428.66 44.4838 1437.1 51.9484C1443.19 57.2522 1445.35 60.1987 1443.59 60.788C1442.01 61.3774 1430.42 64.5203 1417.46 67.6633C1393.3 73.5564 1388.39 76.1101 1392.12 79.8424C1393.49 81.2174 1402.92 80.6281 1423.94 77.4852C1440.44 75.1279 1454.39 73.7529 1454.98 74.3422C1455.57 75.1279 1452.23 82.0032 1447.71 89.8607C1443 97.7181 1439.07 104.79 1438.67 105.379C1438.28 106.165 1439.26 107.736 1440.64 108.915C1443 110.879 1444.96 109.897 1451.25 104.397C1455.57 100.468 1459.89 97.3253 1460.87 97.3253C1461.85 97.3253 1463.82 103.218 1465.39 110.487C1468.73 127.38 1471.09 132.684 1475.41 132.684C1480.71 132.684 1481.69 126.594 1480.12 104.004C1479.34 92.6108 1479.34 83.5747 1480.32 83.5747C1481.3 83.5747 1489.16 86.7177 1497.8 90.45C1514.89 97.9146 1520.39 98.8967 1520.39 94.5751C1520.39 90.6464 1517.25 87.8963 1502.12 77.4852C1494.86 72.7707 1488.96 68.2526 1488.96 67.6633C1488.96 67.074 1498.98 63.7346 1511.16 60.1987C1532.96 53.9128 1542 49.7876 1542 46.2517C1542 43.3052 1529.62 43.8945 1509.98 47.4304C1500.55 49.1983 1492.11 50.1805 1491.52 49.3947C1490.93 48.8054 1492.3 43.6981 1494.66 38.1978C1503.5 16.7862 1498 14.8219 1484.25 34.662C1479.14 42.323 1474.03 47.8232 1473.25 46.841C1472.46 46.0553 1470.3 38.1978 1468.34 29.5546C1464.41 11.0896 1461.85 5.00005 1458.12 5.00005C1456.16 5.00005 1455.57 10.1074 1455.57 27.5903Z" fill="#F3ABCB"/>
<path d="M1456.57 50.1805V51.7985L1455.12 51.0749L1443.35 45.1872C1443.34 45.1863 1443.34 45.1854 1443.34 45.1845C1440.11 43.6166 1436.98 42.151 1434.52 41.079C1433.29 40.5421 1432.23 40.1091 1431.42 39.8121C1431.02 39.6633 1430.68 39.5534 1430.43 39.4819C1430.3 39.4462 1430.2 39.4227 1430.12 39.4086C1430.04 39.3935 1430.02 39.3943 1430.03 39.3943C1429.57 39.3943 1429.3 39.4746 1429.17 39.5472C1429.07 39.6043 1429.03 39.6627 1429 39.7529C1428.91 40.0372 1428.97 40.7174 1429.59 41.9108C1430.78 44.2017 1433.57 47.4919 1437.76 51.1966C1440.81 53.8521 1442.95 55.9756 1444.1 57.5448C1444.65 58.3028 1445.09 59.0735 1445.17 59.7936C1445.21 60.187 1445.16 60.6222 1444.9 61.0113C1444.64 61.3881 1444.28 61.6074 1443.92 61.7304C1443.05 62.0529 1439.71 62.9971 1435.05 64.2345C1430.33 65.4885 1424.19 67.0617 1417.7 68.6348C1405.59 71.5879 1398.43 73.6767 1394.77 75.4622C1393.86 75.9038 1393.21 76.3077 1392.76 76.6753C1392.31 77.0453 1392.12 77.3355 1392.05 77.5369C1391.94 77.8169 1391.96 78.2717 1392.83 79.1353C1392.82 79.1334 1392.82 79.1324 1392.82 79.1323C1392.82 79.1311 1392.93 79.2094 1393.27 79.2956C1393.61 79.3838 1394.11 79.4557 1394.78 79.4982C1396.12 79.583 1398.03 79.5436 1400.59 79.3606C1405.71 78.9951 1413.29 78.0668 1423.79 76.4961L1423.8 76.4952C1432.06 75.3151 1439.69 74.3802 1445.33 73.8137C1448.14 73.5307 1450.48 73.3385 1452.15 73.2544C1452.98 73.2125 1453.67 73.1964 1454.18 73.2118C1454.43 73.2194 1454.67 73.2354 1454.87 73.2665C1454.97 73.282 1455.08 73.305 1455.2 73.3432C1455.29 73.3733 1455.5 73.4498 1455.69 73.6351L1455.74 73.6853L1455.78 73.7422C1455.98 74.0113 1456.03 74.3056 1456.04 74.4884C1456.06 74.6872 1456.04 74.887 1456.01 75.0674C1455.95 75.4299 1455.83 75.8567 1455.67 76.3176C1455.35 77.248 1454.83 78.4659 1454.16 79.8776C1452.82 82.7091 1450.84 86.4172 1448.58 90.3591L1448.57 90.3672L1448.57 90.3752C1446.22 94.296 1444.06 98.0221 1442.44 100.843C1441.93 101.729 1441.47 102.533 1441.07 103.228C1440.34 104.52 1439.81 105.437 1439.59 105.805C1439.59 105.824 1439.59 105.852 1439.6 105.891C1439.63 106.032 1439.71 106.238 1439.86 106.5C1440.16 107.02 1440.67 107.621 1441.28 108.151C1441.79 108.572 1442.19 108.764 1442.56 108.824C1442.94 108.883 1443.4 108.831 1444.07 108.539C1445.47 107.925 1447.41 106.421 1450.58 103.651C1452.76 101.669 1454.95 99.8805 1456.72 98.5811C1457.61 97.932 1458.4 97.3941 1459.06 97.0138C1459.38 96.8242 1459.69 96.6636 1459.96 96.5474C1460.21 96.4445 1460.54 96.3252 1460.87 96.3252C1461.47 96.3252 1461.87 96.7361 1462.04 96.9406C1462.26 97.2004 1462.47 97.5362 1462.66 97.8977C1463.04 98.6301 1463.45 99.6493 1463.86 100.858C1464.68 103.287 1465.58 106.617 1466.37 110.275L1466.37 110.284L1466.37 110.293C1468.04 118.747 1469.45 124.19 1470.94 127.51C1471.69 129.164 1472.42 130.208 1473.14 130.835C1473.84 131.435 1474.56 131.684 1475.41 131.684C1476.52 131.684 1477.27 131.378 1477.85 130.719C1478.48 130.004 1479.01 128.759 1479.36 126.654C1480.05 122.442 1479.91 115.39 1479.12 104.073L1479.12 104.073C1478.73 98.3625 1478.53 93.2279 1478.56 89.5102C1478.57 87.6573 1478.64 86.1259 1478.77 85.0428C1478.84 84.5103 1478.92 84.0301 1479.05 83.6605C1479.11 83.4809 1479.21 83.2593 1479.36 83.0641C1479.51 82.8678 1479.83 82.5747 1480.32 82.5747C1480.6 82.5747 1480.97 82.6682 1481.27 82.7556C1481.62 82.8564 1482.07 83.0008 1482.58 83.1801C1483.61 83.5395 1484.97 84.0546 1486.56 84.6828C1489.74 85.94 1493.87 87.6631 1498.2 89.5319L1498.2 89.5336C1506.76 93.2728 1512.31 95.3342 1515.68 95.9485C1517.4 96.2607 1518.34 96.1533 1518.81 95.9126C1519.14 95.744 1519.39 95.4322 1519.39 94.5751C1519.39 93.7469 1519.23 93.0052 1518.79 92.1905C1518.33 91.3514 1517.55 90.3988 1516.25 89.1946C1513.64 86.7749 1509.14 83.5294 1501.57 78.3166C1497.92 75.951 1494.62 73.6327 1492.22 71.8263C1491.02 70.9237 1490.03 70.1402 1489.34 69.5377C1489 69.2388 1488.71 68.9686 1488.5 68.741C1488.39 68.6292 1488.29 68.5055 1488.2 68.3782C1488.16 68.3143 1488.11 68.2302 1488.06 68.131C1488.02 68.0417 1487.96 67.8751 1487.96 67.6633C1487.96 67.3034 1488.14 67.0591 1488.22 66.9683C1488.31 66.8574 1488.41 66.776 1488.47 66.7234C1488.62 66.6154 1488.79 66.5173 1488.96 66.4309C1489.3 66.2532 1489.77 66.0461 1490.35 65.8169C1491.5 65.3553 1493.16 64.7651 1495.18 64.0879C1499.22 62.7317 1504.78 61.0088 1510.88 59.2384L1510.88 59.2379C1521.78 56.0967 1529.43 53.5103 1534.34 51.2831C1536.81 50.1672 1538.52 49.1668 1539.61 48.268C1540.71 47.3546 1541 46.6909 1541 46.2574C1540.99 46.243 1540.96 46.1989 1540.86 46.1355C1540.65 45.986 1540.24 45.8155 1539.56 45.6748C1538.21 45.3962 1536.15 45.2997 1533.4 45.4093C1527.92 45.6276 1519.97 46.6493 1510.16 48.4139C1505.43 49.3007 1500.94 49.9924 1497.54 50.3642C1495.85 50.5497 1494.4 50.6582 1493.33 50.6678C1492.8 50.6726 1492.33 50.6537 1491.95 50.5978C1491.76 50.5701 1491.56 50.5285 1491.37 50.46C1491.22 50.4044 1490.96 50.291 1490.76 50.0518C1490.6 49.8706 1490.52 49.6714 1490.47 49.5244C1490.42 49.3572 1490.4 49.1887 1490.39 49.0385C1490.37 48.739 1490.39 48.3971 1490.43 48.0431C1490.53 47.328 1490.73 46.4109 1491.02 45.3708C1491.6 43.2839 1492.55 40.5918 1493.74 37.8101C1495.94 32.485 1497.22 28.4269 1497.71 25.6474C1497.96 24.2478 1497.99 23.2476 1497.89 22.5993C1497.84 22.2796 1497.76 22.0965 1497.7 22.0012C1497.64 21.9206 1497.61 21.9102 1497.6 21.9056C1497.53 21.8808 1497.19 21.8432 1496.41 22.2853C1495.68 22.7017 1494.75 23.4391 1493.62 24.5466C1491.37 26.7538 1488.49 30.2909 1485.07 35.2241C1482.5 39.0821 1479.92 42.4118 1477.87 44.6662C1476.84 45.7871 1475.92 46.6777 1475.18 47.2324C1474.81 47.5021 1474.42 47.7451 1474.04 47.8671C1473.69 47.9791 1472.99 48.0762 1472.5 47.5071C1472.28 47.2643 1472.11 46.9188 1471.98 46.6375C1471.82 46.2935 1471.66 45.8583 1471.48 45.3544C1471.13 44.3438 1470.72 42.9952 1470.27 41.4151C1469.38 38.2513 1468.35 34.1089 1467.36 29.7762L1467.36 29.7763L1467.36 29.7627C1465.39 20.527 1463.79 14.4723 1462.23 10.7376C1461.45 8.86852 1460.72 7.66183 1460.02 6.93285C1459.35 6.23347 1458.74 6.00005 1458.12 6.00005C1458.12 6.00005 1458.12 5.99973 1458.12 5.99941C1458.12 5.99824 1458.12 5.99724 1458.1 6.01502C1458.05 6.05653 1457.94 6.17757 1457.81 6.47461C1457.54 7.08083 1457.3 8.13899 1457.1 9.85183C1456.72 13.2492 1456.57 18.8414 1456.57 27.5903V50.1805Z" stroke="black" stroke-width="2"/>
</g>
<g filter="url(#filter2_d_24_398)">
<path d="M1467.57 1137.59V1160.18L1455.78 1154.29C1449.3 1151.14 1443.21 1148.39 1442.03 1148.39C1437.51 1148.39 1440.66 1154.48 1449.1 1161.95C1455.19 1167.25 1457.35 1170.2 1455.59 1170.79C1454.01 1171.38 1442.42 1174.52 1429.46 1177.66C1405.3 1183.56 1400.39 1186.11 1404.12 1189.84C1405.49 1191.22 1414.92 1190.63 1435.94 1187.49C1452.44 1185.13 1466.39 1183.75 1466.98 1184.34C1467.57 1185.13 1464.23 1192 1459.71 1199.86C1455 1207.72 1451.07 1214.79 1450.67 1215.38C1450.28 1216.16 1451.26 1217.74 1452.64 1218.92C1455 1220.88 1456.96 1219.9 1463.25 1214.4C1467.57 1210.47 1471.89 1207.33 1472.87 1207.33C1473.85 1207.33 1475.82 1213.22 1477.39 1220.49C1480.73 1237.38 1483.09 1242.68 1487.41 1242.68C1492.71 1242.68 1493.69 1236.59 1492.12 1214C1491.34 1202.61 1491.34 1193.57 1492.32 1193.57C1493.3 1193.57 1501.16 1196.72 1509.8 1200.45C1526.89 1207.91 1532.39 1208.9 1532.39 1204.58C1532.39 1200.65 1529.25 1197.9 1514.12 1187.49C1506.86 1182.77 1500.96 1178.25 1500.96 1177.66C1500.96 1177.07 1510.98 1173.73 1523.16 1170.2C1544.96 1163.91 1554 1159.79 1554 1156.25C1554 1153.31 1541.62 1153.89 1521.98 1157.43C1512.55 1159.2 1504.11 1160.18 1503.52 1159.39C1502.93 1158.81 1504.3 1153.7 1506.66 1148.2C1515.5 1126.79 1510 1124.82 1496.25 1144.66C1491.14 1152.32 1486.03 1157.82 1485.25 1156.84C1484.46 1156.06 1482.3 1148.2 1480.34 1139.55C1476.41 1121.09 1473.85 1115 1470.12 1115C1468.16 1115 1467.57 1120.11 1467.57 1137.59Z" fill="#F3ABCB"/>
<path d="M1468.57 1160.18V1161.8L1467.12 1161.07L1455.35 1155.19C1455.34 1155.19 1455.34 1155.19 1455.34 1155.18C1452.11 1153.62 1448.98 1152.15 1446.52 1151.08C1445.29 1150.54 1444.23 1150.11 1443.42 1149.81C1443.02 1149.66 1442.68 1149.55 1442.43 1149.48C1442.3 1149.45 1442.2 1149.42 1442.12 1149.41C1442.04 1149.39 1442.02 1149.39 1442.03 1149.39C1441.57 1149.39 1441.3 1149.47 1441.17 1149.55C1441.07 1149.6 1441.03 1149.66 1441 1149.75C1440.91 1150.04 1440.97 1150.72 1441.59 1151.91C1442.78 1154.2 1445.57 1157.49 1449.76 1161.2C1452.81 1163.85 1454.95 1165.98 1456.1 1167.54C1456.65 1168.3 1457.09 1169.07 1457.17 1169.79C1457.21 1170.19 1457.16 1170.62 1456.9 1171.01C1456.64 1171.39 1456.28 1171.61 1455.92 1171.73C1455.05 1172.05 1451.71 1173 1447.05 1174.23C1442.33 1175.49 1436.19 1177.06 1429.7 1178.63C1417.59 1181.59 1410.43 1183.68 1406.77 1185.46C1405.86 1185.9 1405.21 1186.31 1404.76 1186.68C1404.31 1187.05 1404.12 1187.34 1404.05 1187.54C1403.94 1187.82 1403.96 1188.27 1404.83 1189.14C1404.82 1189.13 1404.82 1189.13 1404.82 1189.13C1404.82 1189.13 1404.93 1189.21 1405.27 1189.3C1405.61 1189.38 1406.11 1189.46 1406.78 1189.5C1408.12 1189.58 1410.03 1189.54 1412.59 1189.36C1417.71 1189 1425.29 1188.07 1435.79 1186.5L1435.8 1186.5C1444.06 1185.32 1451.69 1184.38 1457.33 1183.81C1460.14 1183.53 1462.48 1183.34 1464.15 1183.25C1464.98 1183.21 1465.67 1183.2 1466.18 1183.21C1466.43 1183.22 1466.67 1183.24 1466.87 1183.27C1466.97 1183.28 1467.08 1183.31 1467.2 1183.34C1467.29 1183.37 1467.5 1183.45 1467.69 1183.64L1467.74 1183.69L1467.78 1183.74C1467.98 1184.01 1468.03 1184.31 1468.04 1184.49C1468.06 1184.69 1468.04 1184.89 1468.01 1185.07C1467.95 1185.43 1467.83 1185.86 1467.67 1186.32C1467.35 1187.25 1466.83 1188.47 1466.16 1189.88C1464.82 1192.71 1462.84 1196.42 1460.58 1200.36L1460.57 1200.37L1460.57 1200.38C1458.22 1204.3 1456.06 1208.02 1454.44 1210.84C1453.93 1211.73 1453.47 1212.53 1453.07 1213.23C1452.34 1214.52 1451.81 1215.44 1451.59 1215.8C1451.59 1215.82 1451.59 1215.85 1451.6 1215.89C1451.63 1216.03 1451.71 1216.24 1451.86 1216.5C1452.16 1217.02 1452.67 1217.62 1453.28 1218.15C1453.79 1218.57 1454.19 1218.76 1454.56 1218.82C1454.94 1218.88 1455.4 1218.83 1456.07 1218.54C1457.47 1217.93 1459.41 1216.42 1462.58 1213.65C1464.76 1211.67 1466.95 1209.88 1468.72 1208.58C1469.61 1207.93 1470.4 1207.39 1471.06 1207.01C1471.38 1206.82 1471.69 1206.66 1471.96 1206.55C1472.21 1206.44 1472.54 1206.33 1472.87 1206.33C1473.47 1206.33 1473.87 1206.74 1474.04 1206.94C1474.26 1207.2 1474.47 1207.54 1474.66 1207.9C1475.04 1208.63 1475.45 1209.65 1475.86 1210.86C1476.68 1213.29 1477.58 1216.62 1478.37 1220.28L1478.37 1220.28L1478.37 1220.29C1480.04 1228.75 1481.45 1234.19 1482.94 1237.51C1483.69 1239.16 1484.42 1240.21 1485.14 1240.83C1485.84 1241.43 1486.56 1241.68 1487.41 1241.68C1488.52 1241.68 1489.27 1241.38 1489.85 1240.72C1490.48 1240 1491.01 1238.76 1491.36 1236.65C1492.05 1232.44 1491.91 1225.39 1491.12 1214.07L1491.12 1214.07C1490.73 1208.36 1490.53 1203.23 1490.56 1199.51C1490.57 1197.66 1490.64 1196.13 1490.77 1195.04C1490.84 1194.51 1490.92 1194.03 1491.05 1193.66C1491.11 1193.48 1491.21 1193.26 1491.36 1193.06C1491.51 1192.87 1491.83 1192.57 1492.32 1192.57C1492.6 1192.57 1492.97 1192.67 1493.27 1192.76C1493.62 1192.86 1494.07 1193 1494.58 1193.18C1495.61 1193.54 1496.97 1194.05 1498.56 1194.68C1501.74 1195.94 1505.87 1197.66 1510.2 1199.53L1510.2 1199.53C1518.76 1203.27 1524.31 1205.33 1527.68 1205.95C1529.4 1206.26 1530.34 1206.15 1530.81 1205.91C1531.14 1205.74 1531.39 1205.43 1531.39 1204.58C1531.39 1203.75 1531.23 1203.01 1530.79 1202.19C1530.33 1201.35 1529.55 1200.4 1528.25 1199.19C1525.64 1196.77 1521.14 1193.53 1513.57 1188.32C1509.92 1185.95 1506.62 1183.63 1504.22 1181.83C1503.02 1180.92 1502.03 1180.14 1501.34 1179.54C1501 1179.24 1500.71 1178.97 1500.5 1178.74C1500.39 1178.63 1500.29 1178.51 1500.2 1178.38C1500.16 1178.31 1500.11 1178.23 1500.06 1178.13C1500.02 1178.04 1499.96 1177.88 1499.96 1177.66C1499.96 1177.3 1500.14 1177.06 1500.22 1176.97C1500.31 1176.86 1500.41 1176.78 1500.47 1176.72C1500.62 1176.62 1500.79 1176.52 1500.96 1176.43C1501.3 1176.25 1501.77 1176.05 1502.35 1175.82C1503.5 1175.36 1505.16 1174.77 1507.18 1174.09C1511.22 1172.73 1516.78 1171.01 1522.88 1169.24L1522.88 1169.24C1533.78 1166.1 1541.43 1163.51 1546.34 1161.28C1548.81 1160.17 1550.52 1159.17 1551.61 1158.27C1552.71 1157.35 1553 1156.69 1553 1156.26C1552.99 1156.24 1552.96 1156.2 1552.86 1156.14C1552.65 1155.99 1552.24 1155.82 1551.56 1155.67C1550.21 1155.4 1548.15 1155.3 1545.4 1155.41C1539.92 1155.63 1531.97 1156.65 1522.16 1158.41C1517.43 1159.3 1512.94 1159.99 1509.54 1160.36C1507.85 1160.55 1506.4 1160.66 1505.33 1160.67C1504.8 1160.67 1504.33 1160.65 1503.95 1160.6C1503.76 1160.57 1503.56 1160.53 1503.37 1160.46C1503.22 1160.4 1502.96 1160.29 1502.76 1160.05C1502.6 1159.87 1502.52 1159.67 1502.47 1159.52C1502.42 1159.36 1502.4 1159.19 1502.39 1159.04C1502.37 1158.74 1502.39 1158.4 1502.43 1158.04C1502.53 1157.33 1502.73 1156.41 1503.02 1155.37C1503.6 1153.28 1504.55 1150.59 1505.74 1147.81C1507.94 1142.48 1509.22 1138.43 1509.71 1135.65C1509.96 1134.25 1509.99 1133.25 1509.89 1132.6C1509.84 1132.28 1509.76 1132.1 1509.7 1132C1509.64 1131.92 1509.61 1131.91 1509.6 1131.91C1509.53 1131.88 1509.19 1131.84 1508.41 1132.29C1507.68 1132.7 1506.75 1133.44 1505.62 1134.55C1503.37 1136.75 1500.49 1140.29 1497.07 1145.22C1494.5 1149.08 1491.92 1152.41 1489.87 1154.67C1488.84 1155.79 1487.92 1156.68 1487.18 1157.23C1486.81 1157.5 1486.42 1157.75 1486.04 1157.87C1485.69 1157.98 1484.99 1158.08 1484.5 1157.51C1484.28 1157.26 1484.11 1156.92 1483.98 1156.64C1483.82 1156.29 1483.66 1155.86 1483.48 1155.35C1483.13 1154.34 1482.72 1153 1482.27 1151.42C1481.38 1148.25 1480.35 1144.11 1479.36 1139.78L1479.36 1139.78L1479.36 1139.76C1477.39 1130.53 1475.79 1124.47 1474.23 1120.74C1473.45 1118.87 1472.72 1117.66 1472.02 1116.93C1471.35 1116.23 1470.74 1116 1470.12 1116C1470.12 1116 1470.12 1116 1470.12 1116C1470.12 1116 1470.12 1116 1470.1 1116.02C1470.05 1116.06 1469.94 1116.18 1469.81 1116.47C1469.54 1117.08 1469.3 1118.14 1469.1 1119.85C1468.72 1123.25 1468.57 1128.84 1468.57 1137.59V1160.18Z" stroke="black" stroke-width="2"/>
</g>
<defs>
<filter id="filter0_d_24_398" x="0" y="743" width="151" height="135.448" filterUnits="userSpaceOnUse" color-interpolation-filters="sRGB">
<feFlood flood-opacity="0" result="BackgroundImageFix"/>
<feColorMatrix in="SourceAlpha" type="matrix" values="0 0 0 0 0 0 0 0 0 0 0 0 0 0 0 0 0 0 127 0" result="hardAlpha"/>
<feOffset dy="7.76457"/>
<feComposite in2="hardAlpha" operator="out"/>
<feColorMatrix type="matrix" values="0 0 0 0 0.745098 0 0 0 0 0.74902 0 0 0 0 0.705882 0 0 0 1 0"/>
<feBlend mode="normal" in2="BackgroundImageFix" result="effect1_dropShadow_24_398"/>
<feBlend mode="normal" in="SourceGraphic" in2="effect1_dropShadow_24_398" result="shape"/>
</filter>
<filter id="filter1_d_24_398" x="1391" y="5" width="151" height="135.448" filterUnits="userSpaceOnUse" color-interpolation-filters="sRGB">
<feFlood flood-opacity="0" result="BackgroundImageFix"/>
<feColorMatrix in="SourceAlpha" type="matrix" values="0 0 0 0 0 0 0 0 0 0 0 0 0 0 0 0 0 0 127 0" result="hardAlpha"/>
<feOffset dy="7.76457"/>
<feComposite in2="hardAlpha" operator="out"/>
<feColorMatrix type="matrix" values="0 0 0 0 0.745098 0 0 0 0 0.74902 0 0 0 0 0.705882 0 0 0 1 0"/>
<feBlend mode="normal" in2="BackgroundImageFix" result="effect1_dropShadow_24_398"/>
<feBlend mode="normal" in="SourceGraphic" in2="effect1_dropShadow_24_398" result="shape"/>
</filter>
<filter id="filter2_d_24_398" x="1403" y="1115" width="151" height="135.448" filterUnits="userSpaceOnUse" color-interpolation-filters="sRGB">
<feFlood flood-opacity="0" result="BackgroundImageFix"/>
<feColorMatrix in="SourceAlpha" type="matrix" values="0 0 0 0 0 0 0 0 0 0 0 0 0 0 0 0 0 0 127 0" result="hardAlpha"/>
<feOffset dy="7.76457"/>
<feComposite in2="hardAlpha" operator="out"/>
<feColorMatrix type="matrix" values="0 0 0 0 0.745098 0 0 0 0 0.74902 0 0 0 0 0.705882 0 0 0 1 0"/>
<feBlend mode="normal" in2="BackgroundImageFix" result="effect1_dropShadow_24_398"/>
<feBlend mode="normal" in="SourceGraphic" in2="effect1_dropShadow_24_398" result="shape"/>
</filter>
</defs>
</svg>
